<?xml version="1.0" encoding="utf-8"?>
<!-- Generator: Adobe Illustrator 16.0.0, SVG Export Plug-In . SVG Version: 6.00 Build 0)  -->
<!DOCTYPE svg PUBLIC "-//W3C//DTD SVG 1.1//EN" "http://www.w3.org/Graphics/SVG/1.1/DTD/svg11.dtd">
<svg version="1.1" xmlns="http://www.w3.org/2000/svg" xmlns:xlink="http://www.w3.org/1999/xlink" x="0px" y="0px" width="16px"
	 height="16px" viewBox="289.511 289.511 16 16" enable-background="new 289.511 289.511 16 16" xml:space="preserve">
<g id="Capa_1">
	<g>
		<g>
			<g>
				<path fill="#3C6688" d="M303.162,291.86c-0.733-0.733-1.589-1.31-2.54-1.713c-0.986-0.417-2.033-0.628-3.111-0.628
					c-1.079,0-2.125,0.211-3.111,0.628c-0.952,0.403-1.807,0.979-2.54,1.713s-1.31,1.588-1.712,2.54
					c-0.417,0.985-0.629,2.032-0.629,3.111c0,1.078,0.212,2.125,0.629,3.109c0.402,0.953,0.979,1.807,1.712,2.541
					s1.588,1.309,2.54,1.713c0.986,0.416,2.032,0.627,3.111,0.627c1.078,0,2.125-0.211,3.111-0.627
					c0.951-0.404,1.807-0.979,2.54-1.713s1.31-1.588,1.712-2.541c0.417-0.984,0.629-2.031,0.629-3.109
					c0-1.079-0.211-2.126-0.629-3.111C304.472,293.448,303.896,292.594,303.162,291.86z M297.511,304.35
					c-3.777,0-6.84-3.063-6.84-6.838c0-3.777,3.063-6.84,6.84-6.84s6.84,3.063,6.84,6.84
					C304.351,301.287,301.288,304.35,297.511,304.35z"/>
				<path fill="#3C6688" d="M297.511,305.516c-1.08,0-2.129-0.211-3.116-0.629c-0.954-0.404-1.81-0.98-2.545-1.715
					c-0.734-0.734-1.312-1.592-1.715-2.545c-0.418-0.988-0.63-2.035-0.63-3.115c0-1.081,0.212-2.129,0.63-3.117
					c0.403-0.953,0.98-1.81,1.715-2.544c0.735-0.734,1.591-1.312,2.545-1.715c0.987-0.418,2.036-0.63,3.116-0.63
					s2.129,0.212,3.116,0.63c0.954,0.403,1.81,0.98,2.544,1.715c0.735,0.735,1.313,1.591,1.716,2.544
					c0.417,0.988,0.63,2.036,0.63,3.117c0,1.08-0.213,2.127-0.63,3.115c-0.403,0.953-0.98,1.811-1.716,2.545
					c-0.734,0.734-1.59,1.311-2.544,1.715C299.64,305.305,298.591,305.516,297.511,305.516z M297.511,289.533
					c-1.077,0-2.122,0.211-3.106,0.627c-0.95,0.402-1.803,0.978-2.535,1.709c-0.732,0.732-1.308,1.586-1.71,2.536
					c-0.416,0.984-0.627,2.029-0.627,3.106c0,1.076,0.211,2.121,0.627,3.105c0.402,0.949,0.978,1.803,1.71,2.535
					s1.585,1.307,2.535,1.709c0.984,0.416,2.029,0.627,3.106,0.627c1.076,0,2.121-0.211,3.105-0.627
					c0.951-0.402,1.804-0.977,2.536-1.709s1.308-1.586,1.71-2.535c0.416-0.984,0.627-2.029,0.627-3.105
					c0-1.077-0.211-2.122-0.627-3.106c-0.402-0.95-0.978-1.804-1.71-2.536c-0.732-0.731-1.585-1.307-2.536-1.709
					C299.632,289.744,298.587,289.533,297.511,289.533z M297.511,304.363c-1.831,0-3.552-0.713-4.846-2.008
					c-1.294-1.293-2.007-3.014-2.007-4.844c0-1.831,0.713-3.552,2.007-4.846c1.294-1.295,3.015-2.008,4.846-2.008
					c1.83,0,3.551,0.713,4.846,2.008c1.294,1.294,2.007,3.015,2.007,4.846c0,1.83-0.713,3.551-2.007,4.844
					C301.062,303.65,299.341,304.363,297.511,304.363z M297.511,290.686c-1.823,0-3.537,0.71-4.827,1.999
					c-1.289,1.289-1.999,3.004-1.999,4.827c0,1.822,0.71,3.537,1.999,4.826c1.29,1.289,3.004,1.998,4.827,1.998
					s3.537-0.709,4.826-1.998s2-3.004,2-4.826c0-1.823-0.711-3.538-2-4.827S299.334,290.686,297.511,290.686z"/>
			</g>
		</g>
	</g>
</g>
<g id="Layer_2">
	<circle fill="#3C6688" cx="297.511" cy="297.511" r="5.828"/>
</g>
</svg>
