<?xml version="1.0" encoding="utf-8"?>
<!-- Generator: Adobe Illustrator 16.0.0, SVG Export Plug-In . SVG Version: 6.00 Build 0)  -->
<!DOCTYPE svg PUBLIC "-//W3C//DTD SVG 1.1//EN" "http://www.w3.org/Graphics/SVG/1.1/DTD/svg11.dtd">
<svg version="1.1" id="Capa_1" xmlns="http://www.w3.org/2000/svg" xmlns:xlink="http://www.w3.org/1999/xlink" x="0px" y="0px"
	 width="16px" height="16px" viewBox="289.511 289.511 16 16" enable-background="new 289.511 289.511 16 16" xml:space="preserve">
<g>
	<g>
		<g>
			<path fill="#C8CACC" d="M303.162,291.869c-0.733-0.733-1.589-1.31-2.54-1.713c-0.986-0.417-2.033-0.628-3.111-0.628
				c-1.079,0-2.125,0.211-3.111,0.628c-0.952,0.403-1.806,0.979-2.54,1.713c-0.733,0.733-1.31,1.588-1.712,2.54
				c-0.417,0.985-0.628,2.032-0.628,3.111c0,1.079,0.211,2.125,0.628,3.11c0.402,0.953,0.979,1.807,1.712,2.541
				c0.733,0.734,1.588,1.309,2.54,1.713c0.986,0.416,2.033,0.627,3.111,0.627c1.078,0,2.125-0.211,3.111-0.627
				c0.951-0.404,1.807-0.979,2.54-1.713s1.31-1.588,1.712-2.541c0.417-0.984,0.629-2.031,0.629-3.11
				c0-1.079-0.211-2.126-0.629-3.111C304.472,293.457,303.896,292.602,303.162,291.869z M297.511,304.358
				c-3.777,0-6.839-3.063-6.839-6.838c0-3.777,3.062-6.84,6.839-6.84s6.84,3.063,6.84,6.84
				C304.351,301.296,301.288,304.358,297.511,304.358z"/>
			<path fill="#C8CACC" d="M297.511,305.524c-1.08,0-2.129-0.211-3.116-0.629c-0.954-0.404-1.81-0.98-2.544-1.715
				s-1.312-1.592-1.715-2.545c-0.417-0.988-0.629-2.035-0.629-3.116c0-1.081,0.212-2.129,0.629-3.117
				c0.403-0.953,0.98-1.81,1.715-2.544s1.591-1.312,2.544-1.715c0.987-0.418,2.036-0.63,3.116-0.63s2.129,0.212,3.116,0.63
				c0.954,0.403,1.81,0.98,2.544,1.715c0.735,0.735,1.313,1.591,1.716,2.544c0.417,0.988,0.63,2.036,0.63,3.117
				c0,1.081-0.213,2.127-0.63,3.116c-0.403,0.953-0.98,1.811-1.716,2.545c-0.734,0.734-1.59,1.311-2.544,1.715
				C299.64,305.313,298.591,305.524,297.511,305.524z M297.511,289.542c-1.077,0-2.122,0.211-3.106,0.627
				c-0.95,0.402-1.803,0.978-2.536,1.709c-0.732,0.732-1.308,1.586-1.709,2.536c-0.417,0.984-0.627,2.029-0.627,3.106
				c0,1.077,0.211,2.122,0.627,3.106c0.402,0.949,0.977,1.803,1.709,2.535s1.585,1.307,2.536,1.709
				c0.984,0.416,2.029,0.627,3.106,0.627c1.076,0,2.121-0.211,3.105-0.627c0.951-0.402,1.804-0.977,2.536-1.709
				s1.308-1.586,1.71-2.535c0.416-0.984,0.627-2.029,0.627-3.106c0-1.077-0.211-2.122-0.627-3.106
				c-0.402-0.95-0.978-1.804-1.71-2.536c-0.732-0.731-1.585-1.307-2.536-1.709C299.632,289.752,298.587,289.542,297.511,289.542z
				 M297.511,304.372c-1.831,0-3.551-0.713-4.846-2.008c-1.294-1.293-2.007-3.014-2.007-4.844c0-1.831,0.713-3.552,2.007-4.846
				c1.294-1.295,3.015-2.008,4.846-2.008c1.83,0,3.551,0.713,4.846,2.008c1.294,1.294,2.007,3.015,2.007,4.846
				c0,1.831-0.713,3.551-2.007,4.844C301.062,303.659,299.341,304.372,297.511,304.372z M297.511,290.694
				c-1.823,0-3.537,0.71-4.827,1.999c-1.289,1.289-1.999,3.004-1.999,4.827c0,1.823,0.71,3.538,1.999,4.827
				c1.29,1.289,3.003,1.998,4.827,1.998s3.537-0.709,4.826-1.998s2-3.004,2-4.827c0-1.823-0.711-3.538-2-4.827
				S299.334,290.694,297.511,290.694z"/>
		</g>
	</g>
</g>
</svg>
