<?xml version="1.0" encoding="utf-8"?>
<!-- Generator: Adobe Illustrator 22.0.1, SVG Export Plug-In . SVG Version: 6.00 Build 0)  -->
<svg version="1.1"
	 id="svg2" xmlns:cc="http://creativecommons.org/ns#" xmlns:dc="http://purl.org/dc/elements/1.1/" xmlns:rdf="http://www.w3.org/1999/02/22-rdf-syntax-ns#" xmlns:svg="http://www.w3.org/2000/svg"
	 xmlns="http://www.w3.org/2000/svg" xmlns:xlink="http://www.w3.org/1999/xlink" x="0px" y="0px" viewBox="0 0 700 510"
	 style="enable-background:new 0 0 700 510;" xml:space="preserve">
<g id="g10" transform="matrix(1.3333333,0,0,-1.3333333,0,441.33333)">
	<g id="g12" transform="scale(0.1)">
		<path id="path14" d="M562.4,2002.7l820.5-304.8l-1.4-2195.6l-819,301.9V2002.7"/>
		<path id="path16" d="M1416.3,2535.9c94.1-278.4-30.6-504.1-278.5-504.1c-247.9,0-525.2,225.7-619.3,504.1
			c-94.1,278.4,30.6,504,278.5,504C1044.9,3039.9,1322.2,2814.2,1416.3,2535.9"/>
		<path id="path18" d="M2426.8,2002.7L1606.3,1698l1.4-2195.6l819,301.9V2002.7"/>
		<path id="path20" d="M1567.6,2535.9c-94.1-278.4,30.6-504.1,278.5-504.1c247.9,0,525.2,225.7,619.3,504.1
			c94.1,278.4-30.6,504-278.5,504C1939,3039.9,1661.7,2814.2,1567.6,2535.9"/>
		<path id="path22" d="M2636.7,2002.7l820.5-304.8l-1.4-2195.6l-819,301.9V2002.7"/>
		<path id="path24" d="M3495.9,2535.9c94.1-278.4-30.6-504.1-278.5-504.1c-248,0-525.2,225.7-619.3,504.1
			c-94.1,278.4,30.6,504,278.5,504C3124.5,3039.9,3401.8,2814.2,3495.9,2535.9"/>
		<path id="path26" d="M4763,3310v-754c0,0-265.8,104-297.6-164.7c-2.9-286,0-388.6,0-388.6l297.6,96.8v-661.6l-298.8-106.9V-211.7
			L3647.9-515v2727.2C3647.9,2212.2,3630.5,3194.4,4763,3310"/>
	</g>
</g>
</svg>
