<svg id="Layer_1" data-name="Layer 1" xmlns="http://www.w3.org/2000/svg" viewBox="0 0 1133 833"><title>QUICK_LOOK4</title><path d="M70,630V70H930V206.7a324.2,324.2,0,0,1,70,39.08V40A40.12,40.12,0,0,0,960,0H40A40.12,40.12,0,0,0,0,40V660a40.12,40.12,0,0,0,40,40H545.78a324.2,324.2,0,0,1-39.08-70Z"/><path d="M808,253a253.94,253.94,0,1,1-99.24,20A253.33,253.33,0,0,1,808,253m0-70c-179.49,0-325,145.51-325,325S628.51,833,808,833s325-145.51,325-325S987.49,183,808,183Z"/><path d="M823,333H793a20.06,20.06,0,0,0-20,20V663a20.06,20.06,0,0,0,20,20h30a20.06,20.06,0,0,0,20-20V353a20.06,20.06,0,0,0-20-20Z"/><path d="M963,473H653a20.06,20.06,0,0,0-20,20v30a20.06,20.06,0,0,0,20,20H963a20.06,20.06,0,0,0,20-20V493a20.06,20.06,0,0,0-20-20Z"/></svg>