<?xml version="1.0" standalone="no"?>
<!DOCTYPE svg PUBLIC "-//W3C//DTD SVG 1.1//EN" "http://www.w3.org/Graphics/SVG/1.1/DTD/svg11.dtd" >
<svg xmlns="http://www.w3.org/2000/svg" xmlns:xlink="http://www.w3.org/1999/xlink" version="1.1">
<metadata>
Created by FontForge 20170731 at Tue Jul 14 16:07:24 2020
 By Aleksey,,,
Copyright 2021, Kris Sowersby, Klim Type Foundry.
</metadata>
<defs>
<font id="Signifier-LightItalic" horiz-adv-x="600" >
  <font-face 
    font-family="Copyright Klim Type Foundry"
    font-weight="300"
    font-style="italic"
    font-stretch="normal"
    units-per-em="1000"
    panose-1="2 11 3 3 4 5 4 13 2 4"
    ascent="800"
    descent="-200"
    x-height="458"
    cap-height="690"
    bbox="-266 -290 1169 968"
    underline-thickness="39"
    underline-position="-182"
    slope="-21"
    unicode-range="U+000D-FB06"
  />
<missing-glyph horiz-adv-x="1036" 
d="M708 591v-237l51 -3v-197l-39 170l-12 23v-275l-168 -11l-85 -21l-3 -21l-308 -19l310 41l33 326l-126 8l-140 35v128l188 173l108 -43l4 43l29 -57zM759 373l221 -35l-221 13v22zM480 20v-124l-28 118v4z" />
    <glyph glyph-name="ff" unicode="ff" horiz-adv-x="520" 
d="M-175 -199l136 -12l178 603h-83l26 43h70q63 182 122 258t134 76q25 0 40.5 -12t15.5 -30q0 -14 -7.5 -28t-20.5 -23l-118 35l-91 -276h171q61 184 122 264.5t139 80.5q27 0 44 -13.5t17 -33.5q0 -14 -7.5 -27.5t-20.5 -23.5l-126 38l-93 -285h117l-26 -43h-105
l-106 -323q-64 -195 -118.5 -272t-122.5 -77q-22 0 -33.5 13.5t-11.5 39.5q0 7 1.5 16t4.5 22l137 -12l175 593h-172l-109 -333q-62 -193 -117 -271t-123 -78q-22 0 -33.5 13.5t-11.5 39.5q0 9 1.5 19t4.5 19z" />
    <glyph glyph-name="fi" unicode="fi" horiz-adv-x="506" 
d="M-175 -199l136 -12l178 603h-83l26 43h70q60 183 122.5 264t142.5 81q27 0 43.5 -13.5t16.5 -34.5q0 -16 -7.5 -30t-20.5 -23l-128 41l-94 -285h191l66 24l-160 -416l157 78q-35 -50 -88.5 -87.5t-94.5 -37.5q-25 0 -35 17t0 43l129 336h-179l-109 -333
q-62 -193 -117 -271t-123 -78q-22 0 -33.5 13.5t-11.5 39.5q0 9 1.5 19t4.5 19z" />
    <glyph glyph-name="fl" unicode="fl" horiz-adv-x="507" 
d="M139 392h-83l26 43h70q62 185 122.5 265t135.5 80q27 0 46 -14t26 -37l119 51l-276 -737l157 78q-35 -50 -88.5 -87.5t-94.5 -37.5q-25 0 -35.5 17t-0.5 43l126 336h-176l-109 -333q-62 -193 -117 -271t-123 -78q-22 0 -33.5 13.5t-11.5 39.5q0 9 1.5 19t4.5 19l136 -12z
M501 691l-180 29l-94 -285h178z" />
    <glyph glyph-name="ffi" unicode="ffi" horiz-adv-x="752" 
d="M-175 -199l136 -12l178 603h-83l26 43h70q63 182 122 258t134 76q25 0 40.5 -12t15.5 -30q0 -14 -7.5 -28t-20.5 -23l-118 35l-91 -276h171q60 184 122 264.5t142 80.5q28 0 44.5 -14t16.5 -34q0 -16 -7.5 -29.5t-21.5 -23.5l-128 41l-93 -285h190l66 24l-160 -416
l157 78q-35 -50 -88.5 -87.5t-94.5 -37.5q-25 0 -35 17t0 43l129 336h-178l-106 -323q-64 -195 -118.5 -272t-122.5 -77q-22 0 -33.5 13.5t-11.5 39.5q0 7 1.5 16t4.5 22l137 -12l175 593h-172l-109 -333q-62 -193 -117 -271t-123 -78q-22 0 -33.5 13.5t-11.5 39.5
q0 9 1.5 19t4.5 19z" />
    <glyph glyph-name="ffl" unicode="ffl" horiz-adv-x="752" 
d="M-175 -199l136 -12l178 603h-83l26 43h70q63 182 122 258t134 76q25 0 40.5 -12t15.5 -30q0 -14 -7.5 -28t-20.5 -23l-118 35l-91 -276h171q61 183 121.5 264t136.5 81q27 0 45.5 -13.5t25.5 -37.5l120 51l-277 -737l157 78q-35 -50 -88.5 -87.5t-94.5 -37.5
q-25 0 -35 17t0 43l125 336h-175l-106 -323q-64 -195 -118.5 -272t-122.5 -77q-22 0 -33.5 13.5t-11.5 39.5q0 7 1.5 16t4.5 22l137 -12l175 593h-172l-109 -333q-62 -193 -117 -271t-123 -78q-22 0 -33.5 13.5t-11.5 39.5q0 9 1.5 19t4.5 19zM746 691l-180 29l-93 -285h177
z" />
    <glyph glyph-name="f_b" unicode="fb" horiz-adv-x="702" 
d="M139 392h-83l26 43h70q62 185 122.5 265t135.5 80q27 0 46 -14t26 -37l119 51l-185 -492h16q63 88 112 129t90 41q28 0 42.5 -24.5t14.5 -73.5q0 -60 -28.5 -124.5t-79.5 -120.5q-53 -59 -115.5 -92t-120.5 -33q-37 0 -59 17.5t-23 46.5l125 338h-177l-109 -333
q-62 -193 -117 -271t-123 -78q-22 0 -33.5 13.5t-11.5 39.5q0 9 1.5 19t4.5 19l136 -12zM406 435l95 256l-180 29l-94 -285h179zM399 216l-77 -198q61 1 120 38t103 101q40 58 59.5 125.5t14.5 132.5q-34 -1 -107 -69.5t-113 -129.5z" />
    <glyph glyph-name="f_f_b" unicode="ffb" horiz-adv-x="947" 
d="M-175 -199l136 -12l178 603h-83l26 43h70q63 182 122 258t134 76q25 0 40.5 -12t15.5 -30q0 -14 -7.5 -28t-20.5 -23l-118 35l-91 -276h171q61 183 121.5 264t136.5 81q27 0 45.5 -13.5t25.5 -37.5l120 51l-186 -492h16q62 87 112 128.5t91 41.5q28 0 42 -25t14 -73
q0 -60 -28.5 -124.5t-79.5 -120.5q-53 -59 -115 -92t-120 -33q-37 0 -59.5 17.5t-23.5 46.5l125 338h-176l-108 -330q-63 -193 -118 -271t-123 -78q-22 0 -33.5 13.5t-11.5 39.5q0 7 1.5 16t4.5 22l136 -12l178 600h-172l-109 -333q-62 -193 -117 -271t-123 -78
q-22 0 -33.5 13.5t-11.5 39.5q0 9 1.5 19t4.5 19zM651 435l95 256l-180 29l-93 -285h178zM645 216l-78 -198q61 1 120 38t103 101q40 58 59.5 125.5t14.5 132.5q-34 -1 -106.5 -69.5t-112.5 -129.5z" />
    <glyph glyph-name="f_h" unicode="fh" horiz-adv-x="703" 
d="M139 392h-83l26 43h70q62 185 122.5 265t135.5 80q27 0 46 -14t26 -37l119 51l-185 -492h16q61 88 110.5 129t92.5 41q28 0 42 -23.5t14 -72.5q0 -43 -22 -101.5t-60 -117.5q-44 -68 -91 -110.5t-80 -42.5q-27 0 -37 21.5t1 54.5h119q46 81 75 185t21 164
q-34 -1 -106.5 -68.5t-113.5 -128.5l-82 -218h-70l145 392h-177l-109 -333q-62 -193 -117 -271t-123 -78q-22 0 -33.5 13.5t-11.5 39.5q0 9 1.5 19t4.5 19l136 -12zM406 435l95 256l-180 29l-94 -285h179z" />
    <glyph glyph-name="f_f_h" unicode="ffh" horiz-adv-x="948" 
d="M-175 -199l136 -12l178 603h-83l26 43h70q63 182 122 258t134 76q25 0 40.5 -12t15.5 -30q0 -14 -7.5 -28t-20.5 -23l-118 35l-91 -276h171q61 183 121.5 264t136.5 81q27 0 45.5 -13.5t25.5 -37.5l120 51l-186 -492h16q64 90 112.5 130t90.5 40q28 0 42 -23.5t14 -72.5
q0 -43 -22 -101t-59 -118q-44 -68 -91 -110.5t-80 -42.5q-27 0 -37.5 21.5t0.5 54.5h119q46 82 75.5 185.5t21.5 163.5q-34 -1 -107.5 -69t-112.5 -128l-83 -218h-70l145 392h-176l-108 -330q-63 -193 -118 -271t-123 -78q-22 0 -33.5 13.5t-11.5 39.5q0 7 1.5 16t4.5 22
l136 -12l178 600h-172l-109 -333q-62 -193 -117 -271t-123 -78q-22 0 -33.5 13.5t-11.5 39.5q0 9 1.5 19t4.5 19zM651 435l95 256l-180 29l-93 -285h178z" />
    <glyph glyph-name="f_idieresis" unicode="f&#xef;" horiz-adv-x="506" 
d="M-175 -199l136 -12l178 603h-83l26 43h70q60 183 122.5 264t142.5 81q27 0 43.5 -13.5t16.5 -34.5q0 -16 -7.5 -30t-20.5 -23l-128 41l-94 -285h191l66 24l-160 -416l157 78q-35 -50 -88.5 -87.5t-94.5 -37.5q-25 0 -35 17t0 43l129 336h-179l-109 -333
q-62 -193 -117 -271t-123 -78q-22 0 -33.5 13.5t-11.5 39.5q0 9 1.5 19t4.5 19zM570 577q-22 0 -36.5 14.5t-14.5 35.5t14.5 36t36.5 15t37 -15t15 -36t-15 -35.5t-37 -14.5z" />
    <glyph glyph-name="f_f_idieresis" unicode="ff&#xef;" horiz-adv-x="752" 
d="M-175 -199l136 -12l178 603h-83l26 43h70q63 182 122 258t134 76q25 0 40.5 -12t15.5 -30q0 -14 -7.5 -28t-20.5 -23l-118 35l-91 -276h171q60 184 122 264.5t142 80.5q28 0 44.5 -14t16.5 -34q0 -16 -7.5 -29.5t-21.5 -23.5l-128 41l-93 -285h190l66 24l-160 -416
l157 78q-35 -50 -88.5 -87.5t-94.5 -37.5q-25 0 -35 17t0 43l129 336h-178l-106 -323q-64 -195 -118.5 -272t-122.5 -77q-22 0 -33.5 13.5t-11.5 39.5q0 7 1.5 16t4.5 22l137 -12l175 593h-172l-109 -333q-62 -193 -117 -271t-123 -78q-22 0 -33.5 13.5t-11.5 39.5
q0 9 1.5 19t4.5 19zM816 577q-22 0 -36.5 14.5t-14.5 35.5q0 22 14.5 36.5t36.5 14.5q21 0 36 -15t15 -36t-14.5 -35.5t-36.5 -14.5z" />
    <glyph glyph-name="f_j" unicode="fj" horiz-adv-x="481" 
d="M-175 -199l136 -12l178 603h-83l26 43h70q60 183 122.5 264t142.5 81q27 0 43.5 -13.5t16.5 -34.5q0 -16 -7.5 -30t-20.5 -23l-128 41l-94 -285h194l63 24l-136 -400q-62 -186 -117.5 -262.5t-121.5 -76.5q-22 0 -33.5 13.5t-11.5 39.5q0 7 1.5 16t4.5 22l134 -12
l183 593h-174l-109 -333q-62 -193 -117 -271t-123 -78q-22 0 -33.5 13.5t-11.5 39.5q0 9 1.5 19t4.5 19z" />
    <glyph glyph-name="f_f_j" unicode="ffj" horiz-adv-x="726" 
d="M-175 -199l136 -12l178 603h-83l26 43h70q63 182 122 258t134 76q25 0 40.5 -12t15.5 -30q0 -14 -7.5 -28t-20.5 -23l-118 35l-91 -276h171q60 184 122 264.5t142 80.5q28 0 44.5 -14t16.5 -34q0 -16 -7.5 -29.5t-21.5 -23.5l-128 41l-93 -285h193l63 24l-136 -400
q-63 -188 -117.5 -263.5t-120.5 -75.5q-22 0 -33.5 13.5t-11.5 39.5q0 9 1.5 19t4.5 19l134 -12l183 593h-174l-106 -323q-64 -195 -118.5 -272t-122.5 -77q-22 0 -33.5 13.5t-11.5 39.5q0 7 1.5 16t4.5 22l137 -12l175 593h-172l-109 -333q-62 -193 -117 -271t-123 -78
q-22 0 -33.5 13.5t-11.5 39.5q0 9 1.5 19t4.5 19z" />
    <glyph glyph-name="f_k" unicode="fk" horiz-adv-x="704" 
d="M139 392h-83l26 43h70q62 185 122.5 265t135.5 80q27 0 46 -14t26 -37l119 51l-183 -489h16q71 89 123.5 128t97.5 39q29 0 44 -14.5t15 -43.5q0 -64 -68.5 -130.5t-171.5 -107.5l203 -312l-108 29l-144 266q-20 -6 -34 -9t-26 -4l-50 -132h-70l145 392h-177l-109 -333
q-62 -193 -117 -271t-123 -78q-22 0 -33.5 13.5t-11.5 39.5q0 9 1.5 19t4.5 19l136 -12zM406 435l95 256l-180 29l-94 -285h179zM645 425q-48 -13 -115.5 -67.5t-126.5 -124.5l-34 -91q115 42 195.5 121.5t80.5 161.5z" />
    <glyph glyph-name="f_f_k" unicode="ffk" horiz-adv-x="949" 
d="M-175 -199l136 -12l178 603h-83l26 43h70q63 182 122 258t134 76q25 0 40.5 -12t15.5 -30q0 -14 -7.5 -28t-20.5 -23l-118 35l-91 -276h171q61 183 121.5 264t136.5 81q27 0 45.5 -13.5t25.5 -37.5l120 51l-184 -489h16q71 89 123.5 128t97.5 39q30 0 45 -14.5t15 -43.5
q0 -64 -68.5 -130.5t-172.5 -107.5l203 -312l-108 29l-144 266q-20 -6 -34 -9t-26 -4l-50 -132h-70l145 392h-176l-108 -330q-63 -193 -118 -271t-123 -78q-22 0 -33.5 13.5t-11.5 39.5q0 7 1.5 16t4.5 22l136 -12l178 600h-172l-109 -333q-62 -193 -117 -271t-123 -78
q-22 0 -33.5 13.5t-11.5 39.5q0 9 1.5 19t4.5 19zM651 435l95 256l-180 29l-93 -285h178zM891 425q-48 -13 -116 -67.5t-127 -124.5l-34 -91q116 41 196.5 121t80.5 162z" />
    <glyph glyph-name=".notdef" horiz-adv-x="1036" 
d="M708 591v-237l51 -3v-197l-39 170l-12 23v-275l-168 -11l-85 -21l-3 -21l-308 -19l310 41l33 326l-126 8l-140 35v128l188 173l108 -43l4 43l29 -57zM759 373l221 -35l-221 13v22zM480 20v-124l-28 118v4z" />
    <glyph glyph-name=".null" horiz-adv-x="0" 
 />
    <glyph glyph-name="nonmarkingreturn" unicode="&#xd;" horiz-adv-x="500" 
 />
    <glyph glyph-name="NULL" horiz-adv-x="500" 
 />
    <glyph glyph-name="NULL" horiz-adv-x="500" 
 />
    <glyph glyph-name="space" unicode=" " horiz-adv-x="178" 
 />
    <glyph glyph-name="exclam" unicode="!" horiz-adv-x="306" 
d="M318 700q25 0 37.5 -18t4.5 -44l-233 -460l126 472q11 25 27.5 37.5t37.5 12.5zM27 51q0 25 17.5 43t42.5 18t42.5 -17.5t17.5 -43.5q0 -25 -17.5 -42t-42.5 -17t-42.5 17.5t-17.5 41.5z" />
    <glyph glyph-name="quotedbl" unicode="&#x22;" horiz-adv-x="342" 
d="M475 703l-164 -305l77 306q6 19 20.5 31.5t32.5 12.5q20 0 29.5 -14t4.5 -31zM324 703l-164 -305l77 306q6 19 20.5 31.5t32.5 12.5q20 0 29.5 -14t4.5 -31z" />
    <glyph glyph-name="numbersign" unicode="#" horiz-adv-x="652" 
d="M37 0h-42l156 212h-108l13 35h121l144 196h-130l14 35h142l156 212h42l-156 -212h163l156 212h42l-156 -212h109l-14 -35h-121l-144 -196h130l-14 -35h-142l-156 -212h-42l156 212h-163zM363 443l-144 -196h163l144 196h-163z" />
    <glyph glyph-name="dollar" unicode="$" horiz-adv-x="521" 
d="M450 693l53 117h34l-58 -128q19 -8 36 -21t30 -28l86 63l-84 -209q-7 53 -30 93t-57 60l-110 -241q79 -55 103.5 -92.5t24.5 -82.5q0 -93 -79.5 -163t-192.5 -70q-10 0 -20.5 1t-19.5 2l-54 -120h-34l57 126q-44 11 -81.5 34t-58.5 53l36 134q7 -62 40 -107.5t86 -65.5
l135 298q-67 49 -88.5 82t-21.5 72q0 84 62 141.5t155 57.5q13 0 26 -1.5t25 -4.5zM389 658q-63 0 -102.5 -35t-39.5 -91q0 -30 17.5 -56.5t60.5 -57.5l106 234q-10 3 -20.5 4.5t-21.5 1.5zM230 35q74 0 124.5 45t50.5 116q0 35 -19 65t-68 66l-131 -288q9 -2 19.5 -3
t23.5 -1z" />
    <glyph glyph-name="percent" unicode="%" horiz-adv-x="672" 
d="M421 579q0 -64 -47 -109t-114 -45q-51 0 -85 35t-34 86q0 64 47 109t114 45q51 0 85 -35t34 -86zM703 690h74l-684 -643l-31 -47h-75l684 643zM185 545q0 -33 22 -55.5t56 -22.5q49 0 81.5 32.5t32.5 80.5q0 34 -21.5 56t-55.5 22q-49 0 -82 -32.5t-33 -80.5zM343 111
q0 64 47 109t114 45q51 0 85 -35t34 -86q0 -64 -47 -109t-113 -45q-51 0 -85.5 35t-34.5 86zM579 145q0 34 -21.5 56t-55.5 22q-49 0 -82 -32.5t-33 -80.5q0 -33 22 -55.5t56 -22.5q49 0 81.5 32.5t32.5 80.5z" />
    <glyph glyph-name="ampersand" unicode="&#x26;" horiz-adv-x="1095" 
d="M641 696l-131 74h268l-605 -634q33 -63 104.5 -99t161.5 -36q155 0 261.5 90t106.5 222q0 71 -32.5 111t-89.5 40q-51 0 -86.5 -34.5t-35.5 -87.5q0 -37 21 -59t55 -22v85q35 1 55.5 -13t20.5 -41q0 -26 -23 -43.5t-58 -17.5q-45 0 -75 30.5t-30 78.5q0 69 53.5 116
t129.5 47q68 0 134 -40.5t163 -150.5l58 47l-60 65q7 17 22.5 27.5t33.5 10.5q21 0 33.5 -14t12.5 -37q0 -43 -50 -88t-104 -55l-146 153l-14 -1q21 -26 32.5 -63.5t11.5 -79.5q0 -70 -35 -137.5t-97 -118.5q-57 -46 -128 -71t-147 -25q-141 0 -233.5 80t-92.5 200
q0 71 30.5 135t86.5 110q54 44 122 63t142 10zM148 236q0 -21 3.5 -40.5t11.5 -37.5l262 295q-112 22 -194.5 -42t-82.5 -175z" />
    <glyph glyph-name="quotesingle" unicode="'" horiz-adv-x="192" 
d="M324 703l-164 -305l77 306q6 19 20.5 31.5t32.5 12.5q20 0 29.5 -14t4.5 -31z" />
    <glyph glyph-name="parenleft" unicode="(" horiz-adv-x="407" 
d="M193 -177q-47 69 -71 142t-24 147q0 181 117 348.5t330 286.5q-187 -157 -285 -339.5t-98 -373.5q0 -50 8 -106t23 -105z" />
    <glyph glyph-name="parenright" unicode=")" horiz-adv-x="407" 
d="M260 747q47 -69 71 -142t24 -147q0 -181 -117 -348.5t-330 -286.5q187 157 285 339.5t98 373.5q0 50 -8 106t-23 105z" />
    <glyph glyph-name="asterisk" unicode="*" horiz-adv-x="456" 
d="M416 591l87 -141l-121 114l-80 -145l39 161l-166 -4l159 47l-87 140l121 -115l80 147l-40 -162l167 4z" />
    <glyph glyph-name="plus" unicode="+" 
d="M312 317h-233l18 45h232l90 234h48l-90 -234h232l-18 -45h-231l-90 -234h-48z" />
    <glyph glyph-name="comma" unicode="," horiz-adv-x="251" 
d="M-7 47q0 28 19.5 48t48.5 20q32 0 50.5 -21t18.5 -57q0 -82 -69 -148t-169 -81q87 47 133 100t46 107h-64q-7 4 -10.5 13t-3.5 19z" />
    <glyph glyph-name="hyphen" unicode="-" horiz-adv-x="393" 
d="M101 278h241l-27 -49h-241z" />
    <glyph glyph-name="period" unicode="." horiz-adv-x="251" 
d="M59 112q25 0 42.5 -17.5t17.5 -43.5q0 -25 -17.5 -42t-42.5 -17t-42.5 17.5t-17.5 41.5q0 25 17.5 43t42.5 18z" />
    <glyph glyph-name="slash" unicode="/" horiz-adv-x="420" 
d="M-102 -145l644 915h48l-645 -915h-47z" />
    <glyph glyph-name="zero" unicode="0" horiz-adv-x="571" 
d="M175 514q59 88 131.5 137t144.5 49q66 0 106 -55t40 -146q0 -78 -28 -163t-79 -160q-59 -87 -131.5 -136.5t-143.5 -49.5q-67 0 -107 55t-40 146q0 78 28.5 163.5t78.5 159.5zM144 165q0 -66 21 -101t62 -35q55 0 112 53.5t104 147.5q36 73 57 151.5t21 143.5
q0 66 -21 101t-62 35q-55 0 -112 -53.5t-104 -147.5q-36 -73 -57 -151.5t-21 -143.5z" />
    <glyph glyph-name="one" unicode="1" horiz-adv-x="415" 
d="M110 39l209 544h-173l294 117l-254 -661h133l-15 -39h-342l15 39h133z" />
    <glyph glyph-name="two" unicode="2" horiz-adv-x="518" 
d="M460 76l-95 -76h-437q325 229 436 342.5t111 196.5q0 43 -27 67.5t-75 24.5q-58 0 -115.5 -32.5t-135.5 -113.5q54 100 134 157.5t166 57.5q63 0 101 -34.5t38 -90.5q0 -63 -44 -131t-137 -148q-45 -39 -107 -85t-169 -120v-15h356z" />
    <glyph glyph-name="three" unicode="3" horiz-adv-x="466" 
d="M37 128l86 -107q103 6 172.5 63.5t69.5 137.5q0 66 -51.5 98.5t-156.5 32.5q149 63 208.5 113.5t59.5 109.5q0 28 -19.5 44t-54.5 16q-45 0 -98.5 -26.5t-107.5 -74.5q43 72 113 118.5t140 46.5q50 0 81 -25t31 -66q0 -60 -52 -113t-151 -95v-13q65 -16 99.5 -51
t34.5 -86q0 -55 -32.5 -106.5t-91.5 -89.5q-48 -31 -107.5 -48t-121.5 -17q-46 0 -73.5 18.5t-27.5 47.5q0 23 14.5 43.5t35.5 28.5z" />
    <glyph glyph-name="four" unicode="4" horiz-adv-x="614" 
d="M446 39l-15 -39h-282l15 39h105l72 189h-324l578 472l-164 -428h196l-53 -44h-160l-72 -189h104zM128 272h230l106 275z" />
    <glyph glyph-name="five" unicode="5" horiz-adv-x="480" 
d="M297 614l-78 -165q107 2 172 -44t65 -126q0 -119 -108.5 -204t-256.5 -85q-45 0 -72.5 18.5t-27.5 47.5q0 23 14.5 43.5t35.5 28.5l85 -107q116 14 185 75.5t69 155.5q0 74 -60 109.5t-168 22.5l145 306h288l-67 -76h-221z" />
    <glyph glyph-name="six" unicode="6" horiz-adv-x="543" 
d="M415 73q-39 -39 -88 -61t-97 -22q-81 0 -129 53.5t-48 139.5q0 97 62 198.5t169 179.5q93 67 203 103t226 36q-176 -41 -313 -129t-209 -206h23q39 25 70 35t66 10q66 0 106.5 -42.5t40.5 -109.5q0 -50 -21.5 -98t-60.5 -87zM170 328q-21 -43 -31.5 -86t-10.5 -84
q0 -63 27 -97.5t75 -34.5q76 0 134 64.5t58 151.5q0 55 -36 88.5t-94 33.5q-29 0 -62 -10t-60 -26z" />
    <glyph glyph-name="seven" unicode="7" horiz-adv-x="507" 
d="M670 690l-561 -690h-69l523 614h-405l66 76h446z" />
    <glyph glyph-name="eight" unicode="8" horiz-adv-x="535" 
d="M485 210q0 -86 -78.5 -153t-184.5 -67q-79 0 -134 43t-55 109q0 70 58 125.5t152 77.5v30q-34 31 -49.5 58.5t-15.5 57.5q0 84 66.5 146.5t161.5 62.5q73 0 124 -41t51 -103q0 -63 -43 -107.5t-139 -77.5v-29q47 -37 66.5 -68t19.5 -64zM397 663q-64 0 -108 -41.5
t-44 -100.5q0 -34 22.5 -66t94.5 -85q69 33 109.5 82t40.5 102q0 52 -30.5 80.5t-84.5 28.5zM282 344q-88 -33 -131.5 -83t-43.5 -118q0 -54 35 -85.5t92 -31.5q73 0 125 47.5t52 112.5q0 24 -11 46t-35 45q-9 9 -19.5 18t-63.5 49z" />
    <glyph glyph-name="nine" unicode="9" horiz-adv-x="543" 
d="M221 617q39 39 88 61t97 22q81 0 129 -53.5t48 -139.5q0 -97 -62 -198.5t-169 -179.5q-93 -67 -203 -103t-226 -36q176 41 313 129t209 206h-23q-39 -25 -70 -35t-66 -10q-66 0 -106.5 42.5t-40.5 109.5q0 50 21.5 98t60.5 87zM466 362q21 43 31.5 86t10.5 84
q0 63 -27 97.5t-75 34.5q-76 0 -134 -64.5t-58 -151.5q0 -55 36 -88.5t94 -33.5q29 0 62 10t60 26z" />
    <glyph glyph-name="colon" unicode=":" horiz-adv-x="250" 
d="M59 112q25 0 42.5 -17.5t17.5 -43.5q0 -25 -17.5 -42t-42.5 -17t-42.5 17.5t-17.5 41.5q0 25 17.5 43t42.5 18zM176 418q25 0 42.5 -17.5t17.5 -43.5q0 -25 -17.5 -42t-42.5 -17t-42.5 17.5t-17.5 41.5q0 25 17.5 43t42.5 18z" />
    <glyph glyph-name="semicolon" unicode=";" horiz-adv-x="251" 
d="M-7 47q0 28 19.5 48t48.5 20q32 0 50.5 -21t18.5 -57q0 -82 -69 -148t-169 -81q87 47 133 100t46 107h-64q-7 4 -10.5 13t-3.5 19zM177 418q25 0 42.5 -17.5t17.5 -43.5q0 -25 -17.5 -42t-42.5 -17t-42.5 17.5t-17.5 41.5q0 25 17.5 43t42.5 18z" />
    <glyph glyph-name="less" unicode="&#x3c;" horiz-adv-x="599" 
d="M474 92l-364 227l18 47l530 225l-22 -59l-468 -196l323 -195z" />
    <glyph glyph-name="equal" unicode="=" 
d="M629 415h-512l18 45h512zM554 217h-512l17 45h512z" />
    <glyph glyph-name="greater" unicode="&#x3e;" horiz-adv-x="599" 
d="M212 583l364 -227l-18 -47l-530 -225l22 59l468 196l-323 195z" />
    <glyph glyph-name="question" unicode="?" horiz-adv-x="467" 
d="M456 556q0 46 -36.5 79.5t-86.5 35.5l-87 -104q-18 1 -31 15.5t-13 33.5q0 38 34.5 61t93.5 23q74 0 127.5 -49t53.5 -119q0 -96 -84.5 -165.5t-236.5 -100.5l-50 62q144 23 230 84t86 144zM152 112q25 0 42.5 -17.5t17.5 -43.5q0 -25 -17.5 -42t-42.5 -17t-42.5 17.5
t-17.5 41.5q0 25 17.5 43t42.5 18z" />
    <glyph glyph-name="at" unicode="@" horiz-adv-x="874" 
d="M682 454l-179 -419q114 16 198 116t84 227q0 104 -55.5 159.5t-161.5 55.5q-92 0 -177.5 -41.5t-154.5 -119.5q-65 -73 -102 -164.5t-37 -180.5q0 -123 81 -196t216 -73q72 0 146 16.5t143 47.5q-63 -50 -146 -79t-166 -29q-150 0 -242.5 86t-92.5 224q0 97 43.5 196.5
t120.5 179.5q77 79 173.5 122t200.5 43q127 0 199 -67.5t72 -183.5q0 -76 -35 -147t-99 -124q-58 -49 -132.5 -74.5t-156.5 -25.5l75 155h-12q-53 -72 -106.5 -115t-89.5 -43q-22 0 -35 22.5t-12 58.5q2 53 26 113t65 114q46 61 99.5 96t102.5 35q22 0 41.5 -7.5t36.5 -22.5
zM503 413q-72 -43 -134.5 -156.5t-69.5 -215.5q36 0 105 59.5t110 121.5l62 141q-12 22 -31.5 35.5t-41.5 14.5z" />
    <glyph glyph-name="A" unicode="A" horiz-adv-x="747" 
d="M371 39h127l17 230h-232l-194 -230h125l-16 -39h-265l15 39h85l587 689l-47 -689h85l-16 -39h-286zM518 309l19 262l-221 -262h202z" />
    <glyph glyph-name="B" unicode="B" horiz-adv-x="650" 
d="M200 651l15 39h245q96 0 152 -36t56 -99q0 -73 -67.5 -127.5t-171.5 -69.5q71 -4 118.5 -41.5t47.5 -94.5q0 -94 -101.5 -158t-247.5 -64h-296l15 39h105l234 612h-104zM443 651h-58l-106 -277h62q102 0 172 49t70 128q0 49 -35.5 74.5t-104.5 25.5zM265 336l-114 -297
h102q113 0 185 51t72 137q0 53 -39.5 81t-111.5 28h-94z" />
    <glyph glyph-name="C" unicode="C" horiz-adv-x="638" 
d="M341 53q69 0 129 30.5t120 97.5q-38 -89 -114.5 -140t-168.5 -51q-103 0 -167.5 70.5t-64.5 181.5q0 82 32.5 163t91.5 148q63 69 141 108t157 39q49 0 89.5 -17t70.5 -50l87 62l-82 -212q-18 92 -60 133.5t-113 41.5q-63 0 -125.5 -33.5t-111.5 -93.5
q-45 -56 -70 -122.5t-25 -133.5q0 -103 49.5 -162.5t134.5 -59.5z" />
    <glyph glyph-name="D" unicode="D" horiz-adv-x="746" 
d="M215 690h217q151 0 241.5 -69.5t90.5 -186.5q0 -97 -49 -181.5t-140 -145.5q-76 -52 -172.5 -79.5t-200.5 -27.5h-252l15 39h105l234 612h-104zM676 432q0 110 -66 164.5t-201 54.5h-24l-234 -612h53q91 0 173.5 26t147.5 74q73 55 112 131t39 162z" />
    <glyph glyph-name="E" unicode="E" horiz-adv-x="656" 
d="M278 373h158l119 105l-96 -250l-29 106h-167l-113 -295h267l199 165l-112 -204h-554l15 39h105l234 612h-104l15 39h472l65 29l-79 -206l-32 138h-256z" />
    <glyph glyph-name="F" unicode="F" horiz-adv-x="614" 
d="M263 334l-113 -295h131l-15 -39h-316l15 39h105l234 612h-104l15 39h472l65 29l-79 -206l-31 138h-257l-107 -278h158l119 105l-96 -250l-29 106h-167z" />
    <glyph glyph-name="G" unicode="G" horiz-adv-x="755" 
d="M482 47l82 216h-119l16 39h293l-15 -39h-96l-66 -173h75q-72 -49 -147.5 -74.5t-150.5 -25.5q-122 0 -198.5 74.5t-76.5 194.5q0 85 35.5 165t100.5 144q64 63 145.5 97.5t165.5 34.5q55 0 102 -18.5t76 -49.5l90 63l-85 -212q-18 87 -66 131t-125 44q-69 0 -135.5 -32
t-118.5 -90q-50 -55 -76.5 -123.5t-26.5 -141.5q0 -106 61.5 -172t156.5 -66q27 0 52 3.5t51 10.5z" />
    <glyph glyph-name="H" unicode="H" horiz-adv-x="842" 
d="M200 651l15 39h290l-15 -39h-105l-106 -278h399l106 278h-104l15 39h290l-15 -39h-105l-234 -612h104l-15 -39h-290l15 39h105l113 295h-399l-113 -295h104l-15 -39h-290l15 39h105l234 612h-104z" />
    <glyph glyph-name="I" unicode="I" horiz-adv-x="362" 
d="M200 651l15 39h290l-15 -39h-105l-234 -612h104l-15 -39h-290l15 39h105l234 612h-104z" />
    <glyph glyph-name="J" unicode="J" horiz-adv-x="509" 
d="M340 336h-126l15 37h127l101 245h-252v-9l65 -55q-6 -14 -22.5 -24t-33.5 -10q-19 0 -31 13t-12 35q0 36 38.5 76.5t89.5 59.5l167 -69l109 102l-146 -364h104l-15 -37h-104l-123 -307q-37 -92 -109.5 -159.5t-141.5 -67.5q-28 0 -43.5 15.5t-15.5 41.5q0 12 4 25t11 26
l148 -48z" />
    <glyph glyph-name="K" unicode="K" horiz-adv-x="718" 
d="M200 651l15 39h290l-15 -39h-105l-100 -262h37l380 262h-109l16 39h262l-15 -39h-89l-397 -273l272 -378h-91l-270 379l-130 -340h104l-15 -39h-290l15 39h105l234 612h-104z" />
    <glyph glyph-name="L" unicode="L" horiz-adv-x="633" 
d="M70 39l234 612h-104l15 39h291l-16 -39h-105l-234 -612h246l201 171l-114 -210h-534l15 39h105z" />
    <glyph glyph-name="M" unicode="M" horiz-adv-x="958" 
d="M577 39h113l176 617l-504 -694l25 694l-290 -617h113l-16 -39h-256l15 39h95l291 612h-96l16 39h204l-25 -559l405 559h211l-15 -39h-96l-175 -612h95l-15 -39h-286z" />
    <glyph glyph-name="N" unicode="N" horiz-adv-x="757" 
d="M631 0h-78l-267 511l-181 -472h105l-15 -39h-257l16 39h104l201 523l-67 128h85l276 -538l191 499h-104l15 39h256l-15 -39h-105l-211 -551z" />
    <glyph glyph-name="O" unicode="O" horiz-adv-x="729" 
d="M505 700q105 0 173.5 -72t68.5 -183q0 -80 -34 -162t-95 -149q-63 -69 -141 -106.5t-160 -37.5q-106 0 -174 71.5t-68 183.5q0 80 34 162t95 149q63 69 141 106.5t160 37.5zM252 506q-44 -64 -69.5 -140t-25.5 -145q0 -89 44 -139.5t118 -50.5q70 0 134.5 40t115.5 113
q44 64 69.5 140t25.5 145q0 89 -43.5 139.5t-118.5 50.5q-69 0 -134 -40t-116 -113z" />
    <glyph glyph-name="P" unicode="P" horiz-adv-x="618" 
d="M304 651h-105l15 39h256q105 0 164 -40t59 -111q0 -51 -26 -95.5t-74 -78.5q-42 -29 -94 -45t-103 -16l-64 32q125 0 202 56.5t77 144.5q0 58 -39 86t-121 28h-67l-234 -612h131l-15 -39h-317l16 39h104z" />
    <glyph glyph-name="Q" unicode="Q" horiz-adv-x="728" 
d="M505 700q105 0 173.5 -72t68.5 -183q0 -80 -32.5 -159.5t-90.5 -144.5q-59 -65 -134 -103t-158 -45v-15l391 -179l-147 -26l-365 236q-66 42 -101 102.5t-35 133.5q0 80 34 162t95 149q63 69 141 106.5t160 37.5zM252 506q-44 -64 -69.5 -140t-25.5 -145q0 -89 44 -139.5
t118 -50.5q70 0 134.5 40t115.5 113q44 64 69.5 140t25.5 145q0 89 -43.5 139.5t-118.5 50.5q-69 0 -134 -40t-116 -113z" />
    <glyph glyph-name="R" unicode="R" horiz-adv-x="694" 
d="M151 39h104l-15 -39h-290l15 39h105l235 612h-105l15 39h264q104 0 160.5 -36t56.5 -102q0 -84 -76.5 -142.5t-201.5 -74.5l192 -335h-87l-185 331h-75zM463 651h-78l-108 -283h76q111 0 184 51t73 131q0 51 -36.5 76t-110.5 25z" />
    <glyph glyph-name="S" unicode="S" horiz-adv-x="536" 
d="M396 659q-63 0 -101.5 -35t-38.5 -92q0 -31 19.5 -59t84.5 -74q76 -54 100.5 -92t24.5 -83q0 -94 -79.5 -164t-193.5 -70q-64 0 -122 26.5t-89 69.5l36 135q10 -85 64.5 -136t134.5 -51q74 0 123 44.5t49 116.5q0 36 -20.5 67t-86.5 80q-70 51 -91.5 85t-21.5 74
q0 84 62 141.5t156 57.5q45 0 83.5 -18t61.5 -47l87 63l-84 -210q-12 80 -53.5 125.5t-104.5 45.5z" />
    <glyph glyph-name="T" unicode="T" horiz-adv-x="723" 
d="M233 719l43 -29h529l65 29l-81 -213l-32 145h-191l-235 -612h119l-16 -39h-316l15 39h118l234 612h-177l-157 -145z" />
    <glyph glyph-name="U" unicode="U" horiz-adv-x="752" 
d="M336 45q95 0 162 55t110 167l147 384h-104l15 39h256l-15 -39h-105l-151 -396q-51 -134 -136.5 -199.5t-207.5 -65.5q-90 0 -145 46.5t-55 124.5q0 22 6 48.5t19 60.5l146 381h-105l15 39h290l-15 -39h-105l-146 -383q-11 -29 -17 -54.5t-6 -46.5q0 -59 38 -90.5
t109 -31.5z" />
    <glyph glyph-name="V" unicode="V" horiz-adv-x="747" 
d="M467 651h-126l-38 -530l448 530h-125l16 39h265l-15 -39h-85l-586 -689l46 689h-85l16 39h285z" />
    <glyph glyph-name="W" unicode="W" horiz-adv-x="1008" 
d="M786 651h-126l-60 -520l412 520h-124l15 39h266l-16 -39h-84l-554 -689l51 473l-375 -473l76 689h-85l16 39h603zM589 651h-249l-62 -518l295 369z" />
    <glyph glyph-name="X" unicode="X" horiz-adv-x="798" 
d="M220 651l15 39h291l-15 -39h-111l78 -233l255 233h-108l16 39h267l-15 -39h-99l-302 -274l113 -338h103l-15 -39h-289l15 39h108l-98 295l-316 -295h108l-15 -39h-273l15 39h105l362 337l-92 275h-103z" />
    <glyph glyph-name="Y" unicode="Y" horiz-adv-x="765" 
d="M472 345l-117 -306h118l-15 -39h-317l15 39h118l120 314q26 138 2.5 211t-96.5 73q-43 0 -80 -20.5t-75 -66.5q27 70 79.5 110t116.5 40q88 0 121.5 -89t2.5 -219q63 134 164 221t197 87q35 0 54 -14t19 -39q0 -18 -11 -37t-31 -35l-94 70q-75 -22 -156 -107t-135 -193z
" />
    <glyph glyph-name="Z" unicode="Z" horiz-adv-x="652" 
d="M84 39h328l199 165l-111 -204h-557l703 651h-305l-156 -145l81 213l43 -29h475z" />
    <glyph glyph-name="bracketleft" unicode="[" horiz-adv-x="432" 
d="M210 -165h-226l347 905h226l-14 -39h-172l-318 -827h172z" />
    <glyph glyph-name="backslash" unicode="\" horiz-adv-x="411" 
d="M250 770h39l-60 -915h-39z" />
    <glyph glyph-name="bracketright" unicode="]" horiz-adv-x="432" 
d="M271 740h226l-347 -905h-226l14 39h172l318 827h-172z" />
    <glyph glyph-name="asciicircum" unicode="^" horiz-adv-x="382" 
d="M401 346l-76 240l-250 -240l243 326q7 10 16.5 15.5t19.5 5.5q11 0 17.5 -5.5t7.5 -15.5z" />
    <glyph glyph-name="underscore" unicode="_" horiz-adv-x="483" 
d="M-37 -80h331l-26 -49h-332z" />
    <glyph glyph-name="grave" unicode="`" horiz-adv-x="500" 
d="M442 492l-92 263h80z" />
    <glyph glyph-name="a" unicode="a" horiz-adv-x="482" 
d="M274 -4q-24 0 -33 17t1 43l43 107h-13q-55 -79 -109.5 -126t-92.5 -47q-24 0 -38.5 23.5t-14.5 62.5q0 56 23 120t64 121q47 66 102.5 103.5t107.5 37.5q23 0 43.5 -8t38.5 -24l70 48l-166 -431l157 78q-35 -50 -88.5 -87.5t-94.5 -37.5zM280 432q-74 -48 -136.5 -171
t-66.5 -230q37 0 108.5 64t114.5 132l59 151q-14 24 -34.5 38.5t-44.5 15.5z" />
    <glyph glyph-name="b" unicode="b" horiz-adv-x="450" 
d="M12 54l230 621l-87 42l193 63l-185 -492h16q63 89 112.5 129.5t90.5 40.5q28 0 42 -25t14 -73q0 -60 -28.5 -124.5t-79.5 -120.5q-53 -59 -115.5 -92t-120.5 -33q-36 0 -58.5 17.5t-23.5 46.5zM292 157q40 58 59.5 125.5t14.5 132.5q-34 -1 -106 -69t-114 -130l-77 -198
q61 1 120 38t103 101z" />
    <glyph glyph-name="c" unicode="c" horiz-adv-x="329" 
d="M354 418q0 -15 -9.5 -30t-25.5 -26l-96 53q-55 -42 -94.5 -126t-39.5 -156q0 -33 7.5 -60t20.5 -41l157 84q-28 -50 -79.5 -88t-95.5 -38q-37 0 -58.5 33t-21.5 90q0 50 22 109.5t59 111.5q43 58 94 91t101 33q28 0 43.5 -10.5t15.5 -29.5z" />
    <glyph glyph-name="d" unicode="d" horiz-adv-x="484" 
d="M382 431l91 244l-87 42l193 63l-276 -737l157 78q-35 -50 -88.5 -87.5t-94.5 -37.5q-24 0 -33 17t1 43l42 107h-12q-57 -80 -111 -126.5t-92 -46.5q-24 0 -40 24t-16 62q0 56 22.5 120t61.5 121q46 66 100.5 103.5t106.5 37.5q21 0 39.5 -6.5t35.5 -20.5zM274 429
q-74 -45 -134 -167t-62 -231q37 0 111.5 67t117.5 134l52 139q-13 25 -35.5 41t-49.5 17z" />
    <glyph glyph-name="e" unicode="e" horiz-adv-x="345" 
d="M121 32l156 84q-28 -50 -79.5 -88t-95.5 -38q-38 0 -60.5 33.5t-22.5 89.5q0 48 20 105.5t55 109.5q41 61 89 95.5t93 34.5q32 0 51.5 -19.5t19.5 -50.5q0 -70 -71.5 -117t-171.5 -52q-8 -25 -11.5 -46.5t-3.5 -39.5q0 -33 8.5 -60t23.5 -41zM283 385q0 19 -6 31t-19 18
q-37 -13 -82.5 -76t-69.5 -134q83 28 130 71t47 90z" />
    <glyph glyph-name="f" unicode="f" horiz-adv-x="274" 
d="M-175 -199l136 -12l178 603h-83l26 43h70q62 186 123 265.5t139 79.5q27 0 44 -13.5t17 -33.5q0 -15 -7.5 -28t-21.5 -23l-125 38l-94 -285h118l-27 -43h-105l-109 -333q-62 -193 -117 -271t-123 -78q-22 0 -33.5 13.5t-11.5 39.5q0 9 1.5 19t4.5 19z" />
    <glyph glyph-name="g" unicode="g" horiz-adv-x="388" 
d="M66 -290q-90 0 -153 38t-63 92q0 50 59.5 83t140.5 23l-141 -81q0 -46 52.5 -81.5t120.5 -35.5q59 0 106 24.5t56 59.5l-173 139q-14 11 -19.5 21.5t-5.5 24.5q0 17 13 33.5t40 32.5q-28 12 -46 47t-18 79q0 37 17.5 80t47.5 81q33 41 71.5 64.5t75.5 23.5q23 0 43.5 -18
t32.5 -49l133 88l-43 -113h-83q2 -8 3 -17.5t1 -21.5q0 -37 -17.5 -80t-46.5 -81q-33 -42 -71.5 -65t-75.5 -23h-7.5t-4.5 1l-21 -44l152 -111q31 -22 43.5 -39.5t12.5 -38.5q0 -51 -73 -93.5t-159 -42.5zM102 185q0 -30 6 -51.5t18 -31.5q54 18 98.5 96t44.5 154
q0 30 -6.5 51.5t-18.5 31.5q-54 -17 -98 -95t-44 -155z" />
    <glyph glyph-name="h" unicode="h" horiz-adv-x="450" 
d="M382 458q28 0 42 -23.5t14 -72.5q0 -43 -22 -101t-59 -118q-44 -68 -91 -110.5t-80 -42.5q-27 0 -37.5 21.5t0.5 54.5h119q46 82 75.5 185.5t21.5 163.5q-34 -1 -107 -68t-114 -129l-82 -218h-70l250 675l-87 42l193 63l-185 -492h16q64 90 113 130t90 40z" />
    <glyph glyph-name="i" unicode="i" horiz-adv-x="273" 
d="M319 642q0 -22 -15.5 -37.5t-38.5 -15.5t-38.5 15.5t-15.5 37.5t16 37.5t38 15.5t38 -15.5t16 -37.5zM65 -4q-25 0 -35 17t0 43l119 310h-79q23 40 77.5 66.5t103.5 26.5l-160 -416l157 78q-35 -50 -88.5 -87.5t-94.5 -37.5z" />
    <glyph glyph-name="j" unicode="j" horiz-adv-x="242" 
d="M316 642q0 -22 -15.5 -37.5t-38.5 -15.5t-38 15.5t-15 37.5t15.5 37.5t37.5 15.5t38 -15.5t16 -37.5zM249 459l-148 -410q-70 -191 -125.5 -265t-120.5 -74q-22 0 -33.5 13.5t-11.5 39.5q0 7 1.5 16t4.5 22l134 -12l193 577h-79q24 40 80 66.5t105 26.5z" />
    <glyph glyph-name="k" unicode="k" horiz-adv-x="451" 
d="M-8 0l250 675l-87 42l193 63l-183 -489h16q71 89 123.5 128t97.5 39q29 0 44 -14.5t15 -43.5q0 -64 -68.5 -130.5t-171.5 -107.5l203 -312l-108 29l-144 266q-20 -6 -34 -9t-26 -4l-50 -132h-70zM393 425q-48 -13 -116 -67.5t-127 -124.5l-34 -91q116 42 196.5 121.5
t80.5 161.5z" />
    <glyph glyph-name="l" unicode="l" horiz-adv-x="256" 
d="M49 -4q-26 0 -36 17t0 43l231 619l-86 42l193 63l-277 -737l157 78q-35 -50 -88.5 -87.5t-93.5 -37.5z" />
    <glyph glyph-name="m" unicode="m" horiz-adv-x="699" 
d="M208 458l-25 -169h14q62 87 111 128t90 41q27 0 34 -19.5t-7 -63.5l-28 -86h12q63 88 112 128.5t90 40.5q31 0 40.5 -23t-4.5 -60l-127 -332l157 78q-35 -50 -90 -87.5t-95 -37.5q-26 0 -36 17t0 43l137 356q-38 0 -102 -59t-112 -131l-86 -222h-71l158 412
q-37 0 -101 -58.5t-113 -131.5l-85 -222h-72l141 366h-101q18 36 65 64t94 28z" />
    <glyph glyph-name="n" unicode="n" horiz-adv-x="486" 
d="M208 458l-25 -169h14q58 84 109 126.5t93 42.5q31 0 40.5 -23t-4.5 -60l-127 -332l157 78q-34 -50 -89 -87.5t-96 -37.5q-25 0 -35.5 17t-0.5 43l137 356q-37 0 -102 -59t-113 -131l-85 -222h-72l141 366h-101q18 36 65 64t94 28z" />
    <glyph glyph-name="o" unicode="o" horiz-adv-x="400" 
d="M122 -10q-42 0 -70.5 40.5t-28.5 102.5q0 48 20 102t57 103q40 55 88.5 87.5t90.5 32.5t70.5 -40.5t28.5 -102.5q0 -48 -20.5 -102t-56.5 -103q-41 -55 -89 -87.5t-90 -32.5zM276 434q-69 -26 -125 -125t-56 -197q0 -34 8 -60.5t22 -37.5q69 26 125 125t56 197
q0 34 -8 60.5t-22 37.5z" />
    <glyph glyph-name="p" unicode="p" horiz-adv-x="428" 
d="M401 308q0 -115 -87 -209.5t-202 -108.5l-44 14l-89 -248h109l-14 -36h-252l13 36h71l241 655q-26 -2 -51 -6t-45 -8q26 17 53.5 29.5t55.5 20.5l39 106l76 28l-44 -123h4h4q74 0 118 -41t44 -109zM329 303q0 53 -28.5 80.5t-85.5 30.5l-145 -405q105 18 182 104.5
t77 189.5z" />
    <glyph glyph-name="q" unicode="q" horiz-adv-x="452" 
d="M393 422l78 51l-278 -717h71l-14 -36h-255l14 36h111l165 404h-13q-56 -79 -109 -124.5t-90 -45.5q-24 0 -40 24t-16 62q0 56 22.5 120t61.5 121q46 66 100.5 103.5t106.5 37.5q24 0 45.5 -9t39.5 -27zM274 429q-73 -45 -133.5 -167.5t-61.5 -230.5q37 0 110.5 65.5
t116.5 132.5l54 139q-12 26 -35.5 43t-50.5 18z" />
    <glyph glyph-name="r" unicode="r" horiz-adv-x="373" 
d="M174 229l-93 -229h-72l141 366h-100q18 36 64.5 64t93.5 28l-25 -172h13q56 103 89.5 137.5t67.5 34.5q24 0 38.5 -14t14.5 -37q0 -22 -14.5 -39.5t-38.5 -27.5l-48 56q-25 -23 -60 -67.5t-71 -99.5z" />
    <glyph glyph-name="s" unicode="s" horiz-adv-x="280" 
d="M129 346q0 -18 8 -38t35 -58q26 -37 34 -56t8 -36q0 -57 -61 -112.5t-118 -55.5q-31 0 -42.5 24t1.5 63l140 -23q11 10 19 27t8 33q0 20 -8.5 40.5t-34.5 57.5q-26 36 -33.5 55t-7.5 37q0 53 57 103.5t114 50.5q44 0 45 -31t-31 -56l-99 38q-15 -11 -24.5 -28.5
t-9.5 -34.5z" />
    <glyph glyph-name="t" unicode="t" horiz-adv-x="306" 
d="M66 -4q-25 0 -35 16.5t0 43.5l120 336h-75l26 43h65l36 102l83 26l-48 -128h105l-26 -43h-96l-132 -349l174 82q-36 -50 -95.5 -89.5t-101.5 -39.5z" />
    <glyph glyph-name="u" unicode="u" horiz-adv-x="489" 
d="M251 458l-164 -426q37 0 103.5 59t113.5 128l88 229h71l-155 -405l157 78q-36 -51 -89 -88t-94 -37q-24 0 -33 17t1 43l42 107h-12q-55 -77 -112 -125t-97 -48q-31 0 -40 22.5t5 60.5l112 292h-79q24 40 78.5 66.5t103.5 26.5z" />
    <glyph glyph-name="v" unicode="v" horiz-adv-x="410" 
d="M51 -20l70 386h-82q22 33 73.5 62.5t93.5 29.5l-82 -416q64 43 141 146.5t97 177.5h-80q15 39 39.5 65.5t49.5 26.5q20 0 31 -14.5t11 -41.5q0 -46 -36 -114t-97 -137q-56 -64 -116.5 -109t-112.5 -62z" />
    <glyph glyph-name="w" unicode="w" horiz-adv-x="601" 
d="M406 458l-84 -419q62 41 136 145.5t94 181.5h-79q15 39 39 65.5t49 26.5q21 0 32 -15t11 -41q0 -47 -34.5 -114.5t-92.5 -136.5q-55 -64 -114 -109t-111 -62l43 215q-59 -80 -123.5 -137t-120.5 -78l70 386h-82q22 34 72.5 63t91.5 29l-81 -411q37 26 92 88t94 122
l22 109h-83q22 34 71 63t88 29z" />
    <glyph glyph-name="x" unicode="x" horiz-adv-x="466" 
d="M-34 78l99 -17l131 173l-16 132h-92q16 33 60 62t84 30l19 -168h13l59 91q26 39 52 58t54 19q22 0 36 -11t14 -28q0 -15 -9 -30.5t-24 -26.5l-70 36l-120 -153l23 -202l153 85q-37 -56 -85 -94t-85 -38q-18 0 -28.5 10t-12.5 30l-19 149h-13l-68 -102q-33 -49 -60 -71
t-55 -22q-22 0 -34.5 14t-12.5 38q0 8 2 17.5t5 18.5z" />
    <glyph glyph-name="y" unicode="y" horiz-adv-x="407" 
d="M179 458l-18 -461q67 85 115 178t76 191h-80q14 38 38.5 65t49.5 27q21 0 32 -14.5t11 -41.5q0 -63 -57.5 -175.5t-150.5 -231.5q-101 -130 -196 -207.5t-156 -77.5q-25 0 -39 12.5t-14 35.5q0 10 2 20.5t7 20.5l126 -22q44 29 88 66t86 82l11 441h-82q21 34 65 61.5
t86 30.5z" />
    <glyph glyph-name="z" unicode="z" horiz-adv-x="410" 
d="M125 294q-19 0 -30.5 12.5t-11.5 34.5q0 34 34.5 68.5t79.5 48.5l175 -55l55 50l26 -23l-356 -326l282 -128l-113 -36l-208 130l-57 -53l-26 23l358 327l-216 25v-11l58 -58q-8 -13 -21.5 -21t-28.5 -8z" />
    <glyph glyph-name="braceleft" unicode="{" horiz-adv-x="442" 
d="M199 198q0 31 -35.5 53.5t-103.5 34.5q132 25 178 60t51 101q2 11 2.5 24.5t-0.5 41.5q0 28 0.5 42.5t2.5 26.5q6 66 58.5 112t129.5 46q25 0 54 -7t43 -15q-87 -2 -137.5 -27.5t-73.5 -80.5q-5 -12 -9.5 -32t-10.5 -66q-7 -50 -12 -73.5t-11 -39.5q-16 -43 -64.5 -73
t-115.5 -41q43 -8 71 -30.5t28 -52.5q0 -17 -12 -43t-50 -85q-43 -66 -56.5 -96.5t-13.5 -51.5q0 -35 34 -53t101 -19q-22 -9 -52 -15.5t-54 -6.5q-48 0 -75 21.5t-27 59.5q0 27 17.5 61.5t72.5 103.5q44 55 57 79t13 41z" />
    <glyph glyph-name="bar" unicode="|" horiz-adv-x="324" 
d="M350 770h44l-352 -915h-44z" />
    <glyph glyph-name="braceright" unicode="}" horiz-adv-x="442" 
d="M291 374q0 -31 35.5 -53.5t103.5 -34.5q-132 -25 -178 -60t-51 -101q-2 -11 -2.5 -24.5t0.5 -41.5q0 -28 -0.5 -42.5t-2.5 -26.5q-6 -66 -58.5 -112t-129.5 -46q-25 0 -54 7t-43 15q87 2 137.5 27.5t73.5 80.5q5 12 9.5 32t10.5 66q7 50 12 73.5t11 39.5q16 43 64.5 73
t115.5 41q-43 8 -71 30.5t-28 52.5q0 17 12 43t50 85q43 66 56.5 96.5t13.5 51.5q0 35 -34 53t-101 19q22 9 52 15.5t54 6.5q48 0 75 -21.5t27 -59.5q0 -27 -17.5 -61.5t-72.5 -103.5q-44 -55 -57 -79t-13 -41z" />
    <glyph glyph-name="asciitilde" unicode="~" horiz-adv-x="441" 
d="M423 364l-102 -130q-31 8 -77.5 15.5t-65.5 7.5t-40 -11.5t-82 -59.5l101 131q30 -8 76.5 -16t66.5 -8q17 0 36.5 10t86.5 61z" />
    <glyph glyph-name="uni00A0" unicode="&#xa0;" horiz-adv-x="178" 
 />
    <glyph glyph-name="exclamdown" unicode="&#xa1;" horiz-adv-x="307" 
d="M81 -9q-25 0 -37.5 18t-4.5 44l233 460l-126 -472q-11 -25 -27.5 -37.5t-37.5 -12.5zM372 640q0 -25 -17.5 -43t-42.5 -18t-42.5 17.5t-17.5 43.5q0 25 17.5 42t42.5 17t42.5 -17.5t17.5 -41.5z" />
    <glyph glyph-name="cent" unicode="&#xa2;" horiz-adv-x="370" 
d="M303 456l62 133h34l-61 -131q29 -1 46 -12.5t17 -29.5q0 -14 -10.5 -29t-29.5 -27l-55 30l-163 -349l155 71q-26 -45 -79.5 -81.5t-99.5 -40.5l-54 -116h-34l56 121q-30 11 -48.5 43.5t-18.5 75.5q0 54 22.5 111.5t62.5 107.5q41 52 92.5 84t105.5 39zM88 134
q0 -29 5.5 -52.5t16.5 -38.5l169 362l-30 16q-68 -43 -114.5 -125t-46.5 -162z" />
    <glyph glyph-name="sterling" unicode="&#xa3;" horiz-adv-x="626" 
d="M44 -7q-27 0 -43.5 19.5t-12.5 49.5l136 26l86 165h-102l23 36h97l106 203q55 110 116 159t139 49q38 0 62.5 -16t24.5 -42q0 -20 -10.5 -37t-29.5 -27l-108 86l-241 -375h174l-24 -36h-173l-108 -168l334 -162l21 21l-66 72q6 17 20.5 27t32.5 10q24 0 40.5 -17.5
t16.5 -44.5q0 -42 -42 -78.5t-95 -46.5l-277 196q-24 -37 -47 -53t-50 -16z" />
    <glyph glyph-name="yen" unicode="&#xa5;" horiz-adv-x="680" 
d="M304 230h-190l25 36h179l33 86h-190l25 36h154l-84 263h-82l15 39h284l-15 -39h-125l78 -263l285 263h-126l15 39h264l-15 -39h-82l-289 -263h170l-25 -36h-185l-33 -86h196l-25 -36h-185l-73 -191h112l-16 -39h-296l15 39h112z" />
    <glyph glyph-name="section" unicode="&#xa7;" horiz-adv-x="537" 
d="M68 -169q39 0 77 13.5t73 40.5q-31 235 -42 329t-11 131q0 64 24 128t67 115q46 54 105.5 83t125.5 29q47 0 75.5 -18.5t28.5 -48.5q0 -36 -30 -57.5t-79 -21.5l39 104q-8 4 -17.5 6.5t-20.5 2.5q-40 0 -77.5 -14t-71.5 -40q30 -235 41 -329t11 -131q0 -64 -24 -128
t-68 -115q-46 -54 -105 -83t-125 -29q-48 0 -76.5 18.5t-28.5 48.5q0 36 30.5 57.5t79.5 21.5l-40 -104q8 -4 18 -6.5t21 -2.5zM299 581q-43 -45 -68 -104t-25 -117q0 -54 11 -159.5t34 -284.5q43 46 68 105t25 117q0 54 -11 159.5t-34 283.5z" />
    <glyph glyph-name="dieresis" unicode="&#xa8;" horiz-adv-x="500" 
d="M531 627q0 -21 -15 -35.5t-37 -14.5t-36.5 14.5t-14.5 35.5t14.5 36t36.5 15t37 -15t15 -36zM381 627q0 -21 -14.5 -35.5t-36.5 -14.5t-36.5 14.5t-14.5 35.5t14.5 36t36.5 15q21 0 36 -15t15 -36z" />
    <glyph glyph-name="copyright" unicode="&#xa9;" horiz-adv-x="843" 
d="M416 -10q-130 0 -217 86.5t-87 215.5q0 77 32.5 151t92.5 133q59 59 133.5 91.5t150.5 32.5q129 0 215.5 -86.5t87.5 -215.5q0 -77 -33 -150.5t-92 -132.5q-59 -60 -133 -92.5t-150 -32.5zM262 551q-52 -54 -81 -121t-29 -135q0 -120 75 -195.5t193 -75.5q68 0 134 30
t119 84t82 121.5t29 135.5q0 119 -75 194.5t-193 75.5q-68 0 -134.5 -30t-119.5 -84zM448 191q37 0 69 15t70 51q-24 -53 -69.5 -83t-100.5 -30q-61 0 -99 41t-38 105q0 101 76.5 181.5t172.5 80.5q28 0 51.5 -9t39.5 -26l55 36l-49 -134q-13 56 -37.5 81t-65.5 25
q-68 0 -123 -64.5t-55 -146.5q0 -55 28.5 -89t74.5 -34z" />
    <glyph glyph-name="ordfeminine" unicode="&#xaa;" horiz-adv-x="380" 
d="M328 361q-19 0 -26 13t1 34l28 72h-9q-42 -58 -80 -90.5t-65 -32.5q-18 0 -29 17.5t-11 47.5q0 41 17 87.5t47 87.5q35 47 75.5 73.5t79.5 26.5q17 0 32.5 -5.5t28.5 -16.5l52 32l-118 -306l111 49q-25 -36 -64.5 -62.5t-69.5 -26.5zM330 676q-51 -34 -95.5 -122.5
t-47.5 -163.5q26 1 75 45t80 92l44 111q-10 16 -25 26.5t-31 11.5zM87 247l23 38h233l-23 -38h-233z" />
    <glyph glyph-name="guillemotleft" unicode="&#xab;" horiz-adv-x="477" 
d="M349 27l-125 199l279 198l-189 -210zM177 27l-125 199l279 198l-189 -210z" />
    <glyph glyph-name="registered" unicode="&#xae;" horiz-adv-x="550" 
d="M347 293q-75 0 -125.5 49t-50.5 121q0 100 70.5 168.5t171.5 68.5q75 0 125.5 -49t50.5 -121q0 -100 -70.5 -168.5t-171.5 -68.5zM408 672q-88 0 -147 -59t-59 -147q0 -64 41.5 -104.5t108.5 -40.5q88 0 147 59t59 147q0 64 -41.5 104.5t-108.5 40.5zM327 416h31l-7 -19
h-103l8 19h31l66 171h-31l6 19h86q35 0 56 -13t21 -37q0 -23 -21 -39.5t-55 -21.5l48 -98h-43l-44 95h-21zM403 587h-10l-31 -77h22q29 0 47.5 11.5t18.5 31.5q0 17 -12 25.5t-35 8.5z" />
    <glyph glyph-name="macron" unicode="&#xaf;" horiz-adv-x="500" 
d="M258 590l45 44h236l-44 -44h-237z" />
    <glyph glyph-name="degree" unicode="&#xb0;" horiz-adv-x="307" 
d="M418 591q0 -63 -49 -114t-115 -51q-45 0 -74.5 31t-29.5 78q0 63 49.5 114t114.5 51q45 0 74.5 -31t29.5 -78zM197 538q0 -31 17 -50t47 -19q45 0 78 36t33 83q0 31 -17.5 50t-47.5 19q-45 0 -77.5 -35.5t-32.5 -83.5z" />
    <glyph glyph-name="twosuperior" unicode="&#xb2;" horiz-adv-x="323" 
d="M366 362l-65 -59h-252q197 138 249 191t52 96q0 23 -15 36t-41 13q-32 0 -62 -15t-69 -52q33 60 78.5 92t96.5 32q37 0 59 -20t22 -52q0 -53 -52.5 -110.5t-188.5 -142.5v-9h188z" />
    <glyph glyph-name="threesuperior" unicode="&#xb3;" horiz-adv-x="303" 
d="M120 385l46 -65q55 5 89 33t34 70q0 35 -29.5 53t-85.5 18q83 35 114 61t31 57q0 16 -11 25t-31 9q-24 0 -52 -13t-53 -35q24 43 66 70.5t86 27.5q31 0 49.5 -15.5t18.5 -39.5q0 -36 -32 -66t-87 -47v-8q39 -7 60 -26t21 -48q0 -60 -63 -104.5t-145 -44.5q-29 0 -46.5 11
t-17.5 29q0 16 11 30t27 18z" />
    <glyph glyph-name="acute" unicode="&#xb4;" horiz-adv-x="500" 
d="M439 755h91l-260 -263z" />
    <glyph glyph-name="paragraph" unicode="&#xb6;" horiz-adv-x="633" 
d="M179 440q0 102 99 176t229 74h255l-16 -40h-137l-260 -677q-33 -86 -89.5 -132.5t-130.5 -46.5q-59 0 -99.5 36t-40.5 90q0 64 47.5 112.5t109.5 48.5q35 0 54 -15t19 -42q0 -32 -27.5 -50t-72.5 -18l33 87q-50 1 -86 -34.5t-36 -88.5q0 -38 28.5 -63t71.5 -25
q61 0 105 36t72 107l259 675h-74l-143 -370q-70 0 -120 47t-50 113z" />
    <glyph glyph-name="periodcentered" unicode="&#xb7;" horiz-adv-x="277" 
d="M153 322q25 0 42.5 -17.5t17.5 -43.5q0 -25 -17.5 -42t-42.5 -17t-42.5 17.5t-17.5 41.5q0 25 17.5 43t42.5 18z" />
    <glyph glyph-name="cedilla" unicode="&#xb8;" horiz-adv-x="500" 
d="M201 -132q0 -50 -57 -92.5t-112 -42.5q-22 0 -35 10t-13 27q0 18 16 30t38 11l19 -57q35 6 63 32t28 56q0 20 -15.5 33.5t-49.5 22.5l86 120l-22 -84q26 -12 40 -29t14 -37z" />
    <glyph glyph-name="onesuperior" unicode="&#xb9;" horiz-adv-x="304" 
d="M171 333l106 277h-104l204 88l-140 -365h75l-11 -30h-217l11 30h76z" />
    <glyph glyph-name="ordmasculine" unicode="&#xba;" horiz-adv-x="321" 
d="M220 357q-32 0 -54.5 30.5t-22.5 75.5q0 80 62.5 157t127.5 77q32 0 54.5 -30.5t22.5 -75.5q0 -80 -62.5 -157t-127.5 -77zM331 678q-50 -19 -90 -91.5t-40 -143.5q0 -22 6 -41t15 -27q50 19 89.5 91.5t39.5 144.5q0 24 -5.5 41.5t-14.5 25.5zM54 247l23 38h227l-23 -38
h-227z" />
    <glyph glyph-name="guillemotright" unicode="&#xbb;" horiz-adv-x="477" 
d="M129 424l125 -199l-279 -198l189 210zM301 424l125 -199l-279 -198l189 210z" />
    <glyph glyph-name="onequarter" unicode="&#xbc;" horiz-adv-x="784" 
d="M780 690h74l-684 -643l-31 -47h-75l684 643zM171 333l106 277h-104l204 88l-140 -365h75l-11 -30h-217l11 30h76zM645 30l-11 -30h-173l11 30h56l33 85h-187l354 278l-93 -245h109l-41 -33h-81l-33 -85h56zM458 148h115l51 131z" />
    <glyph glyph-name="onehalf" unicode="&#xbd;" horiz-adv-x="818" 
d="M171 333l106 277h-104l204 88l-140 -365h75l-11 -30h-217l11 30h76zM780 690h74l-684 -643l-31 -47h-75l684 643zM744 60l-65 -59h-252q197 138 249 191t52 96q0 23 -15 36t-41 13q-32 0 -62 -15t-69 -52q33 60 78.5 92t96.5 32q37 0 59 -20t22 -52q0 -53 -52.5 -110.5
t-188.5 -142.5v-9h188z" />
    <glyph glyph-name="threequarters" unicode="&#xbe;" horiz-adv-x="803" 
d="M664 30l-11 -30h-173l11 30h56l33 85h-187l354 278l-93 -245h109l-41 -33h-81l-33 -85h56zM477 148h115l51 131zM799 690h74l-684 -643l-31 -47h-75l684 643zM145 385l46 -65q55 5 89 33t34 70q0 35 -29.5 53t-85.5 18q83 35 114 61t31 57q0 16 -11 25t-31 9
q-24 0 -52 -13t-53 -35q24 43 66 70.5t86 27.5q31 0 49.5 -15.5t18.5 -39.5q0 -36 -32 -66t-87 -47v-8q39 -7 60 -26t21 -48q0 -60 -63 -104.5t-145 -44.5q-29 0 -46.5 11t-17.5 29q0 16 11 30t27 18z" />
    <glyph glyph-name="questiondown" unicode="&#xbf;" horiz-adv-x="467" 
d="M104 134q0 -46 36.5 -79.5t86.5 -35.5l87 104q18 -1 31 -15.5t13 -33.5q0 -38 -34.5 -61t-93.5 -23q-74 0 -127.5 49t-53.5 119q0 96 84.5 165.5t236.5 100.5l50 -62q-144 -23 -230 -84t-86 -144zM408 578q-25 0 -42.5 17.5t-17.5 43.5q0 25 17.5 42t42.5 17t42.5 -17.5
t17.5 -41.5q0 -25 -17.5 -43t-42.5 -18z" />
    <glyph glyph-name="Agrave" unicode="&#xc0;" horiz-adv-x="747" 
d="M371 39h127l17 230h-232l-194 -230h125l-16 -39h-265l15 39h85l587 689l-47 -689h85l-16 -39h-286zM518 309l19 262l-221 -262h202zM695 739l-221 122l99 35z" />
    <glyph glyph-name="Aacute" unicode="&#xc1;" horiz-adv-x="747" 
d="M371 39h127l17 230h-232l-194 -230h125l-16 -39h-265l15 39h85l587 689l-47 -689h85l-16 -39h-286zM518 309l19 262l-221 -262h202zM755 896l76 -47l-309 -110z" />
    <glyph glyph-name="Acircumflex" unicode="&#xc2;" horiz-adv-x="747" 
d="M371 39h127l17 230h-232l-194 -230h125l-16 -39h-265l15 39h85l587 689l-47 -689h85l-16 -39h-286zM518 309l19 262l-221 -262h202zM436 733l199 168h78l69 -168l-121 113z" />
    <glyph glyph-name="Atilde" unicode="&#xc3;" horiz-adv-x="747" 
d="M371 39h127l17 230h-232l-194 -230h125l-16 -39h-265l15 39h85l587 689l-47 -689h85l-16 -39h-286zM518 309l19 262l-221 -262h202zM851 933l-123 -161l-133 53q-26 -8 -62 -32t-81 -62l123 161l133 -54q28 10 64.5 34.5t78.5 60.5z" />
    <glyph glyph-name="Adieresis" unicode="&#xc4;" horiz-adv-x="747" 
d="M371 39h127l17 230h-232l-194 -230h125l-16 -39h-265l15 39h85l587 689l-47 -689h85l-16 -39h-286zM518 309l19 262l-221 -262h202zM785 809q0 -21 -15 -35.5t-37 -14.5t-36.5 14.5t-14.5 35.5q0 22 14.5 36.5t36.5 14.5t37 -15t15 -36zM592 809q0 -21 -15 -35.5
t-37 -14.5t-36.5 14.5t-14.5 35.5t14.5 36t36.5 15t37 -15t15 -36z" />
    <glyph glyph-name="Aring" unicode="&#xc5;" horiz-adv-x="747" 
d="M371 39h127l17 230h-232l-194 -230h125l-16 -39h-265l15 39h85l564 662q-26 10 -41.5 32.5t-15.5 51.5q0 48 34.5 81t84.5 33q38 0 63 -26t25 -64q0 -48 -34.5 -81t-83.5 -33h-7t-4 1l-45 -657h85l-16 -39h-286zM711 809q0 24 -15.5 39t-40.5 15q-34 0 -56 -22t-22 -56
q0 -24 15 -39t40 -15q34 0 56.5 22t22.5 56zM518 309l19 262l-221 -262h202z" />
    <glyph glyph-name="AE" unicode="&#xc6;" horiz-adv-x="1040" 
d="M663 373h158l119 105l-96 -250l-29 106h-167l-113 -295h267l199 165l-111 -204h-555l15 39h105l89 233h-233l-235 -233h128l-15 -39h-272l15 39h85l619 612h-137l15 39h558l65 29l-79 -206l-32 138h-256zM687 645l-337 -334h209z" />
    <glyph glyph-name="Ccedilla" unicode="&#xc7;" horiz-adv-x="638" 
d="M318 -132q0 -50 -57 -92.5t-112 -42.5q-22 0 -35 10t-13 27q0 18 16 30t38 11l19 -57q35 6 63 32t28 56q0 20 -15.5 33.5t-49.5 22.5l68 95q-87 14 -140 82t-53 167q0 82 32.5 163t91.5 148q63 69 141 108t157 39q49 0 89.5 -17t70.5 -50l87 62l-82 -212
q-18 92 -60 133.5t-113 41.5q-63 0 -125.5 -33.5t-111.5 -93.5q-45 -56 -70 -122.5t-25 -133.5q0 -103 49.5 -162.5t134.5 -59.5q69 0 129 30.5t120 97.5q-38 -89 -114.5 -140t-168.5 -51q-5 0 -14.5 0.5t-13.5 0.5l-15 -57q26 -12 40 -29t14 -37z" />
    <glyph glyph-name="Egrave" unicode="&#xc8;" horiz-adv-x="656" 
d="M278 373h158l119 105l-96 -250l-29 106h-167l-113 -295h267l199 165l-112 -204h-554l15 39h105l234 612h-104l15 39h472l65 29l-79 -206l-32 138h-256zM569 739l-221 122l99 35z" />
    <glyph glyph-name="Eacute" unicode="&#xc9;" horiz-adv-x="656" 
d="M278 373h158l119 105l-96 -250l-29 106h-167l-113 -295h267l199 165l-112 -204h-554l15 39h105l234 612h-104l15 39h472l65 29l-79 -206l-32 138h-256zM625 896l76 -47l-309 -110z" />
    <glyph glyph-name="Ecircumflex" unicode="&#xca;" horiz-adv-x="656" 
d="M278 373h158l119 105l-96 -250l-29 106h-167l-113 -295h267l199 165l-112 -204h-554l15 39h105l234 612h-104l15 39h472l65 29l-79 -206l-32 138h-256zM322 733l199 168h78l69 -168l-121 113z" />
    <glyph glyph-name="Edieresis" unicode="&#xcb;" horiz-adv-x="656" 
d="M278 373h158l119 105l-96 -250l-29 106h-167l-113 -295h267l199 165l-112 -204h-554l15 39h105l234 612h-104l15 39h472l65 29l-79 -206l-32 138h-256zM682 809q0 -21 -15 -35.5t-37 -14.5t-36.5 14.5t-14.5 35.5q0 22 14.5 36.5t36.5 14.5t37 -15t15 -36zM489 809
q0 -21 -15 -35.5t-37 -14.5t-36.5 14.5t-14.5 35.5t14.5 36t36.5 15t37 -15t15 -36z" />
    <glyph glyph-name="Igrave" unicode="&#xcc;" horiz-adv-x="362" 
d="M200 651l15 39h290l-15 -39h-105l-234 -612h104l-15 -39h-290l15 39h105l234 612h-104zM469 739l-221 122l99 35z" />
    <glyph glyph-name="Iacute" unicode="&#xcd;" horiz-adv-x="362" 
d="M200 651l15 39h290l-15 -39h-105l-234 -612h104l-15 -39h-290l15 39h105l234 612h-104zM529 896l76 -47l-309 -110z" />
    <glyph glyph-name="Icircumflex" unicode="&#xce;" horiz-adv-x="362" 
d="M200 651l15 39h290l-15 -39h-105l-234 -612h104l-15 -39h-290l15 39h105l234 612h-104zM200 733l199 168h78l69 -168l-121 113z" />
    <glyph glyph-name="Idieresis" unicode="&#xcf;" horiz-adv-x="362" 
d="M200 651l15 39h290l-15 -39h-105l-234 -612h104l-15 -39h-290l15 39h105l234 612h-104zM554 809q0 -21 -15 -35.5t-37 -14.5t-36.5 14.5t-14.5 35.5q0 22 14.5 36.5t36.5 14.5t37 -15t15 -36zM361 809q0 -21 -15 -35.5t-37 -14.5t-36.5 14.5t-14.5 35.5t14.5 36t36.5 15
t37 -15t15 -36z" />
    <glyph glyph-name="Eth" unicode="&#xd0;" horiz-adv-x="746" 
d="M183 334h-102l19 39h98l106 278h-104l15 39h217q151 0 241.5 -69.5t90.5 -186.5q0 -97 -49 -181.5t-140 -145.5q-76 -52 -172.5 -79.5t-200.5 -27.5h-252l15 39h105zM676 432q0 110 -66 164.5t-201 54.5h-24l-106 -278h174l-19 -39h-170l-113 -295h53q91 0 173.5 26
t147.5 74q73 55 112 131t39 162z" />
    <glyph glyph-name="Ntilde" unicode="&#xd1;" horiz-adv-x="757" 
d="M631 0h-78l-267 511l-181 -472h105l-15 -39h-257l16 39h104l201 523l-67 128h85l276 -538l191 499h-104l15 39h256l-15 -39h-105l-211 -551zM789 933l-123 -161l-133 53q-26 -8 -62 -32t-81 -62l123 161l133 -54q28 10 64.5 34.5t78.5 60.5z" />
    <glyph glyph-name="Ograve" unicode="&#xd2;" horiz-adv-x="729" 
d="M505 700q105 0 173.5 -72t68.5 -183q0 -80 -34 -162t-95 -149q-63 -69 -141 -106.5t-160 -37.5q-106 0 -174 71.5t-68 183.5q0 80 34 162t95 149q63 69 141 106.5t160 37.5zM252 506q-44 -64 -69.5 -140t-25.5 -145q0 -89 44 -139.5t118 -50.5q70 0 134.5 40t115.5 113
q44 64 69.5 140t25.5 145q0 89 -43.5 139.5t-118.5 50.5q-69 0 -134 -40t-116 -113zM592 739l-221 122l99 35z" />
    <glyph glyph-name="Oacute" unicode="&#xd3;" horiz-adv-x="729" 
d="M505 700q105 0 173.5 -72t68.5 -183q0 -80 -34 -162t-95 -149q-63 -69 -141 -106.5t-160 -37.5q-106 0 -174 71.5t-68 183.5q0 80 34 162t95 149q63 69 141 106.5t160 37.5zM252 506q-44 -64 -69.5 -140t-25.5 -145q0 -89 44 -139.5t118 -50.5q70 0 134.5 40t115.5 113
q44 64 69.5 140t25.5 145q0 89 -43.5 139.5t-118.5 50.5q-69 0 -134 -40t-116 -113zM698 896l76 -47l-309 -110z" />
    <glyph glyph-name="Ocircumflex" unicode="&#xd4;" horiz-adv-x="729" 
d="M505 700q105 0 173.5 -72t68.5 -183q0 -80 -34 -162t-95 -149q-63 -69 -141 -106.5t-160 -37.5q-106 0 -174 71.5t-68 183.5q0 80 34 162t95 149q63 69 141 106.5t160 37.5zM252 506q-44 -64 -69.5 -140t-25.5 -145q0 -89 44 -139.5t118 -50.5q70 0 134.5 40t115.5 113
q44 64 69.5 140t25.5 145q0 89 -43.5 139.5t-118.5 50.5q-69 0 -134 -40t-116 -113zM354 733l199 168h78l69 -168l-121 113z" />
    <glyph glyph-name="Otilde" unicode="&#xd5;" horiz-adv-x="729" 
d="M505 700q105 0 173.5 -72t68.5 -183q0 -80 -34 -162t-95 -149q-63 -69 -141 -106.5t-160 -37.5q-106 0 -174 71.5t-68 183.5q0 80 34 162t95 149q63 69 141 106.5t160 37.5zM252 506q-44 -64 -69.5 -140t-25.5 -145q0 -89 44 -139.5t118 -50.5q70 0 134.5 40t115.5 113
q44 64 69.5 140t25.5 145q0 89 -43.5 139.5t-118.5 50.5q-69 0 -134 -40t-116 -113zM771 933l-123 -161l-133 53q-26 -8 -62 -32t-81 -62l123 161l133 -54q28 10 64.5 34.5t78.5 60.5z" />
    <glyph glyph-name="Odieresis" unicode="&#xd6;" horiz-adv-x="729" 
d="M505 700q105 0 173.5 -72t68.5 -183q0 -80 -34 -162t-95 -149q-63 -69 -141 -106.5t-160 -37.5q-106 0 -174 71.5t-68 183.5q0 80 34 162t95 149q63 69 141 106.5t160 37.5zM252 506q-44 -64 -69.5 -140t-25.5 -145q0 -89 44 -139.5t118 -50.5q70 0 134.5 40t115.5 113
q44 64 69.5 140t25.5 145q0 89 -43.5 139.5t-118.5 50.5q-69 0 -134 -40t-116 -113zM702 809q0 -21 -15 -35.5t-37 -14.5t-36.5 14.5t-14.5 35.5q0 22 14.5 36.5t36.5 14.5t37 -15t15 -36zM509 809q0 -21 -15 -35.5t-37 -14.5t-36.5 14.5t-14.5 35.5t14.5 36t36.5 15t37 -15
t15 -36z" />
    <glyph glyph-name="multiply" unicode="&#xd7;" 
d="M74 108l-23 36l258 188l-115 183l37 26l115 -182l255 187l23 -37l-255 -186l115 -183l-37 -27l-115 183z" />
    <glyph glyph-name="Oslash" unicode="&#xd8;" horiz-adv-x="729" 
d="M747 445q0 -80 -34 -162t-95 -149q-63 -69 -141 -106.5t-160 -37.5q-41 0 -78 12t-67 34l-80 -92h-50l102 117q-33 34 -51 81.5t-18 102.5q0 80 34 162t95 149q63 69 141 106.5t160 37.5q42 0 80 -12.5t70 -37.5l62 72h51l-85 -98q31 -35 47.5 -81t16.5 -98zM252 506
q-44 -64 -69.5 -140t-25.5 -145q0 -33 6.5 -62t19.5 -52l437 503q-22 24 -52 36.5t-66 12.5q-69 0 -134 -40t-116 -113zM569 184q44 64 69.5 140t25.5 145q0 31 -5.5 58t-16.5 50l-436 -501q21 -22 50 -33.5t63 -11.5q70 0 134.5 40t115.5 113z" />
    <glyph glyph-name="Ugrave" unicode="&#xd9;" horiz-adv-x="752" 
d="M336 45q95 0 162 55t110 167l147 384h-104l15 39h256l-15 -39h-105l-151 -396q-51 -134 -136.5 -199.5t-207.5 -65.5q-90 0 -145 46.5t-55 124.5q0 22 6 48.5t19 60.5l146 381h-105l15 39h290l-15 -39h-105l-146 -383q-11 -29 -17 -54.5t-6 -46.5q0 -59 38 -90.5
t109 -31.5zM641 739l-221 122l99 35z" />
    <glyph glyph-name="Uacute" unicode="&#xda;" horiz-adv-x="752" 
d="M336 45q95 0 162 55t110 167l147 384h-104l15 39h256l-15 -39h-105l-151 -396q-51 -134 -136.5 -199.5t-207.5 -65.5q-90 0 -145 46.5t-55 124.5q0 22 6 48.5t19 60.5l146 381h-105l15 39h290l-15 -39h-105l-146 -383q-11 -29 -17 -54.5t-6 -46.5q0 -59 38 -90.5
t109 -31.5zM692 896l76 -47l-309 -110z" />
    <glyph glyph-name="Ucircumflex" unicode="&#xdb;" horiz-adv-x="752" 
d="M336 45q95 0 162 55t110 167l147 384h-104l15 39h256l-15 -39h-105l-151 -396q-51 -134 -136.5 -199.5t-207.5 -65.5q-90 0 -145 46.5t-55 124.5q0 22 6 48.5t19 60.5l146 381h-105l15 39h290l-15 -39h-105l-146 -383q-11 -29 -17 -54.5t-6 -46.5q0 -59 38 -90.5
t109 -31.5zM399 733l199 168h78l69 -168l-121 113z" />
    <glyph glyph-name="Udieresis" unicode="&#xdc;" horiz-adv-x="752" 
d="M336 45q95 0 162 55t110 167l147 384h-104l15 39h256l-15 -39h-105l-151 -396q-51 -134 -136.5 -199.5t-207.5 -65.5q-90 0 -145 46.5t-55 124.5q0 22 6 48.5t19 60.5l146 381h-105l15 39h290l-15 -39h-105l-146 -383q-11 -29 -17 -54.5t-6 -46.5q0 -59 38 -90.5
t109 -31.5zM757 809q0 -21 -15 -35.5t-37 -14.5t-36.5 14.5t-14.5 35.5q0 22 14.5 36.5t36.5 14.5t37 -15t15 -36zM564 809q0 -21 -15 -35.5t-37 -14.5t-36.5 14.5t-14.5 35.5t14.5 36t36.5 15t37 -15t15 -36z" />
    <glyph glyph-name="Yacute" unicode="&#xdd;" horiz-adv-x="765" 
d="M472 345l-117 -306h118l-15 -39h-317l15 39h118l120 314q26 138 2.5 211t-96.5 73q-43 0 -80 -20.5t-75 -66.5q27 70 79.5 110t116.5 40q88 0 121.5 -89t2.5 -219q63 134 164 221t197 87q35 0 54 -14t19 -39q0 -18 -11 -37t-31 -35l-94 70q-75 -22 -156 -107t-135 -193z
M714 896l76 -47l-309 -110z" />
    <glyph glyph-name="Thorn" unicode="&#xde;" horiz-adv-x="617" 
d="M490 651h-105l-40 -105h70q105 0 164 -40t59 -111q0 -51 -26 -95.5t-75 -78.5q-42 -28 -94 -44.5t-103 -16.5l-64 33q125 0 202 56t77 144q0 58 -39 86t-120 28h-67l-179 -468h131l-15 -39h-317l16 39h104l235 612h-105l15 39h291z" />
    <glyph glyph-name="germandbls" unicode="&#xdf;" horiz-adv-x="488" 
d="M139 392h-83l26 43h70q63 176 139.5 260.5t172.5 84.5q51 0 86.5 -27t43.5 -71q-113 -72 -176.5 -150.5t-63.5 -143.5q0 -24 9 -51.5t38 -78.5q24 -43 31.5 -63t7.5 -37q0 -57 -62 -112.5t-119 -55.5q-32 0 -43.5 24t2.5 63l140 -23q10 11 17 28t7 32q0 18 -7.5 40
t-32.5 67q-28 48 -36.5 73.5t-8.5 47.5q0 78 61.5 163t173.5 162q-13 36 -51 57t-90 19q-40 -25 -76 -87t-69 -164l-142 -433q-62 -193 -117 -271t-123 -78q-22 0 -33.5 13.5t-11.5 39.5q0 9 1.5 19t4.5 19l136 -12z" />
    <glyph glyph-name="agrave" unicode="&#xe0;" horiz-adv-x="482" 
d="M274 -4q-24 0 -33 17t1 43l43 107h-13q-55 -79 -109.5 -126t-92.5 -47q-24 0 -38.5 23.5t-14.5 62.5q0 56 23 120t64 121q47 66 102.5 103.5t107.5 37.5q23 0 43.5 -8t38.5 -24l70 48l-166 -431l157 78q-35 -50 -88.5 -87.5t-94.5 -37.5zM280 432q-74 -48 -136.5 -171
t-66.5 -230q37 0 108.5 64t114.5 132l59 151q-14 24 -34.5 38.5t-44.5 15.5zM366 492l-92 263h80z" />
    <glyph glyph-name="aacute" unicode="&#xe1;" horiz-adv-x="482" 
d="M274 -4q-24 0 -33 17t1 43l43 107h-13q-55 -79 -109.5 -126t-92.5 -47q-24 0 -38.5 23.5t-14.5 62.5q0 56 23 120t64 121q47 66 102.5 103.5t107.5 37.5q23 0 43.5 -8t38.5 -24l70 48l-166 -431l157 78q-35 -50 -88.5 -87.5t-94.5 -37.5zM280 432q-74 -48 -136.5 -171
t-66.5 -230q37 0 108.5 64t114.5 132l59 151q-14 24 -34.5 38.5t-44.5 15.5zM479 755h91l-260 -263z" />
    <glyph glyph-name="acircumflex" unicode="&#xe2;" horiz-adv-x="482" 
d="M274 -4q-24 0 -33 17t1 43l43 107h-13q-55 -79 -109.5 -126t-92.5 -47q-24 0 -38.5 23.5t-14.5 62.5q0 56 23 120t64 121q47 66 102.5 103.5t107.5 37.5q23 0 43.5 -8t38.5 -24l70 48l-166 -431l157 78q-35 -50 -88.5 -87.5t-94.5 -37.5zM280 432q-74 -48 -136.5 -171
t-66.5 -230q37 0 108.5 64t114.5 132l59 151q-14 24 -34.5 38.5t-44.5 15.5zM433 494l-28 190l-183 -190l177 261h58z" />
    <glyph glyph-name="atilde" unicode="&#xe3;" horiz-adv-x="482" 
d="M274 -4q-24 0 -33 17t1 43l43 107h-13q-55 -79 -109.5 -126t-92.5 -47q-24 0 -38.5 23.5t-14.5 62.5q0 56 23 120t64 121q47 66 102.5 103.5t107.5 37.5q23 0 43.5 -8t38.5 -24l70 48l-166 -431l157 78q-35 -50 -88.5 -87.5t-94.5 -37.5zM280 432q-74 -48 -136.5 -171
t-66.5 -230q37 0 108.5 64t114.5 132l59 151q-14 24 -34.5 38.5t-44.5 15.5zM552 735l-118 -160l-99 52q-23 -7 -58 -31.5t-82 -65.5l118 160l99 -52q24 7 58.5 31.5t81.5 65.5z" />
    <glyph glyph-name="adieresis" unicode="&#xe4;" horiz-adv-x="482" 
d="M274 -4q-24 0 -33 17t1 43l43 107h-13q-55 -79 -109.5 -126t-92.5 -47q-24 0 -38.5 23.5t-14.5 62.5q0 56 23 120t64 121q47 66 102.5 103.5t107.5 37.5q23 0 43.5 -8t38.5 -24l70 48l-166 -431l157 78q-35 -50 -88.5 -87.5t-94.5 -37.5zM280 432q-74 -48 -136.5 -171
t-66.5 -230q37 0 108.5 64t114.5 132l59 151q-14 24 -34.5 38.5t-44.5 15.5zM511 627q0 -21 -15 -35.5t-37 -14.5t-36.5 14.5t-14.5 35.5t14.5 36t36.5 15t37 -15t15 -36zM361 627q0 -21 -14.5 -35.5t-36.5 -14.5t-36.5 14.5t-14.5 35.5t14.5 36t36.5 15q21 0 36 -15t15 -36
z" />
    <glyph glyph-name="aring" unicode="&#xe5;" horiz-adv-x="482" 
d="M274 -4q-24 0 -33 17t1 43l43 107h-13q-55 -79 -109.5 -126t-92.5 -47q-24 0 -38.5 23.5t-14.5 62.5q0 56 23 120t64 121q47 66 102.5 103.5t107.5 37.5q23 0 43.5 -8t38.5 -24l70 48l-166 -431l157 78q-35 -50 -88.5 -87.5t-94.5 -37.5zM280 432q-74 -48 -136.5 -171
t-66.5 -230q37 0 108.5 64t114.5 132l59 151q-14 24 -34.5 38.5t-44.5 15.5zM286 618q0 45 32 76t79 31q35 0 58.5 -24t23.5 -59q0 -45 -32 -76t-78 -31q-35 0 -59 24t-24 59zM447 641q0 23 -15 37.5t-38 14.5q-32 0 -53.5 -21t-21.5 -53q0 -23 14.5 -38t38.5 -15
q32 0 53.5 21.5t21.5 53.5z" />
    <glyph glyph-name="ae" unicode="&#xe6;" horiz-adv-x="573" 
d="M331 -10q-38 0 -60.5 33.5t-22.5 89.5v11t1 7q-52 -67 -99 -104t-80 -37q-24 0 -38.5 23.5t-14.5 62.5q0 56 23 120t64 121q46 66 101.5 103.5t107.5 37.5q27 0 50 -10t42 -30q25 20 50.5 30t49.5 10q32 0 51.5 -19.5t19.5 -50.5q0 -70 -71.5 -117t-171.5 -52
q-8 -25 -11.5 -46.5t-3.5 -39.5q0 -33 8.5 -60t23.5 -41l156 84q-28 -50 -79.5 -88t-95.5 -38zM512 385q0 19 -6 31t-19 18q-37 -13 -82.5 -76t-69.5 -134q83 28 130 71t47 90zM360 376q-14 25 -35 40t-45 16q-74 -48 -136.5 -171t-66.5 -230q28 0 77.5 38.5t99.5 96.5
q11 55 39 111.5t67 98.5z" />
    <glyph glyph-name="ccedilla" unicode="&#xe7;" horiz-adv-x="329" 
d="M139 -132q0 -50 -57 -92.5t-112 -42.5q-22 0 -35 10t-13 27q0 18 16 30t38 11l19 -57q35 6 63 32t28 56q0 20 -15.5 33.5t-49.5 22.5l67 93q-33 5 -51 37t-18 85q0 50 22 109.5t59 111.5q43 58 94 91t101 33q28 0 43.5 -10.5t15.5 -29.5q0 -15 -9.5 -30t-25.5 -26l-96 53
q-55 -42 -94.5 -126t-39.5 -156q0 -33 7.5 -60t20.5 -41l157 84q-28 -50 -79 -88t-95 -38l-15 -56q26 -12 40 -29t14 -37z" />
    <glyph glyph-name="egrave" unicode="&#xe8;" horiz-adv-x="345" 
d="M121 32l156 84q-28 -50 -79.5 -88t-95.5 -38q-38 0 -60.5 33.5t-22.5 89.5q0 48 20 105.5t55 109.5q41 61 89 95.5t93 34.5q32 0 51.5 -19.5t19.5 -50.5q0 -70 -71.5 -117t-171.5 -52q-8 -25 -11.5 -46.5t-3.5 -39.5q0 -33 8.5 -60t23.5 -41zM283 385q0 19 -6 31t-19 18
q-37 -13 -82.5 -76t-69.5 -134q83 28 130 71t47 90zM284 492l-92 263h80z" />
    <glyph glyph-name="eacute" unicode="&#xe9;" horiz-adv-x="345" 
d="M121 32l156 84q-28 -50 -79.5 -88t-95.5 -38q-38 0 -60.5 33.5t-22.5 89.5q0 48 20 105.5t55 109.5q41 61 89 95.5t93 34.5q32 0 51.5 -19.5t19.5 -50.5q0 -70 -71.5 -117t-171.5 -52q-8 -25 -11.5 -46.5t-3.5 -39.5q0 -33 8.5 -60t23.5 -41zM283 385q0 19 -6 31t-19 18
q-37 -13 -82.5 -76t-69.5 -134q83 28 130 71t47 90zM417 755h91l-260 -263z" />
    <glyph glyph-name="ecircumflex" unicode="&#xea;" horiz-adv-x="345" 
d="M121 32l156 84q-28 -50 -79.5 -88t-95.5 -38q-38 0 -60.5 33.5t-22.5 89.5q0 48 20 105.5t55 109.5q41 61 89 95.5t93 34.5q32 0 51.5 -19.5t19.5 -50.5q0 -70 -71.5 -117t-171.5 -52q-8 -25 -11.5 -46.5t-3.5 -39.5q0 -33 8.5 -60t23.5 -41zM283 385q0 19 -6 31t-19 18
q-37 -13 -82.5 -76t-69.5 -134q83 28 130 71t47 90zM379 494l-28 190l-183 -190l177 261h58z" />
    <glyph glyph-name="edieresis" unicode="&#xeb;" horiz-adv-x="345" 
d="M121 32l156 84q-28 -50 -79.5 -88t-95.5 -38q-38 0 -60.5 33.5t-22.5 89.5q0 48 20 105.5t55 109.5q41 61 89 95.5t93 34.5q32 0 51.5 -19.5t19.5 -50.5q0 -70 -71.5 -117t-171.5 -52q-8 -25 -11.5 -46.5t-3.5 -39.5q0 -33 8.5 -60t23.5 -41zM283 385q0 19 -6 31t-19 18
q-37 -13 -82.5 -76t-69.5 -134q83 28 130 71t47 90zM437 627q0 -21 -15 -35.5t-37 -14.5t-36.5 14.5t-14.5 35.5t14.5 36t36.5 15t37 -15t15 -36zM287 627q0 -21 -14.5 -35.5t-36.5 -14.5t-36.5 14.5t-14.5 35.5t14.5 36t36.5 15q21 0 36 -15t15 -36z" />
    <glyph glyph-name="igrave" unicode="&#xec;" horiz-adv-x="273" 
d="M65 -4q-25 0 -35 17t0 43l119 310h-79q23 40 77.5 66.5t103.5 26.5l-160 -416l157 78q-35 -50 -88.5 -87.5t-94.5 -37.5zM248 492l-92 263h80z" />
    <glyph glyph-name="iacute" unicode="&#xed;" horiz-adv-x="273" 
d="M65 -4q-25 0 -35 17t0 43l119 310h-79q23 40 77.5 66.5t103.5 26.5l-160 -416l157 78q-35 -50 -88.5 -87.5t-94.5 -37.5zM356 755h91l-260 -263z" />
    <glyph glyph-name="icircumflex" unicode="&#xee;" horiz-adv-x="273" 
d="M65 -4q-25 0 -35 17t0 43l119 310h-79q23 40 77.5 66.5t103.5 26.5l-160 -416l157 78q-35 -50 -88.5 -87.5t-94.5 -37.5zM318 494l-28 190l-183 -190l177 261h58z" />
    <glyph glyph-name="idieresis" unicode="&#xef;" horiz-adv-x="273" 
d="M65 -4q-25 0 -35 17t0 43l119 310h-79q23 40 77.5 66.5t103.5 26.5l-160 -416l157 78q-35 -50 -88.5 -87.5t-94.5 -37.5zM385 627q0 -21 -15 -35.5t-37 -14.5t-36.5 14.5t-14.5 35.5t14.5 36t36.5 15t37 -15t15 -36zM235 627q0 -21 -14.5 -35.5t-36.5 -14.5t-36.5 14.5
t-14.5 35.5t14.5 36t36.5 15q21 0 36 -15t15 -36z" />
    <glyph glyph-name="eth" unicode="&#xf0;" horiz-adv-x="400" 
d="M280 576l-136 -49l10 38l114 41q-20 45 -47.5 91t-59.5 89q52 -34 91 -74.5t66 -87.5l142 51l-9 -37l-118 -42q23 -48 34.5 -102t11.5 -117q0 -64 -16.5 -125.5t-47.5 -114.5q-39 -67 -91.5 -107t-100.5 -40q-43 0 -71.5 40t-28.5 102q0 48 20 102.5t56 103.5
q41 55 89 87.5t91 32.5q11 0 20.5 -5.5t14.5 -14.5q-2 33 -10.5 68t-23.5 70zM276 434q-69 -26 -125 -125t-56 -197q0 -34 8 -60.5t22 -37.5q69 26 125 125t56 197q0 34 -8 60.5t-22 37.5z" />
    <glyph glyph-name="ntilde" unicode="&#xf1;" horiz-adv-x="486" 
d="M208 458l-25 -169h14q58 84 109 126.5t93 42.5q31 0 40.5 -23t-4.5 -60l-127 -332l157 78q-34 -50 -89 -87.5t-96 -37.5q-25 0 -35.5 17t-0.5 43l137 356q-37 0 -102 -59t-113 -131l-85 -222h-72l141 366h-101q18 36 65 64t94 28zM553 735l-118 -160l-99 52
q-23 -7 -58 -31.5t-82 -65.5l118 160l99 -52q24 7 58.5 31.5t81.5 65.5z" />
    <glyph glyph-name="ograve" unicode="&#xf2;" horiz-adv-x="400" 
d="M122 -10q-42 0 -70.5 40.5t-28.5 102.5q0 48 20 102t57 103q40 55 88.5 87.5t90.5 32.5t70.5 -40.5t28.5 -102.5q0 -48 -20.5 -102t-56.5 -103q-41 -55 -89 -87.5t-90 -32.5zM276 434q-69 -26 -125 -125t-56 -197q0 -34 8 -60.5t22 -37.5q69 26 125 125t56 197
q0 34 -8 60.5t-22 37.5zM328 492l-92 263h80z" />
    <glyph glyph-name="oacute" unicode="&#xf3;" horiz-adv-x="400" 
d="M122 -10q-42 0 -70.5 40.5t-28.5 102.5q0 48 20 102t57 103q40 55 88.5 87.5t90.5 32.5t70.5 -40.5t28.5 -102.5q0 -48 -20.5 -102t-56.5 -103q-41 -55 -89 -87.5t-90 -32.5zM276 434q-69 -26 -125 -125t-56 -197q0 -34 8 -60.5t22 -37.5q69 26 125 125t56 197
q0 34 -8 60.5t-22 37.5zM417 755h91l-260 -263z" />
    <glyph glyph-name="ocircumflex" unicode="&#xf4;" horiz-adv-x="400" 
d="M122 -10q-42 0 -70.5 40.5t-28.5 102.5q0 48 20 102t57 103q40 55 88.5 87.5t90.5 32.5t70.5 -40.5t28.5 -102.5q0 -48 -20.5 -102t-56.5 -103q-41 -55 -89 -87.5t-90 -32.5zM276 434q-69 -26 -125 -125t-56 -197q0 -34 8 -60.5t22 -37.5q69 26 125 125t56 197
q0 34 -8 60.5t-22 37.5zM399 494l-28 190l-183 -190l177 261h58z" />
    <glyph glyph-name="otilde" unicode="&#xf5;" horiz-adv-x="400" 
d="M122 -10q-42 0 -70.5 40.5t-28.5 102.5q0 48 20 102t57 103q40 55 88.5 87.5t90.5 32.5t70.5 -40.5t28.5 -102.5q0 -48 -20.5 -102t-56.5 -103q-41 -55 -89 -87.5t-90 -32.5zM276 434q-69 -26 -125 -125t-56 -197q0 -34 8 -60.5t22 -37.5q69 26 125 125t56 197
q0 34 -8 60.5t-22 37.5zM531 735l-118 -160l-99 52q-23 -7 -58 -31.5t-82 -65.5l118 160l99 -52q24 7 58.5 31.5t81.5 65.5z" />
    <glyph glyph-name="odieresis" unicode="&#xf6;" horiz-adv-x="400" 
d="M122 -10q-42 0 -70.5 40.5t-28.5 102.5q0 48 20 102t57 103q40 55 88.5 87.5t90.5 32.5t70.5 -40.5t28.5 -102.5q0 -48 -20.5 -102t-56.5 -103q-41 -55 -89 -87.5t-90 -32.5zM276 434q-69 -26 -125 -125t-56 -197q0 -34 8 -60.5t22 -37.5q69 26 125 125t56 197
q0 34 -8 60.5t-22 37.5zM466 627q0 -21 -15 -35.5t-37 -14.5t-36.5 14.5t-14.5 35.5t14.5 36t36.5 15t37 -15t15 -36zM316 627q0 -21 -14.5 -35.5t-36.5 -14.5t-36.5 14.5t-14.5 35.5t14.5 36t36.5 15q21 0 36 -15t15 -36z" />
    <glyph glyph-name="divide" unicode="&#xf7;" 
d="M473 541q0 -24 -16.5 -41t-40.5 -17t-41 17t-17 41t17 41t41 17t40.5 -17t16.5 -41zM591 317h-512l18 45h512zM323 136q0 -24 -16.5 -41t-40.5 -17t-41 17t-17 41t17 41t41 17t40.5 -16.5t16.5 -41.5z" />
    <glyph glyph-name="oslash" unicode="&#xf8;" horiz-adv-x="400" 
d="M-2 -44h-39l80 97q-8 17 -12 37.5t-4 42.5q0 48 20 102t57 103q40 55 88.5 87.5t90.5 32.5q19 0 36 -9t31 -27l51 62h38l-73 -88q8 -18 12 -38.5t4 -42.5q0 -48 -20.5 -102t-56.5 -103q-41 -55 -89 -87.5t-90 -32.5q-19 0 -36 9t-31 26zM278 434q-71 -26 -129 -124.5
t-58 -194.5l216 260q-4 20 -11.5 35.5t-17.5 23.5zM123 14q71 26 129 124.5t58 194.5l-216 -261q3 -20 11 -35t18 -23z" />
    <glyph glyph-name="ugrave" unicode="&#xf9;" horiz-adv-x="489" 
d="M251 458l-164 -426q37 0 103.5 59t113.5 128l88 229h71l-155 -405l157 78q-36 -51 -89 -88t-94 -37q-24 0 -33 17t1 43l42 107h-12q-55 -77 -112 -125t-97 -48q-31 0 -40 22.5t5 60.5l112 292h-79q24 40 78.5 66.5t103.5 26.5zM340 492l-92 263h80z" />
    <glyph glyph-name="uacute" unicode="&#xfa;" horiz-adv-x="489" 
d="M251 458l-164 -426q37 0 103.5 59t113.5 128l88 229h71l-155 -405l157 78q-36 -51 -89 -88t-94 -37q-24 0 -33 17t1 43l42 107h-12q-55 -77 -112 -125t-97 -48q-31 0 -40 22.5t5 60.5l112 292h-79q24 40 78.5 66.5t103.5 26.5zM467 755h91l-260 -263z" />
    <glyph glyph-name="ucircumflex" unicode="&#xfb;" horiz-adv-x="489" 
d="M251 458l-164 -426q37 0 103.5 59t113.5 128l88 229h71l-155 -405l157 78q-36 -51 -89 -88t-94 -37q-24 0 -33 17t1 43l42 107h-12q-55 -77 -112 -125t-97 -48q-31 0 -40 22.5t5 60.5l112 292h-79q24 40 78.5 66.5t103.5 26.5zM423 494l-28 190l-183 -190l177 261h58z
" />
    <glyph glyph-name="udieresis" unicode="&#xfc;" horiz-adv-x="489" 
d="M251 458l-164 -426q37 0 103.5 59t113.5 128l88 229h71l-155 -405l157 78q-36 -51 -89 -88t-94 -37q-24 0 -33 17t1 43l42 107h-12q-55 -77 -112 -125t-97 -48q-31 0 -40 22.5t5 60.5l112 292h-79q24 40 78.5 66.5t103.5 26.5zM491 627q0 -21 -15 -35.5t-37 -14.5
t-36.5 14.5t-14.5 35.5t14.5 36t36.5 15t37 -15t15 -36zM341 627q0 -21 -14.5 -35.5t-36.5 -14.5t-36.5 14.5t-14.5 35.5t14.5 36t36.5 15q21 0 36 -15t15 -36z" />
    <glyph glyph-name="yacute" unicode="&#xfd;" horiz-adv-x="407" 
d="M179 458l-18 -461q67 85 115 178t76 191h-80q14 38 38.5 65t49.5 27q21 0 32 -14.5t11 -41.5q0 -63 -57.5 -175.5t-150.5 -231.5q-101 -130 -196 -207.5t-156 -77.5q-25 0 -39 12.5t-14 35.5q0 10 2 20.5t7 20.5l126 -22q44 29 88 66t86 82l11 441h-82q21 34 65 61.5
t86 30.5zM414 755h91l-260 -263z" />
    <glyph glyph-name="thorn" unicode="&#xfe;" horiz-adv-x="423" 
d="M401 308q0 -115 -87 -209.5t-202 -108.5l-43 14l-90 -248h109l-14 -36h-252l13 36h71l240 655q-25 -2 -50.5 -6t-44.5 -8q25 17 52.5 29.5t55.5 20.5l84 228l-87 42l194 63l-117 -322h6q74 0 118 -41t44 -109zM329 303q0 52 -28 79.5t-84 30.5l-146 -404
q105 19 181.5 105t76.5 189z" />
    <glyph glyph-name="ydieresis" unicode="&#xff;" horiz-adv-x="407" 
d="M179 458l-18 -461q67 85 115 178t76 191h-80q14 38 38.5 65t49.5 27q21 0 32 -14.5t11 -41.5q0 -63 -57.5 -175.5t-150.5 -231.5q-101 -130 -196 -207.5t-156 -77.5q-25 0 -39 12.5t-14 35.5q0 10 2 20.5t7 20.5l126 -22q44 29 88 66t86 82l11 441h-82q21 34 65 61.5
t86 30.5zM424 627q0 -21 -15 -35.5t-37 -14.5t-36.5 14.5t-14.5 35.5t14.5 36t36.5 15t37 -15t15 -36zM274 627q0 -21 -14.5 -35.5t-36.5 -14.5t-36.5 14.5t-14.5 35.5t14.5 36t36.5 15q21 0 36 -15t15 -36z" />
    <glyph glyph-name="Amacron" unicode="&#x100;" horiz-adv-x="747" 
d="M371 39h127l17 230h-232l-194 -230h125l-16 -39h-265l15 39h85l587 689l-47 -689h85l-16 -39h-286zM518 309l19 262l-221 -262h202zM460 768l48 47h305l-48 -47h-305z" />
    <glyph glyph-name="amacron" unicode="&#x101;" horiz-adv-x="482" 
d="M274 -4q-24 0 -33 17t1 43l43 107h-13q-55 -79 -109.5 -126t-92.5 -47q-24 0 -38.5 23.5t-14.5 62.5q0 56 23 120t64 121q47 66 102.5 103.5t107.5 37.5q23 0 43.5 -8t38.5 -24l70 48l-166 -431l157 78q-35 -50 -88.5 -87.5t-94.5 -37.5zM280 432q-74 -48 -136.5 -171
t-66.5 -230q37 0 108.5 64t114.5 132l59 151q-14 24 -34.5 38.5t-44.5 15.5zM238 590l45 44h236l-44 -44h-237z" />
    <glyph glyph-name="Abreve" unicode="&#x102;" horiz-adv-x="747" 
d="M371 39h127l17 230h-232l-194 -230h125l-16 -39h-265l15 39h85l587 689l-47 -689h85l-16 -39h-286zM518 309l19 262l-221 -262h202zM852 920q-31 -80 -96.5 -131t-134.5 -51q-64 0 -91 52t3 130q2 -64 26.5 -94t73.5 -30q55 0 112.5 32.5t106.5 91.5z" />
    <glyph glyph-name="abreve" unicode="&#x103;" horiz-adv-x="482" 
d="M274 -4q-24 0 -33 17t1 43l43 107h-13q-55 -79 -109.5 -126t-92.5 -47q-24 0 -38.5 23.5t-14.5 62.5q0 56 23 120t64 121q47 66 102.5 103.5t107.5 37.5q23 0 43.5 -8t38.5 -24l70 48l-166 -431l157 78q-35 -50 -88.5 -87.5t-94.5 -37.5zM280 432q-74 -48 -136.5 -171
t-66.5 -230q37 0 108.5 64t114.5 132l59 151q-14 24 -34.5 38.5t-44.5 15.5zM339 768q-25 -117 -20.5 -157.5t34.5 -40.5q35 0 71.5 41.5t96.5 156.5q-22 -110 -72.5 -183t-108.5 -73q-60 0 -59.5 76t58.5 180z" />
    <glyph glyph-name="Aogonek" unicode="&#x104;" horiz-adv-x="747" 
d="M371 39h127l17 230h-232l-194 -230h125l-16 -39h-265l15 39h85l587 689l-47 -689h85l-16 -39h-265q-56 -42 -91 -88.5t-35 -80.5q0 -26 16.5 -38.5t49.5 -12.5h40q-26 -24 -48 -35t-46 -11q-30 0 -48.5 18.5t-18.5 49.5q0 43 45 99t117 104zM518 309l19 262l-221 -262
h202z" />
    <glyph glyph-name="aogonek" unicode="&#x105;" horiz-adv-x="482" 
d="M297 -9q-33 0 -49.5 18.5t-5.5 46.5l43 107h-13q-55 -79 -109.5 -126t-92.5 -47q-24 0 -38.5 23.5t-14.5 62.5q0 56 23 120t64 121q47 66 102.5 103.5t107.5 37.5q23 0 43.5 -8t38.5 -24l70 48l-166 -431l157 78q-18 -27 -46.5 -54.5t-91.5 -75.5q-80 -61 -104 -93.5
t-24 -66.5q0 -26 16.5 -38.5t49.5 -12.5h40q-26 -24 -48 -35t-46 -11q-30 0 -48.5 18.5t-18.5 49.5q0 45 44.5 97t116.5 92zM280 432q-74 -48 -136.5 -171t-66.5 -230q37 0 108.5 64t114.5 132l59 151q-14 24 -35 38.5t-44 15.5z" />
    <glyph glyph-name="Cacute" unicode="&#x106;" horiz-adv-x="638" 
d="M341 53q69 0 129 30.5t120 97.5q-38 -89 -114.5 -140t-168.5 -51q-103 0 -167.5 70.5t-64.5 181.5q0 82 32.5 163t91.5 148q63 69 141 108t157 39q49 0 89.5 -17t70.5 -50l87 62l-82 -212q-18 92 -60 133.5t-113 41.5q-63 0 -125.5 -33.5t-111.5 -93.5
q-45 -56 -70 -122.5t-25 -133.5q0 -103 49.5 -162.5t134.5 -59.5zM682 896l76 -47l-309 -110z" />
    <glyph glyph-name="cacute" unicode="&#x107;" horiz-adv-x="329" 
d="M354 418q0 -15 -9.5 -30t-25.5 -26l-96 53q-55 -42 -94.5 -126t-39.5 -156q0 -33 7.5 -60t20.5 -41l157 84q-28 -50 -79.5 -88t-95.5 -38q-37 0 -58.5 33t-21.5 90q0 50 22 109.5t59 111.5q43 58 94 91t101 33q28 0 43.5 -10.5t15.5 -29.5zM437 755h91l-260 -263z" />
    <glyph glyph-name="Ccircumflex" unicode="&#x108;" horiz-adv-x="638" 
d="M341 53q69 0 129 30.5t120 97.5q-38 -89 -114.5 -140t-168.5 -51q-103 0 -167.5 70.5t-64.5 181.5q0 82 32.5 163t91.5 148q63 69 141 108t157 39q49 0 89.5 -17t70.5 -50l87 62l-82 -212q-18 92 -60 133.5t-113 41.5q-63 0 -125.5 -33.5t-111.5 -93.5
q-45 -56 -70 -122.5t-25 -133.5q0 -103 49.5 -162.5t134.5 -59.5zM345 733l199 168h78l69 -168l-121 113z" />
    <glyph glyph-name="ccircumflex" unicode="&#x109;" horiz-adv-x="329" 
d="M354 418q0 -15 -9.5 -30t-25.5 -26l-96 53q-55 -42 -94.5 -126t-39.5 -156q0 -33 7.5 -60t20.5 -41l157 84q-28 -50 -79.5 -88t-95.5 -38q-37 0 -58.5 33t-21.5 90q0 50 22 109.5t59 111.5q43 58 94 91t101 33q28 0 43.5 -10.5t15.5 -29.5zM386 494l-28 190l-183 -190
l177 261h58z" />
    <glyph glyph-name="Cdotaccent" unicode="&#x10a;" horiz-adv-x="638" 
d="M341 53q69 0 129 30.5t120 97.5q-38 -89 -114.5 -140t-168.5 -51q-103 0 -167.5 70.5t-64.5 181.5q0 82 32.5 163t91.5 148q63 69 141 108t157 39q49 0 89.5 -17t70.5 -50l87 62l-82 -212q-18 92 -60 133.5t-113 41.5q-63 0 -125.5 -33.5t-111.5 -93.5
q-45 -56 -70 -122.5t-25 -133.5q0 -103 49.5 -162.5t134.5 -59.5zM602 804q0 -23 -15.5 -38t-38.5 -15t-38 15t-15 38t15 38t38 15t38.5 -15.5t15.5 -37.5z" />
    <glyph glyph-name="cdotaccent" unicode="&#x10b;" horiz-adv-x="329" 
d="M354 418q0 -15 -9.5 -30t-25.5 -26l-96 53q-55 -42 -94.5 -126t-39.5 -156q0 -33 7.5 -60t20.5 -41l157 84q-28 -50 -79.5 -88t-95.5 -38q-37 0 -58.5 33t-21.5 90q0 50 22 109.5t59 111.5q43 58 94 91t101 33q28 0 43.5 -10.5t15.5 -29.5zM404 642q0 -22 -15.5 -37.5
t-38.5 -15.5t-38 15.5t-15 37.5t15.5 37.5t37.5 15.5t38 -15.5t16 -37.5z" />
    <glyph glyph-name="Ccaron" unicode="&#x10c;" horiz-adv-x="638" 
d="M341 53q69 0 129 30.5t120 97.5q-38 -89 -114.5 -140t-168.5 -51q-103 0 -167.5 70.5t-64.5 181.5q0 82 32.5 163t91.5 148q63 69 141 108t157 39q49 0 89.5 -17t70.5 -50l87 62l-82 -212q-18 92 -60 133.5t-113 41.5q-63 0 -125.5 -33.5t-111.5 -93.5
q-45 -56 -70 -122.5t-25 -133.5q0 -103 49.5 -162.5t134.5 -59.5zM801 908l-199 -168h-78l-69 168l121 -113z" />
    <glyph glyph-name="ccaron" unicode="&#x10d;" horiz-adv-x="329" 
d="M354 418q0 -15 -9.5 -30t-25.5 -26l-96 53q-55 -42 -94.5 -126t-39.5 -156q0 -33 7.5 -60t20.5 -41l157 84q-28 -50 -79.5 -88t-95.5 -38q-37 0 -58.5 33t-21.5 90q0 50 22 109.5t59 111.5q43 58 94 91t101 33q28 0 43.5 -10.5t15.5 -29.5zM290 782l28 -190l183 190
l-177 -261h-58z" />
    <glyph glyph-name="Dcaron" unicode="&#x10e;" horiz-adv-x="746" 
d="M215 690h217q151 0 241.5 -69.5t90.5 -186.5q0 -97 -49 -181.5t-140 -145.5q-76 -52 -172.5 -79.5t-200.5 -27.5h-252l15 39h105l234 612h-104zM676 432q0 110 -66 164.5t-201 54.5h-24l-234 -612h53q91 0 173.5 26t147.5 74q73 55 112 131t39 162zM792 908l-199 -168
h-78l-69 168l121 -113z" />
    <glyph glyph-name="dcaron" unicode="&#x10f;" horiz-adv-x="607" 
d="M382 431l91 244l-87 42l193 63l-276 -737l157 78q-35 -50 -88.5 -87.5t-94.5 -37.5q-24 0 -33 17t1 43l42 107h-12q-57 -80 -111 -126.5t-92 -46.5q-24 0 -40 24t-16 62q0 56 22.5 120t61.5 121q46 66 100.5 103.5t106.5 37.5q21 0 39.5 -6.5t35.5 -20.5zM274 429
q-74 -45 -134 -167t-62 -231q37 0 111.5 67t117.5 134l52 139q-13 25 -35.5 41t-49.5 17zM681 770h87l-225 -263z" />
    <glyph glyph-name="Dcroat" unicode="&#x110;" horiz-adv-x="746" 
d="M183 334h-102l19 39h98l106 278h-104l15 39h217q151 0 241.5 -69.5t90.5 -186.5q0 -97 -49 -181.5t-140 -145.5q-76 -52 -172.5 -79.5t-200.5 -27.5h-252l15 39h105zM676 432q0 110 -66 164.5t-201 54.5h-24l-106 -278h174l-19 -39h-170l-113 -295h53q91 0 173.5 26
t147.5 74q73 55 112 131t39 162z" />
    <glyph glyph-name="dcroat" unicode="&#x111;" horiz-adv-x="514" 
d="M442 591l31 84l-87 42l193 63l-71 -189h90l-24 -33h-78l-193 -515l157 78q-35 -50 -88.5 -87.5t-94.5 -37.5q-24 0 -33 17t1 43l42 107h-12q-57 -80 -111 -126.5t-92 -46.5q-24 0 -40 24t-16 62q0 56 22.5 120t61.5 121q46 66 100.5 103.5t106.5 37.5q21 0 39.5 -6.5
t35.5 -20.5l47 127h-153l24 33h142zM274 429q-74 -45 -134 -167t-62 -231q37 0 111.5 67t117.5 134l52 139q-13 25 -35.5 41t-49.5 17z" />
    <glyph glyph-name="Emacron" unicode="&#x112;" horiz-adv-x="656" 
d="M278 373h158l119 105l-96 -250l-29 106h-167l-113 -295h267l199 165l-112 -204h-554l15 39h105l234 612h-104l15 39h472l65 29l-79 -206l-32 138h-256zM350 768l48 47h305l-48 -47h-305z" />
    <glyph glyph-name="emacron" unicode="&#x113;" horiz-adv-x="345" 
d="M121 32l156 84q-28 -50 -79.5 -88t-95.5 -38q-38 0 -60.5 33.5t-22.5 89.5q0 48 20 105.5t55 109.5q41 61 89 95.5t93 34.5q32 0 51.5 -19.5t19.5 -50.5q0 -70 -71.5 -117t-171.5 -52q-8 -25 -11.5 -46.5t-3.5 -39.5q0 -33 8.5 -60t23.5 -41zM283 385q0 19 -6 31t-19 18
q-37 -13 -82.5 -76t-69.5 -134q83 28 130 71t47 90zM168 590l45 44h236l-44 -44h-237z" />
    <glyph glyph-name="Ebreve" unicode="&#x114;" horiz-adv-x="656" 
d="M278 373h158l119 105l-96 -250l-29 106h-167l-113 -295h267l199 165l-112 -204h-554l15 39h105l234 612h-104l15 39h472l65 29l-79 -206l-32 138h-256zM736 920q-31 -80 -96.5 -131t-134.5 -51q-64 0 -91 52t3 130q2 -64 26.5 -94t73.5 -30q55 0 112.5 32.5t106.5 91.5z
" />
    <glyph glyph-name="ebreve" unicode="&#x115;" horiz-adv-x="345" 
d="M121 32l156 84q-28 -50 -79.5 -88t-95.5 -38q-38 0 -60.5 33.5t-22.5 89.5q0 48 20 105.5t55 109.5q41 61 89 95.5t93 34.5q32 0 51.5 -19.5t19.5 -50.5q0 -70 -71.5 -117t-171.5 -52q-8 -25 -11.5 -46.5t-3.5 -39.5q0 -33 8.5 -60t23.5 -41zM283 385q0 19 -6 31t-19 18
q-37 -13 -82.5 -76t-69.5 -134q83 28 130 71t47 90zM294 768q-25 -117 -20.5 -157.5t34.5 -40.5q35 0 71.5 41.5t96.5 156.5q-22 -110 -72.5 -183t-108.5 -73q-60 0 -59.5 76t58.5 180z" />
    <glyph glyph-name="Edotaccent" unicode="&#x116;" horiz-adv-x="656" 
d="M278 373h158l119 105l-96 -250l-29 106h-167l-113 -295h267l199 165l-112 -204h-554l15 39h105l234 612h-104l15 39h472l65 29l-79 -206l-32 138h-256zM582 804q0 -23 -15.5 -38t-38.5 -15t-38 15t-15 38t15 38t38 15t38.5 -15.5t15.5 -37.5z" />
    <glyph glyph-name="edotaccent" unicode="&#x117;" horiz-adv-x="345" 
d="M121 32l156 84q-28 -50 -79.5 -88t-95.5 -38q-38 0 -60.5 33.5t-22.5 89.5q0 48 20 105.5t55 109.5q41 61 89 95.5t93 34.5q32 0 51.5 -19.5t19.5 -50.5q0 -70 -71.5 -117t-171.5 -52q-8 -25 -11.5 -46.5t-3.5 -39.5q0 -33 8.5 -60t23.5 -41zM283 385q0 19 -6 31t-19 18
q-37 -13 -82.5 -76t-69.5 -134q83 28 130 71t47 90zM373 642q0 -22 -15.5 -37.5t-38.5 -15.5t-38 15.5t-15 37.5t15.5 37.5t37.5 15.5t38 -15.5t16 -37.5z" />
    <glyph glyph-name="Eogonek" unicode="&#x118;" horiz-adv-x="656" 
d="M278 373h158l119 105l-96 -250l-29 106h-167l-113 -295h267l199 165l-112 -204h-107q-56 -42 -91 -88.5t-35 -80.5q0 -26 16.5 -38.5t49.5 -12.5h40q-26 -24 -48 -35t-46 -11q-30 0 -48.5 18.5t-18.5 49.5q0 42 42.5 96t112.5 102h-421l15 39h105l234 612h-104l15 39h472
l65 29l-79 -206l-32 138h-256z" />
    <glyph glyph-name="eogonek" unicode="&#x119;" horiz-adv-x="345" 
d="M121 32l156 84q-15 -27 -40.5 -53.5t-84.5 -71.5q-76 -59 -99 -92t-23 -68q0 -26 16.5 -38.5t49.5 -12.5h40q-26 -24 -48 -35t-46 -11q-30 0 -48.5 18.5t-18.5 49.5q0 43 39 92.5t107 93.5q-47 0 -74.5 33.5t-27.5 91.5q0 48 20 105.5t55 109.5q41 61 89 95.5t93 34.5
q32 0 51.5 -19.5t19.5 -50.5q0 -70 -71.5 -117t-171.5 -52q-8 -25 -11.5 -46.5t-3.5 -39.5q0 -33 8.5 -60t23.5 -41zM283 385q0 19 -6 31t-19 18q-37 -13 -82.5 -76t-69.5 -134q83 28 130 71t47 90z" />
    <glyph glyph-name="Ecaron" unicode="&#x11a;" horiz-adv-x="656" 
d="M278 373h158l119 105l-96 -250l-29 106h-167l-113 -295h267l199 165l-112 -204h-554l15 39h105l234 612h-104l15 39h472l65 29l-79 -206l-32 138h-256zM753 908l-199 -168h-78l-69 168l121 -113z" />
    <glyph glyph-name="ecaron" unicode="&#x11b;" horiz-adv-x="345" 
d="M121 32l156 84q-28 -50 -79.5 -88t-95.5 -38q-38 0 -60.5 33.5t-22.5 89.5q0 48 20 105.5t55 109.5q41 61 89 95.5t93 34.5q32 0 51.5 -19.5t19.5 -50.5q0 -70 -71.5 -117t-171.5 -52q-8 -25 -11.5 -46.5t-3.5 -39.5q0 -33 8.5 -60t23.5 -41zM283 385q0 19 -6 31t-19 18
q-37 -13 -82.5 -76t-69.5 -134q83 28 130 71t47 90zM284 782l28 -190l183 190l-177 -261h-58z" />
    <glyph glyph-name="Gcircumflex" unicode="&#x11c;" horiz-adv-x="755" 
d="M482 47l82 216h-119l16 39h293l-15 -39h-96l-66 -173h75q-72 -49 -147.5 -74.5t-150.5 -25.5q-122 0 -198.5 74.5t-76.5 194.5q0 85 35.5 165t100.5 144q64 63 145.5 97.5t165.5 34.5q55 0 102 -18.5t76 -49.5l90 63l-85 -212q-18 87 -66 131t-125 44q-69 0 -135.5 -32
t-118.5 -90q-50 -55 -76.5 -123.5t-26.5 -141.5q0 -106 61.5 -172t156.5 -66q27 0 52 3.5t51 10.5zM381 733l199 168h78l69 -168l-121 113z" />
    <glyph glyph-name="gcircumflex" unicode="&#x11d;" horiz-adv-x="388" 
d="M66 -290q-90 0 -153 38t-63 92q0 50 59.5 83t140.5 23l-141 -81q0 -46 52.5 -81.5t120.5 -35.5q59 0 106 24.5t56 59.5l-173 139q-14 11 -19.5 21.5t-5.5 24.5q0 17 13 33.5t40 32.5q-28 12 -46 47t-18 79q0 37 17.5 80t47.5 81q33 41 71.5 64.5t75.5 23.5q23 0 43.5 -18
t32.5 -49l133 88l-43 -113h-83q2 -8 3 -17.5t1 -21.5q0 -37 -17.5 -80t-46.5 -81q-33 -42 -71.5 -65t-75.5 -23h-7.5t-4.5 1l-21 -44l152 -111q31 -22 43.5 -39.5t12.5 -38.5q0 -51 -73 -93.5t-159 -42.5zM102 185q0 -30 6 -51.5t18 -31.5q54 18 98.5 96t44.5 154
q0 30 -6.5 51.5t-18.5 31.5q-54 -17 -98 -95t-44 -155zM375 494l-28 190l-183 -190l177 261h58z" />
    <glyph glyph-name="Gbreve" unicode="&#x11e;" horiz-adv-x="755" 
d="M482 47l82 216h-119l16 39h293l-15 -39h-96l-66 -173h75q-72 -49 -147.5 -74.5t-150.5 -25.5q-122 0 -198.5 74.5t-76.5 194.5q0 85 35.5 165t100.5 144q64 63 145.5 97.5t165.5 34.5q55 0 102 -18.5t76 -49.5l90 63l-85 -212q-18 87 -66 131t-125 44q-69 0 -135.5 -32
t-118.5 -90q-50 -55 -76.5 -123.5t-26.5 -141.5q0 -106 61.5 -172t156.5 -66q27 0 52 3.5t51 10.5zM795 920q-31 -80 -96.5 -131t-134.5 -51q-64 0 -91 52t3 130q2 -64 26.5 -94t73.5 -30q55 0 112.5 32.5t106.5 91.5z" />
    <glyph glyph-name="gbreve" unicode="&#x11f;" horiz-adv-x="388" 
d="M66 -290q-90 0 -153 38t-63 92q0 50 59.5 83t140.5 23l-141 -81q0 -46 52.5 -81.5t120.5 -35.5q59 0 106 24.5t56 59.5l-173 139q-14 11 -19.5 21.5t-5.5 24.5q0 17 13 33.5t40 32.5q-28 12 -46 47t-18 79q0 37 17.5 80t47.5 81q33 41 71.5 64.5t75.5 23.5q23 0 43.5 -18
t32.5 -49l133 88l-43 -113h-83q2 -8 3 -17.5t1 -21.5q0 -37 -17.5 -80t-46.5 -81q-33 -42 -71.5 -65t-75.5 -23h-7.5t-4.5 1l-21 -44l152 -111q31 -22 43.5 -39.5t12.5 -38.5q0 -51 -73 -93.5t-159 -42.5zM102 185q0 -30 6 -51.5t18 -31.5q54 18 98.5 96t44.5 154
q0 30 -6.5 51.5t-18.5 31.5q-54 -17 -98 -95t-44 -155zM291 768q-25 -117 -20.5 -157.5t34.5 -40.5q35 0 71.5 41.5t96.5 156.5q-22 -110 -72.5 -183t-108.5 -73q-60 0 -59.5 76t58.5 180z" />
    <glyph glyph-name="Gdotaccent" unicode="&#x120;" horiz-adv-x="755" 
d="M482 47l82 216h-119l16 39h293l-15 -39h-96l-66 -173h75q-72 -49 -147.5 -74.5t-150.5 -25.5q-122 0 -198.5 74.5t-76.5 194.5q0 85 35.5 165t100.5 144q64 63 145.5 97.5t165.5 34.5q55 0 102 -18.5t76 -49.5l90 63l-85 -212q-18 87 -66 131t-125 44q-69 0 -135.5 -32
t-118.5 -90q-50 -55 -76.5 -123.5t-26.5 -141.5q0 -106 61.5 -172t156.5 -66q27 0 52 3.5t51 10.5zM641 804q0 -23 -15.5 -38t-38.5 -15t-38 15t-15 38t15 38t38 15t38.5 -15.5t15.5 -37.5z" />
    <glyph glyph-name="gdotaccent" unicode="&#x121;" horiz-adv-x="388" 
d="M66 -290q-90 0 -153 38t-63 92q0 50 59.5 83t140.5 23l-141 -81q0 -46 52.5 -81.5t120.5 -35.5q59 0 106 24.5t56 59.5l-173 139q-14 11 -19.5 21.5t-5.5 24.5q0 17 13 33.5t40 32.5q-28 12 -46 47t-18 79q0 37 17.5 80t47.5 81q33 41 71.5 64.5t75.5 23.5q23 0 43.5 -18
t32.5 -49l133 88l-43 -113h-83q2 -8 3 -17.5t1 -21.5q0 -37 -17.5 -80t-46.5 -81q-33 -42 -71.5 -65t-75.5 -23h-7.5t-4.5 1l-21 -44l152 -111q31 -22 43.5 -39.5t12.5 -38.5q0 -51 -73 -93.5t-159 -42.5zM102 185q0 -30 6 -51.5t18 -31.5q54 18 98.5 96t44.5 154
q0 30 -6.5 51.5t-18.5 31.5q-54 -17 -98 -95t-44 -155zM376 642q0 -22 -15.5 -37.5t-38.5 -15.5t-38 15.5t-15 37.5t15.5 37.5t37.5 15.5t38 -15.5t16 -37.5z" />
    <glyph glyph-name="Gcommaaccent" unicode="&#x122;" horiz-adv-x="755" 
d="M482 47l82 216h-119l16 39h293l-15 -39h-96l-66 -173h75q-72 -49 -147.5 -74.5t-150.5 -25.5q-122 0 -198.5 74.5t-76.5 194.5q0 85 35.5 165t100.5 144q64 63 145.5 97.5t165.5 34.5q55 0 102 -18.5t76 -49.5l90 63l-85 -212q-18 87 -66 131t-125 44q-69 0 -135.5 -32
t-118.5 -90q-50 -55 -76.5 -123.5t-26.5 -141.5q0 -106 61.5 -172t156.5 -66q27 0 52 3.5t51 10.5zM249 -130q0 24 18 41.5t45 17.5q28 0 44.5 -17t16.5 -46q0 -50 -52 -90.5t-124 -40.5q52 23 83.5 49.5t45.5 59.5h-65q-5 3 -8.5 10t-3.5 16z" />
    <glyph glyph-name="gcommaaccent" unicode="&#x123;" horiz-adv-x="388" 
d="M66 -290q-90 0 -153 38t-63 92q0 50 59.5 83t140.5 23l-141 -81q0 -46 52.5 -81.5t120.5 -35.5q59 0 106 24.5t56 59.5l-173 139q-14 11 -19.5 21.5t-5.5 24.5q0 17 13 33.5t40 32.5q-28 12 -46 47t-18 79q0 37 17.5 80t47.5 81q33 41 71.5 64.5t75.5 23.5q23 0 43.5 -18
t32.5 -49l133 88l-43 -113h-83q2 -8 3 -17.5t1 -21.5q0 -37 -17.5 -80t-46.5 -81q-33 -42 -71.5 -65t-75.5 -23h-7.5t-4.5 1l-21 -44l152 -111q31 -22 43.5 -39.5t12.5 -38.5q0 -51 -73 -93.5t-159 -42.5zM102 185q0 -30 6 -51.5t18 -31.5q54 18 98.5 96t44.5 154
q0 30 -6.5 51.5t-18.5 31.5q-54 -17 -98 -95t-44 -155zM381 597q0 -24 -18 -41.5t-45 -17.5q-28 0 -44.5 17t-16.5 46q0 50 52 90.5t124 40.5q-52 -23 -83.5 -49.5t-45.5 -59.5h65q5 -3 8.5 -10t3.5 -16z" />
    <glyph glyph-name="Hcircumflex" unicode="&#x124;" horiz-adv-x="842" 
d="M200 651l15 39h290l-15 -39h-105l-106 -278h399l106 278h-104l15 39h290l-15 -39h-105l-234 -612h104l-15 -39h-290l15 39h105l113 295h-399l-113 -295h104l-15 -39h-290l15 39h105l234 612h-104zM440 733l199 168h78l69 -168l-121 113z" />
    <glyph glyph-name="hcircumflex" unicode="&#x125;" horiz-adv-x="450" 
d="M382 458q28 0 42 -23.5t14 -72.5q0 -43 -22 -101t-59 -118q-44 -68 -91 -110.5t-80 -42.5q-27 0 -37.5 21.5t0.5 54.5h119q46 82 75.5 185.5t21.5 163.5q-34 -1 -107 -68t-114 -129l-82 -218h-70l250 675l-87 42l193 63l-185 -492h16q64 90 113 130t90 40zM264 793
l199 168h78l69 -168l-121 113z" />
    <glyph glyph-name="Hbar" unicode="&#x126;" horiz-adv-x="842" 
d="M230 457h-103l19 39h99l59 155h-104l15 39h290l-15 -39h-105l-59 -155h399l60 155h-105l15 39h290l-15 -39h-105l-59 -155h103l-19 -39h-99l-160 -418h105l-16 -39h-290l15 39h105l98 255h-399l-98 -255h104l-15 -39h-290l15 39h105zM311 457l-48 -124h400l48 124h-400z
" />
    <glyph glyph-name="hbar" unicode="&#x127;" horiz-adv-x="450" 
d="M382 458q28 0 42 -23.5t14 -72.5q0 -43 -22 -101t-59 -118q-44 -68 -91 -110.5t-80 -42.5q-27 0 -37.5 21.5t0.5 54.5h119q46 82 75.5 185.5t21.5 163.5q-34 -1 -107 -68t-114 -129l-82 -218h-70l207 558h-90l24 33h78l31 84l-87 42l193 63l-71 -189h154l-24 -33h-142
l-102 -270h16q64 90 113 130t90 40z" />
    <glyph glyph-name="Itilde" unicode="&#x128;" horiz-adv-x="362" 
d="M200 651l15 39h290l-15 -39h-105l-234 -612h104l-15 -39h-290l15 39h105l234 612h-104zM618 933l-123 -161l-133 53q-26 -8 -62 -32t-81 -62l123 161l133 -54q28 10 64.5 34.5t78.5 60.5z" />
    <glyph glyph-name="itilde" unicode="&#x129;" horiz-adv-x="273" 
d="M65 -4q-25 0 -35 17t0 43l119 310h-79q23 40 77.5 66.5t103.5 26.5l-160 -416l157 78q-35 -50 -88.5 -87.5t-94.5 -37.5zM452 735l-118 -160l-99 52q-23 -7 -58 -31.5t-82 -65.5l118 160l99 -52q24 7 58.5 31.5t81.5 65.5z" />
    <glyph glyph-name="Imacron" unicode="&#x12a;" horiz-adv-x="362" 
d="M200 651l15 39h290l-15 -39h-105l-234 -612h104l-15 -39h-290l15 39h105l234 612h-104zM221 768l48 47h305l-48 -47h-305z" />
    <glyph glyph-name="imacron" unicode="&#x12b;" horiz-adv-x="273" 
d="M65 -4q-25 0 -35 17t0 43l119 310h-79q23 40 77.5 66.5t103.5 26.5l-160 -416l157 78q-35 -50 -88.5 -87.5t-94.5 -37.5zM113 590l45 44h236l-44 -44h-237z" />
    <glyph glyph-name="Ibreve" unicode="&#x12c;" horiz-adv-x="362" 
d="M200 651l15 39h290l-15 -39h-105l-234 -612h104l-15 -39h-290l15 39h105l234 612h-104zM610 920q-31 -80 -96.5 -131t-134.5 -51q-64 0 -91 52t3 130q2 -64 26.5 -94t73.5 -30q55 0 112.5 32.5t106.5 91.5z" />
    <glyph glyph-name="ibreve" unicode="&#x12d;" horiz-adv-x="273" 
d="M65 -4q-25 0 -35 17t0 43l119 310h-79q23 40 77.5 66.5t103.5 26.5l-160 -416l157 78q-35 -50 -88.5 -87.5t-94.5 -37.5zM229 768q-25 -117 -20.5 -157.5t34.5 -40.5q35 0 71.5 41.5t96.5 156.5q-22 -110 -72.5 -183t-108.5 -73q-60 0 -59.5 76t58.5 180z" />
    <glyph glyph-name="Iogonek" unicode="&#x12e;" horiz-adv-x="362" 
d="M200 651l15 39h290l-15 -39h-105l-234 -612h104l-15 -39h-68q-56 -42 -91 -88.5t-35 -80.5q0 -26 16.5 -38.5t49.5 -12.5h40q-26 -24 -48 -35t-46 -11q-30 0 -48.5 18.5t-18.5 49.5q0 42 42.5 96t112.5 102h-196l15 39h105l234 612h-104z" />
    <glyph glyph-name="iogonek" unicode="&#x12f;" horiz-adv-x="273" 
d="M319 642q0 -22 -15.5 -37.5t-38.5 -15.5t-38.5 15.5t-15.5 37.5t16 37.5t38 15.5t38 -15.5t16 -37.5zM88 -9q-36 -2 -53 16.5t-6 48.5l120 310h-79q23 40 77.5 66.5t103.5 26.5l-160 -416l157 78q-18 -27 -46.5 -54.5t-91.5 -75.5q-81 -60 -105 -93t-24 -67
q0 -26 16.5 -38.5t50.5 -12.5h40q-26 -24 -48 -35t-46 -11q-31 0 -49.5 18.5t-18.5 49.5q0 45 45 96.5t117 92.5z" />
    <glyph glyph-name="Idotaccent" unicode="&#x130;" horiz-adv-x="362" 
d="M200 651l15 39h290l-15 -39h-105l-234 -612h104l-15 -39h-290l15 39h105l234 612h-104zM442 804q0 -23 -15.5 -38t-38.5 -15t-38 15t-15 38t15 38t38 15t38.5 -15.5t15.5 -37.5z" />
    <glyph glyph-name="dotlessi" unicode="&#x131;" horiz-adv-x="273" 
d="M65 -4q-25 0 -35 17t0 43l119 310h-79q23 40 77.5 66.5t103.5 26.5l-160 -416l157 78q-35 -50 -88.5 -87.5t-94.5 -37.5z" />
    <glyph glyph-name="Jcircumflex" unicode="&#x134;" horiz-adv-x="509" 
d="M340 336h-126l15 37h127l101 245h-252v-9l65 -55q-6 -14 -22.5 -24t-33.5 -10q-19 0 -31 13t-12 35q0 36 38.5 76.5t89.5 59.5l167 -69l109 102l-146 -364h104l-15 -37h-104l-123 -307q-37 -92 -109.5 -159.5t-141.5 -67.5q-28 0 -43.5 15.5t-15.5 41.5q0 12 4 25t11 26
l148 -48zM342 733l199 168h78l69 -168l-121 113z" />
    <glyph glyph-name="jcircumflex" unicode="&#x135;" horiz-adv-x="242" 
d="M249 459l-148 -410q-70 -191 -125.5 -265t-120.5 -74q-22 0 -33.5 13.5t-11.5 39.5q0 7 1.5 16t4.5 22l134 -12l193 577h-79q24 40 80 66.5t105 26.5zM318 494l-28 190l-183 -190l177 261h58z" />
    <glyph glyph-name="Kcommaaccent" unicode="&#x136;" horiz-adv-x="718" 
d="M200 651l15 39h290l-15 -39h-105l-100 -262h37l380 262h-109l16 39h262l-15 -39h-89l-397 -273l272 -378h-91l-270 379l-130 -340h104l-15 -39h-290l15 39h105l234 612h-104zM253 -130q0 24 18 41.5t45 17.5q28 0 44.5 -17t16.5 -46q0 -50 -52 -90.5t-124 -40.5
q52 23 83.5 49.5t45.5 59.5h-65q-5 3 -8.5 10t-3.5 16z" />
    <glyph glyph-name="kcommaaccent" unicode="&#x137;" horiz-adv-x="451" 
d="M-8 0l250 675l-87 42l193 63l-183 -489h16q71 89 123.5 128t97.5 39q29 0 44 -14.5t15 -43.5q0 -64 -68.5 -130.5t-171.5 -107.5l203 -312l-108 29l-144 266q-20 -6 -34 -9t-26 -4l-50 -132h-70zM393 425q-48 -13 -116 -67.5t-127 -124.5l-34 -91q116 42 196.5 121.5
t80.5 161.5zM70 -130q0 24 18 41.5t45 17.5q28 0 44.5 -17t16.5 -46q0 -50 -52 -90.5t-124 -40.5q52 23 83.5 49.5t45.5 59.5h-65q-5 3 -8.5 10t-3.5 16z" />
    <glyph glyph-name="kgreenlandic" unicode="&#x138;" horiz-adv-x="460" 
d="M1 0l136 366h-79q23 40 77.5 66.5t103.5 26.5l-65 -168h16q72 90 124 128.5t97 38.5q29 0 44 -14.5t15 -43.5q0 -64 -68.5 -130.5t-171.5 -107.5l203 -312l-108 29l-144 266q-20 -6 -34 -9t-26 -4l-50 -132h-70zM401 425q-48 -13 -115.5 -67.5t-126.5 -124.5l-34 -91
q115 42 195.5 121.5t80.5 161.5z" />
    <glyph glyph-name="Lacute" unicode="&#x139;" horiz-adv-x="633" 
d="M70 39l234 612h-104l15 39h291l-16 -39h-105l-234 -612h246l201 171l-114 -210h-534l15 39h105zM601 896l76 -47l-309 -110z" />
    <glyph glyph-name="lacute" unicode="&#x13a;" horiz-adv-x="256" 
d="M49 -4q-26 0 -36 17t0 43l231 619l-86 42l193 63l-277 -737l157 78q-35 -50 -88.5 -87.5t-93.5 -37.5zM474 968l76 -47l-309 -110z" />
    <glyph glyph-name="Lcommaaccent" unicode="&#x13b;" horiz-adv-x="633" 
d="M70 39l234 612h-104l15 39h291l-16 -39h-105l-234 -612h246l201 171l-114 -210h-534l15 39h105zM141 -130q0 24 18 41.5t45 17.5q28 0 44.5 -17t16.5 -46q0 -50 -52 -90.5t-124 -40.5q52 23 83.5 49.5t45.5 59.5h-65q-5 3 -8.5 10t-3.5 16z" />
    <glyph glyph-name="lcommaaccent" unicode="&#x13c;" horiz-adv-x="256" 
d="M49 -4q-26 0 -36 17t0 43l231 619l-86 42l193 63l-277 -737l157 78q-35 -50 -88.5 -87.5t-93.5 -37.5zM-53 -130q0 24 18 41.5t45 17.5q28 0 44.5 -17t16.5 -46q0 -50 -52 -90.5t-124 -40.5q52 23 83.5 49.5t45.5 59.5h-65q-5 3 -8.5 10t-3.5 16z" />
    <glyph glyph-name="Lcaron" unicode="&#x13d;" horiz-adv-x="633" 
d="M70 39l234 612h-104l15 39h291l-16 -39h-105l-234 -612h246l201 171l-114 -210h-534l15 39h105zM614 690h87l-225 -263z" />
    <glyph glyph-name="lcaron" unicode="&#x13e;" horiz-adv-x="380" 
d="M49 -4q-26 0 -36 17t0 43l231 619l-86 42l193 63l-277 -737l157 78q-35 -50 -88.5 -87.5t-93.5 -37.5zM454 770h87l-225 -263z" />
    <glyph glyph-name="Ldot" unicode="&#x13f;" horiz-adv-x="633" 
d="M70 39l234 612h-104l15 39h291l-16 -39h-105l-234 -612h246l201 171l-114 -210h-534l15 39h105zM569 369q0 -22 -15.5 -37.5t-38.5 -15.5t-38 15.5t-15 37.5t15.5 37.5t37.5 15.5t38 -15.5t16 -37.5z" />
    <glyph glyph-name="ldot" unicode="&#x140;" horiz-adv-x="342" 
d="M49 -4q-26 0 -36 17t0 43l231 619l-86 42l193 63l-277 -737l157 78q-35 -50 -88.5 -87.5t-93.5 -37.5zM392 394q0 -22 -15.5 -37.5t-38.5 -15.5t-38 15.5t-15 37.5t15.5 37.5t37.5 15.5t38 -15.5t16 -37.5z" />
    <glyph glyph-name="Lslash" unicode="&#x141;" horiz-adv-x="643" 
d="M168 269l-125 -51l18 44l124 51l129 338h-104l15 39h291l-16 -39h-105l-118 -309l209 85l-17 -44l-209 -84l-99 -260h246l201 171l-114 -210h-534l15 39h105z" />
    <glyph glyph-name="lslash" unicode="&#x142;" horiz-adv-x="313" 
d="M74 -4q-26 0 -36 17t0 43l93 250l-110 -60l15 41l111 60l122 328l-86 42l193 63l-149 -397l134 74l-15 -42l-134 -72l-113 -300l157 78q-35 -50 -88.5 -87.5t-93.5 -37.5z" />
    <glyph glyph-name="Nacute" unicode="&#x143;" horiz-adv-x="757" 
d="M631 0h-78l-267 511l-181 -472h105l-15 -39h-257l16 39h104l201 523l-67 128h85l276 -538l191 499h-104l15 39h256l-15 -39h-105l-211 -551zM707 896l76 -47l-309 -110z" />
    <glyph glyph-name="nacute" unicode="&#x144;" horiz-adv-x="486" 
d="M208 458l-25 -169h14q58 84 109 126.5t93 42.5q31 0 40.5 -23t-4.5 -60l-127 -332l157 78q-34 -50 -89 -87.5t-96 -37.5q-25 0 -35.5 17t-0.5 43l137 356q-37 0 -102 -59t-113 -131l-85 -222h-72l141 366h-101q18 36 65 64t94 28zM453 755h91l-260 -263z" />
    <glyph glyph-name="Ncommaaccent" unicode="&#x145;" horiz-adv-x="757" 
d="M631 0h-78l-267 511l-181 -472h105l-15 -39h-257l16 39h104l201 523l-67 128h85l276 -538l191 499h-104l15 39h256l-15 -39h-105l-211 -551zM235 -130q0 24 18 41.5t45 17.5q28 0 44.5 -17t16.5 -46q0 -50 -52 -90.5t-124 -40.5q52 23 83.5 49.5t45.5 59.5h-65
q-5 3 -8.5 10t-3.5 16z" />
    <glyph glyph-name="ncommaaccent" unicode="&#x146;" horiz-adv-x="486" 
d="M208 458l-25 -169h14q58 84 109 126.5t93 42.5q31 0 40.5 -23t-4.5 -60l-127 -332l157 78q-34 -50 -89 -87.5t-96 -37.5q-25 0 -35.5 17t-0.5 43l137 356q-37 0 -102 -59t-113 -131l-85 -222h-72l141 366h-101q18 36 65 64t94 28zM91 -130q0 24 18 41.5t45 17.5
q28 0 44.5 -17t16.5 -46q0 -50 -52 -90.5t-124 -40.5q52 23 83.5 49.5t45.5 59.5h-65q-5 3 -8.5 10t-3.5 16z" />
    <glyph glyph-name="Ncaron" unicode="&#x147;" horiz-adv-x="757" 
d="M631 0h-78l-267 511l-181 -472h105l-15 -39h-257l16 39h104l201 523l-67 128h85l276 -538l191 499h-104l15 39h256l-15 -39h-105l-211 -551zM763 908l-199 -168h-78l-69 168l121 -113z" />
    <glyph glyph-name="ncaron" unicode="&#x148;" horiz-adv-x="486" 
d="M208 458l-25 -169h14q58 84 109 126.5t93 42.5q31 0 40.5 -23t-4.5 -60l-127 -332l157 78q-34 -50 -89 -87.5t-96 -37.5q-25 0 -35.5 17t-0.5 43l137 356q-37 0 -102 -59t-113 -131l-85 -222h-72l141 366h-101q18 36 65 64t94 28zM317 782l28 -190l183 190l-177 -261h-58
z" />
    <glyph glyph-name="Eng" unicode="&#x14a;" horiz-adv-x="753" 
d="M271 -126l151 -48l89 227l-227 453l-179 -467h105l-15 -39h-257l16 39h104l199 520l-65 131h86l267 -548l199 509h-104l15 39h256l-15 -39h-105l-252 -658q-48 -122 -99 -174.5t-119 -52.5q-30 0 -47.5 16t-17.5 41q0 11 3.5 23t11.5 28z" />
    <glyph glyph-name="eng" unicode="&#x14b;" horiz-adv-x="463" 
d="M399 458q31 0 40.5 -23t-4.5 -60l-123 -325q-72 -194 -127 -266.5t-119 -72.5q-22 0 -33.5 14t-11.5 39q0 7 1 15t5 24l134 -13l220 622q-37 0 -102 -59t-113 -131l-85 -222h-72l141 366h-101q18 36 65 64t94 28l-25 -169h14q58 84 109 126.5t93 42.5z" />
    <glyph glyph-name="Omacron" unicode="&#x14c;" horiz-adv-x="729" 
d="M505 700q105 0 173.5 -72t68.5 -183q0 -80 -34 -162t-95 -149q-63 -69 -141 -106.5t-160 -37.5q-106 0 -174 71.5t-68 183.5q0 80 34 162t95 149q63 69 141 106.5t160 37.5zM252 506q-44 -64 -69.5 -140t-25.5 -145q0 -89 44 -139.5t118 -50.5q70 0 134.5 40t115.5 113
q44 64 69.5 140t25.5 145q0 89 -43.5 139.5t-118.5 50.5q-69 0 -134 -40t-116 -113zM378 768l48 47h305l-48 -47h-305z" />
    <glyph glyph-name="omacron" unicode="&#x14d;" horiz-adv-x="400" 
d="M122 -10q-42 0 -70.5 40.5t-28.5 102.5q0 48 20 102t57 103q40 55 88.5 87.5t90.5 32.5t70.5 -40.5t28.5 -102.5q0 -48 -20.5 -102t-56.5 -103q-41 -55 -89 -87.5t-90 -32.5zM276 434q-69 -26 -125 -125t-56 -197q0 -34 8 -60.5t22 -37.5q69 26 125 125t56 197
q0 34 -8 60.5t-22 37.5zM193 590l45 44h236l-44 -44h-237z" />
    <glyph glyph-name="Obreve" unicode="&#x14e;" horiz-adv-x="729" 
d="M505 700q105 0 173.5 -72t68.5 -183q0 -80 -34 -162t-95 -149q-63 -69 -141 -106.5t-160 -37.5q-106 0 -174 71.5t-68 183.5q0 80 34 162t95 149q63 69 141 106.5t160 37.5zM252 506q-44 -64 -69.5 -140t-25.5 -145q0 -89 44 -139.5t118 -50.5q70 0 134.5 40t115.5 113
q44 64 69.5 140t25.5 145q0 89 -43.5 139.5t-118.5 50.5q-69 0 -134 -40t-116 -113zM788 920q-31 -80 -96.5 -131t-134.5 -51q-64 0 -91 52t3 130q2 -64 26.5 -94t73.5 -30q55 0 112.5 32.5t106.5 91.5z" />
    <glyph glyph-name="obreve" unicode="&#x14f;" horiz-adv-x="400" 
d="M122 -10q-42 0 -70.5 40.5t-28.5 102.5q0 48 20 102t57 103q40 55 88.5 87.5t90.5 32.5t70.5 -40.5t28.5 -102.5q0 -48 -20.5 -102t-56.5 -103q-41 -55 -89 -87.5t-90 -32.5zM276 434q-69 -26 -125 -125t-56 -197q0 -34 8 -60.5t22 -37.5q69 26 125 125t56 197
q0 34 -8 60.5t-22 37.5zM307 768q-25 -117 -20.5 -157.5t34.5 -40.5q35 0 71.5 41.5t96.5 156.5q-22 -110 -72.5 -183t-108.5 -73q-60 0 -59.5 76t58.5 180z" />
    <glyph glyph-name="Ohungarumlaut" unicode="&#x150;" horiz-adv-x="729" 
d="M505 700q105 0 173.5 -72t68.5 -183q0 -80 -34 -162t-95 -149q-63 -69 -141 -106.5t-160 -37.5q-106 0 -174 71.5t-68 183.5q0 80 34 162t95 149q63 69 141 106.5t160 37.5zM252 506q-44 -64 -69.5 -140t-25.5 -145q0 -89 44 -139.5t118 -50.5q70 0 134.5 40t115.5 113
q44 64 69.5 140t25.5 145q0 89 -43.5 139.5t-118.5 50.5q-69 0 -134 -40t-116 -113zM582 739l171 155l100 -17zM394 739l171 155l101 -17z" />
    <glyph glyph-name="ohungarumlaut" unicode="&#x151;" horiz-adv-x="400" 
d="M122 -10q-42 0 -70.5 40.5t-28.5 102.5q0 48 20 102t57 103q40 55 88.5 87.5t90.5 32.5t70.5 -40.5t28.5 -102.5q0 -48 -20.5 -102t-56.5 -103q-41 -55 -89 -87.5t-90 -32.5zM276 434q-69 -26 -125 -125t-56 -197q0 -34 8 -60.5t22 -37.5q69 26 125 125t56 197
q0 34 -8 60.5t-22 37.5zM345 755h82l-214 -263zM480 755h82l-214 -263z" />
    <glyph glyph-name="OE" unicode="&#x152;" horiz-adv-x="1040" 
d="M890 0h-482q-151 0 -241.5 70t-90.5 186q0 97 49 181.5t139 145.5q77 52 173.5 79.5t200.5 27.5h434l65 29l-79 -206l-31 138h-257l-106 -278h157l119 105l-96 -250l-29 106h-166l-113 -295h266l200 165zM164 258q0 -110 66 -164.5t201 -54.5h24l235 612h-53
q-92 0 -174.5 -26t-147.5 -74q-73 -55 -112 -131t-39 -162z" />
    <glyph glyph-name="oe" unicode="&#x153;" horiz-adv-x="586" 
d="M365 32l157 77q-27 -48 -78 -83.5t-97 -35.5q-31 0 -49.5 24.5t-23.5 71.5q-37 -46 -76.5 -71t-75.5 -25q-42 0 -70.5 40.5t-28.5 102.5q0 48 20 102t57 103q40 55 88.5 87.5t90.5 32.5q32 0 55 -25.5t31 -69.5q36 45 76.5 70t78.5 25q32 0 51.5 -19.5t19.5 -50.5
q0 -70 -70.5 -116.5t-171.5 -52.5q-8 -25 -11.5 -46.5t-3.5 -39.5q0 -33 8.5 -60t22.5 -41zM527 385q0 19 -6 31t-18 18q-37 -13 -82.5 -75.5t-69.5 -133.5q83 28 129.5 70.5t46.5 89.5zM276 434q-69 -26 -125 -125t-56 -197q0 -34 8 -60.5t22 -37.5q69 26 125 125t56 197
q0 34 -8 60.5t-22 37.5z" />
    <glyph glyph-name="Racute" unicode="&#x154;" horiz-adv-x="694" 
d="M151 39h104l-15 -39h-290l15 39h105l235 612h-105l15 39h264q104 0 160.5 -36t56.5 -102q0 -84 -76.5 -142.5t-201.5 -74.5l192 -335h-87l-185 331h-75zM463 651h-78l-108 -283h76q111 0 184 51t73 131q0 51 -36.5 76t-110.5 25zM642 896l76 -47l-309 -110z" />
    <glyph glyph-name="racute" unicode="&#x155;" horiz-adv-x="373" 
d="M174 229l-93 -229h-72l141 366h-100q18 36 64.5 64t93.5 28l-25 -172h13q56 103 89.5 137.5t67.5 34.5q24 0 38.5 -14t14.5 -37q0 -22 -14.5 -39.5t-38.5 -27.5l-48 56q-25 -23 -60 -67.5t-71 -99.5zM423 755h91l-260 -263z" />
    <glyph glyph-name="Rcommaaccent" unicode="&#x156;" horiz-adv-x="694" 
d="M151 39h104l-15 -39h-290l15 39h105l235 612h-105l15 39h264q104 0 160.5 -36t56.5 -102q0 -84 -76.5 -142.5t-201.5 -74.5l192 -335h-87l-185 331h-75zM463 651h-78l-108 -283h76q111 0 184 51t73 131q0 51 -36.5 76t-110.5 25zM232 -130q0 24 18 41.5t45 17.5
q28 0 44.5 -17t16.5 -46q0 -50 -52 -90.5t-124 -40.5q52 23 83.5 49.5t45.5 59.5h-65q-5 3 -8.5 10t-3.5 16z" />
    <glyph glyph-name="rcommaaccent" unicode="&#x157;" horiz-adv-x="373" 
d="M174 229l-93 -229h-72l141 366h-100q18 36 64.5 64t93.5 28l-25 -172h13q56 103 89.5 137.5t67.5 34.5q24 0 38.5 -14t14.5 -37q0 -22 -14.5 -39.5t-38.5 -27.5l-48 56q-25 -23 -60 -67.5t-71 -99.5zM-55 -130q0 24 18 41.5t45 17.5q28 0 44.5 -17t16.5 -46
q0 -50 -52 -90.5t-124 -40.5q52 23 83.5 49.5t45.5 59.5h-65q-5 3 -8.5 10t-3.5 16z" />
    <glyph glyph-name="Rcaron" unicode="&#x158;" horiz-adv-x="694" 
d="M151 39h104l-15 -39h-290l15 39h105l235 612h-105l15 39h264q104 0 160.5 -36t56.5 -102q0 -84 -76.5 -142.5t-201.5 -74.5l192 -335h-87l-185 331h-75zM463 651h-78l-108 -283h76q111 0 184 51t73 131q0 51 -36.5 76t-110.5 25zM738 908l-199 -168h-78l-69 168l121 -113
z" />
    <glyph glyph-name="rcaron" unicode="&#x159;" horiz-adv-x="373" 
d="M174 229l-93 -229h-72l141 366h-100q18 36 64.5 64t93.5 28l-25 -172h13q56 103 89.5 137.5t67.5 34.5q24 0 38.5 -14t14.5 -37q0 -22 -14.5 -39.5t-38.5 -27.5l-48 56q-25 -23 -60 -67.5t-71 -99.5zM269 782l28 -190l183 190l-177 -261h-58z" />
    <glyph glyph-name="Sacute" unicode="&#x15a;" horiz-adv-x="536" 
d="M396 659q-63 0 -101.5 -35t-38.5 -92q0 -31 19.5 -59t84.5 -74q76 -54 100.5 -92t24.5 -83q0 -94 -79.5 -164t-193.5 -70q-64 0 -122 26.5t-89 69.5l36 135q10 -85 64.5 -136t134.5 -51q74 0 123 44.5t49 116.5q0 36 -20.5 67t-86.5 80q-70 51 -91.5 85t-21.5 74
q0 84 62 141.5t156 57.5q45 0 83.5 -18t61.5 -47l87 63l-84 -210q-12 80 -53.5 125.5t-104.5 45.5zM587 896l76 -47l-309 -110z" />
    <glyph glyph-name="sacute" unicode="&#x15b;" horiz-adv-x="280" 
d="M129 346q0 -18 8 -38t35 -58q26 -37 34 -56t8 -36q0 -57 -61 -112.5t-118 -55.5q-31 0 -42.5 24t1.5 63l140 -23q11 10 19 27t8 33q0 20 -8.5 40.5t-34.5 57.5q-26 36 -33.5 55t-7.5 37q0 53 57 103.5t114 50.5q44 0 45 -31t-31 -56l-99 38q-15 -11 -24.5 -28.5
t-9.5 -34.5zM392 755h91l-260 -263z" />
    <glyph glyph-name="Scircumflex" unicode="&#x15c;" horiz-adv-x="536" 
d="M396 659q-63 0 -101.5 -35t-38.5 -92q0 -31 19.5 -59t84.5 -74q76 -54 100.5 -92t24.5 -83q0 -94 -79.5 -164t-193.5 -70q-64 0 -122 26.5t-89 69.5l36 135q10 -85 64.5 -136t134.5 -51q74 0 123 44.5t49 116.5q0 36 -20.5 67t-86.5 80q-70 51 -91.5 85t-21.5 74
q0 84 62 141.5t156 57.5q45 0 83.5 -18t61.5 -47l87 63l-84 -210q-12 80 -53.5 125.5t-104.5 45.5zM275 733l199 168h78l69 -168l-121 113z" />
    <glyph glyph-name="scircumflex" unicode="&#x15d;" horiz-adv-x="280" 
d="M129 346q0 -18 8 -38t35 -58q26 -37 34 -56t8 -36q0 -57 -61 -112.5t-118 -55.5q-31 0 -42.5 24t1.5 63l140 -23q11 10 19 27t8 33q0 20 -8.5 40.5t-34.5 57.5q-26 36 -33.5 55t-7.5 37q0 53 57 103.5t114 50.5q44 0 45 -31t-31 -56l-99 38q-15 -11 -24.5 -28.5
t-9.5 -34.5zM349 494l-28 190l-183 -190l177 261h58z" />
    <glyph glyph-name="Scedilla" unicode="&#x15e;" horiz-adv-x="536" 
d="M229 -132q0 -50 -57 -92.5t-112 -42.5q-22 0 -35 10t-13 27q0 18 16 30t38 11l19 -57q35 6 63 32t28 56q0 20 -15.5 33.5t-49.5 22.5l67 94q-55 7 -102.5 32t-74.5 62l36 135q10 -85 64.5 -136t134.5 -51q74 0 123 44.5t49 116.5q0 36 -20.5 67t-86.5 80q-70 51 -91.5 85
t-21.5 74q0 84 62 141.5t156 57.5q45 0 83.5 -18t61.5 -47l87 63l-84 -210q-12 80 -53.5 125.5t-104.5 45.5t-101.5 -35t-38.5 -92q0 -31 19.5 -59t84.5 -74q76 -54 100.5 -92t24.5 -83q0 -94 -79.5 -164t-193.5 -70h-13.5t-8.5 1l-15 -57q26 -12 40 -29t14 -37z" />
    <glyph glyph-name="scedilla" unicode="&#x15f;" horiz-adv-x="280" 
d="M79 -132q0 -50 -57 -92.5t-112 -42.5q-22 0 -35 10t-13 27q0 18 16 30t38 11l19 -57q35 6 63 32t28 56q0 20 -15.5 33.5t-49.5 22.5l66 92q-27 4 -36 27.5t3 59.5l140 -23q11 10 19 27t8 33q0 20 -8.5 40.5t-34.5 57.5q-26 36 -33.5 55t-7.5 37q0 53 57 103.5t114 50.5
q44 0 45 -31t-31 -56l-99 38q-15 -11 -24.5 -28.5t-9.5 -34.5q0 -18 8 -38t35 -58q26 -37 34 -56t8 -36q0 -56 -58.5 -110.5t-115.5 -57.5l-15 -56q26 -12 40 -29t14 -37z" />
    <glyph glyph-name="Scaron" unicode="&#x160;" horiz-adv-x="536" 
d="M396 659q-63 0 -101.5 -35t-38.5 -92q0 -31 19.5 -59t84.5 -74q76 -54 100.5 -92t24.5 -83q0 -94 -79.5 -164t-193.5 -70q-64 0 -122 26.5t-89 69.5l36 135q10 -85 64.5 -136t134.5 -51q74 0 123 44.5t49 116.5q0 36 -20.5 67t-86.5 80q-70 51 -91.5 85t-21.5 74
q0 84 62 141.5t156 57.5q45 0 83.5 -18t61.5 -47l87 63l-84 -210q-12 80 -53.5 125.5t-104.5 45.5zM705 908l-199 -168h-78l-69 168l121 -113z" />
    <glyph glyph-name="scaron" unicode="&#x161;" horiz-adv-x="280" 
d="M129 346q0 -18 8 -38t35 -58q26 -37 34 -56t8 -36q0 -57 -61 -112.5t-118 -55.5q-31 0 -42.5 24t1.5 63l140 -23q11 10 19 27t8 33q0 20 -8.5 40.5t-34.5 57.5q-26 36 -33.5 55t-7.5 37q0 53 57 103.5t114 50.5q44 0 45 -31t-31 -56l-99 38q-15 -11 -24.5 -28.5
t-9.5 -34.5zM245 782l28 -190l183 190l-177 -261h-58z" />
    <glyph glyph-name="Tcommaaccent" unicode="&#x162;" horiz-adv-x="723" 
d="M326 -132q0 -50 -57 -92.5t-112 -42.5q-22 0 -35 10t-13 27q0 18 16 30t38 11l19 -57q35 6 63 32t28 56q0 20 -15.5 33.5t-49.5 22.5l73 102h-163l15 39h118l234 612h-177l-157 -145l82 213l43 -29h529l65 29l-81 -213l-32 145h-191l-235 -612h119l-16 -39h-145l-17 -66
q26 -12 40 -29t14 -37z" />
    <glyph glyph-name="tcommaaccent" unicode="&#x163;" horiz-adv-x="306" 
d="M66 -4q-25 0 -35 16.5t0 43.5l120 336h-75l26 43h65l36 102l83 26l-48 -128h105l-26 -43h-96l-132 -349l174 82q-28 -40 -75.5 -76t-88.5 -48v0l-18 -67q26 -12 40 -29t14 -37q0 -50 -57 -92.5t-112 -42.5q-22 0 -35 10t-13 27q0 18 16 30t38 11l19 -57q35 6 63 32t28 56
q0 20 -15.5 33.5t-49.5 22.5l72 101l-12 -2t-11 -1z" />
    <glyph glyph-name="Tcaron" unicode="&#x164;" horiz-adv-x="723" 
d="M233 719l43 -29h529l65 29l-81 -213l-32 145h-191l-235 -612h119l-16 -39h-316l15 39h118l234 612h-177l-157 -145zM791 908l-199 -168h-78l-69 168l121 -113z" />
    <glyph glyph-name="tcaron" unicode="&#x165;" horiz-adv-x="306" 
d="M66 -4q-25 0 -35 16.5t0 43.5l120 336h-75l26 43h65l36 102l83 26l-48 -128h105l-26 -43h-96l-132 -349l174 82q-36 -50 -95.5 -89.5t-101.5 -39.5zM451 770h87l-225 -263z" />
    <glyph glyph-name="Tbar" unicode="&#x166;" horiz-adv-x="723" 
d="M364 334h-136l19 39h132l106 278h-177l-157 -145l82 213l43 -29h529l65 29l-81 -213l-32 145h-191l-107 -278h137l-19 -39h-133l-113 -295h119l-16 -39h-316l15 39h118z" />
    <glyph glyph-name="tbar" unicode="&#x167;" horiz-adv-x="312" 
d="M69 -4q-25 0 -35 16.5t0 43.5l68 189h-70l21 33h60l41 114h-75l26 43h65l36 102l83 26l-48 -128h105l-26 -43h-96l-43 -114h114l-22 -33h-104l-77 -202l174 82q-36 -50 -95.5 -89.5t-101.5 -39.5z" />
    <glyph glyph-name="Utilde" unicode="&#x168;" horiz-adv-x="752" 
d="M336 45q95 0 162 55t110 167l147 384h-104l15 39h256l-15 -39h-105l-151 -396q-51 -134 -136.5 -199.5t-207.5 -65.5q-90 0 -145 46.5t-55 124.5q0 22 6 48.5t19 60.5l146 381h-105l15 39h290l-15 -39h-105l-146 -383q-11 -29 -17 -54.5t-6 -46.5q0 -59 38 -90.5
t109 -31.5zM833 933l-123 -161l-133 53q-26 -8 -62 -32t-81 -62l123 161l133 -54q28 10 64.5 34.5t78.5 60.5z" />
    <glyph glyph-name="utilde" unicode="&#x169;" horiz-adv-x="489" 
d="M251 458l-164 -426q37 0 103.5 59t113.5 128l88 229h71l-155 -405l157 78q-36 -51 -89 -88t-94 -37q-24 0 -33 17t1 43l42 107h-12q-55 -77 -112 -125t-97 -48q-31 0 -40 22.5t5 60.5l112 292h-79q24 40 78.5 66.5t103.5 26.5zM546 735l-118 -160l-99 52
q-23 -7 -58 -31.5t-82 -65.5l118 160l99 -52q24 7 58.5 31.5t81.5 65.5z" />
    <glyph glyph-name="Umacron" unicode="&#x16a;" horiz-adv-x="752" 
d="M336 45q95 0 162 55t110 167l147 384h-104l15 39h256l-15 -39h-105l-151 -396q-51 -134 -136.5 -199.5t-207.5 -65.5q-90 0 -145 46.5t-55 124.5q0 22 6 48.5t19 60.5l146 381h-105l15 39h290l-15 -39h-105l-146 -383q-11 -29 -17 -54.5t-6 -46.5q0 -59 38 -90.5
t109 -31.5zM434 768l48 47h305l-48 -47h-305z" />
    <glyph glyph-name="umacron" unicode="&#x16b;" horiz-adv-x="489" 
d="M251 458l-164 -426q37 0 103.5 59t113.5 128l88 229h71l-155 -405l157 78q-36 -51 -89 -88t-94 -37q-24 0 -33 17t1 43l42 107h-12q-55 -77 -112 -125t-97 -48q-31 0 -40 22.5t5 60.5l112 292h-79q24 40 78.5 66.5t103.5 26.5zM226 590l45 44h236l-44 -44h-237z" />
    <glyph glyph-name="Ubreve" unicode="&#x16c;" horiz-adv-x="752" 
d="M336 45q95 0 162 55t110 167l147 384h-104l15 39h256l-15 -39h-105l-151 -396q-51 -134 -136.5 -199.5t-207.5 -65.5q-90 0 -145 46.5t-55 124.5q0 22 6 48.5t19 60.5l146 381h-105l15 39h290l-15 -39h-105l-146 -383q-11 -29 -17 -54.5t-6 -46.5q0 -59 38 -90.5
t109 -31.5zM813 920q-31 -80 -96.5 -131t-134.5 -51q-64 0 -91 52t3 130q2 -64 26.5 -94t73.5 -30q55 0 112.5 32.5t106.5 91.5z" />
    <glyph glyph-name="ubreve" unicode="&#x16d;" horiz-adv-x="489" 
d="M251 458l-164 -426q37 0 103.5 59t113.5 128l88 229h71l-155 -405l157 78q-36 -51 -89 -88t-94 -37q-24 0 -33 17t1 43l42 107h-12q-55 -77 -112 -125t-97 -48q-31 0 -40 22.5t5 60.5l112 292h-79q24 40 78.5 66.5t103.5 26.5zM323 768q-25 -117 -20.5 -157.5t34.5 -40.5
q35 0 71.5 41.5t96.5 156.5q-22 -110 -72.5 -183t-108.5 -73q-60 0 -59.5 76t58.5 180z" />
    <glyph glyph-name="Uring" unicode="&#x16e;" horiz-adv-x="752" 
d="M336 45q95 0 162 55t110 167l147 384h-104l15 39h256l-15 -39h-105l-151 -396q-51 -134 -136.5 -199.5t-207.5 -65.5q-90 0 -145 46.5t-55 124.5q0 22 6 48.5t19 60.5l146 381h-105l15 39h290l-15 -39h-105l-146 -383q-11 -29 -17 -54.5t-6 -46.5q0 -59 38 -90.5
t109 -31.5zM497 818q0 48 34.5 81t84.5 33q38 0 63 -26t25 -64q0 -48 -34.5 -81t-83.5 -33q-38 0 -63.5 26t-25.5 64zM668 842q0 24 -15.5 39t-40.5 15q-34 0 -56 -22t-22 -56q0 -24 15 -39t40 -15q34 0 56.5 22t22.5 56z" />
    <glyph glyph-name="uring" unicode="&#x16f;" horiz-adv-x="489" 
d="M251 458l-164 -426q37 0 103.5 59t113.5 128l88 229h71l-155 -405l157 78q-36 -51 -89 -88t-94 -37q-24 0 -33 17t1 43l42 107h-12q-55 -77 -112 -125t-97 -48q-31 0 -40 22.5t5 60.5l112 292h-79q24 40 78.5 66.5t103.5 26.5zM256 618q0 45 32 76t79 31q35 0 58.5 -24
t23.5 -59q0 -45 -32 -76t-78 -31q-35 0 -59 24t-24 59zM417 641q0 23 -15 37.5t-38 14.5q-32 0 -53.5 -21t-21.5 -53q0 -23 14.5 -38t38.5 -15q32 0 53.5 21.5t21.5 53.5z" />
    <glyph glyph-name="Uhungarumlaut" unicode="&#x170;" horiz-adv-x="752" 
d="M336 45q95 0 162 55t110 167l147 384h-104l15 39h256l-15 -39h-105l-151 -396q-51 -134 -136.5 -199.5t-207.5 -65.5q-90 0 -145 46.5t-55 124.5q0 22 6 48.5t19 60.5l146 381h-105l15 39h290l-15 -39h-105l-146 -383q-11 -29 -17 -54.5t-6 -46.5q0 -59 38 -90.5
t109 -31.5zM622 739l171 155l100 -17zM434 739l171 155l101 -17z" />
    <glyph glyph-name="uhungarumlaut" unicode="&#x171;" horiz-adv-x="489" 
d="M251 458l-164 -426q37 0 103.5 59t113.5 128l88 229h71l-155 -405l157 78q-36 -51 -89 -88t-94 -37q-24 0 -33 17t1 43l42 107h-12q-55 -77 -112 -125t-97 -48q-31 0 -40 22.5t5 60.5l112 292h-79q24 40 78.5 66.5t103.5 26.5zM381 755h82l-214 -263zM516 755h82
l-214 -263z" />
    <glyph glyph-name="Uogonek" unicode="&#x172;" horiz-adv-x="752" 
d="M336 45q95 0 162 55t110 167l147 384h-104l15 39h256l-15 -39h-105l-151 -396q-33 -86 -84 -146t-124 -98q-60 -31 -104 -85t-44 -95q0 -26 16.5 -38.5t49.5 -12.5h40q-26 -24 -48 -35t-46 -11q-30 0 -48.5 18.5t-18.5 49.5q0 42 44 97.5t112 100.5q-22 -5 -44.5 -7.5
t-44.5 -2.5q-90 0 -145 46.5t-55 124.5q0 22 6 48.5t19 60.5l146 381h-105l15 39h290l-15 -39h-105l-146 -383q-11 -29 -17 -54.5t-6 -46.5q0 -59 38 -90.5t109 -31.5z" />
    <glyph glyph-name="uogonek" unicode="&#x173;" horiz-adv-x="489" 
d="M308 43l157 78q-18 -27 -46.5 -54.5t-91.5 -75.5q-81 -60 -105 -93t-24 -67q0 -26 16.5 -38.5t49.5 -12.5h40q-26 -24 -48 -35t-46 -11q-30 0 -48.5 18.5t-18.5 49.5q0 45 45 97t117 92q-33 0 -49.5 18.5t-5.5 46.5l42 107h-12q-55 -77 -112 -125t-97 -48q-31 0 -40 22.5
t5 60.5l112 292h-79q24 40 78.5 66.5t103.5 26.5l-164 -426q37 0 103.5 59t113.5 128l88 229h71z" />
    <glyph glyph-name="Wcircumflex" unicode="&#x174;" horiz-adv-x="1008" 
d="M786 651h-126l-60 -520l412 520h-124l15 39h266l-16 -39h-84l-554 -689l51 473l-375 -473l76 689h-85l16 39h603zM589 651h-249l-62 -518l295 369zM509 733l199 168h78l69 -168l-121 113z" />
    <glyph glyph-name="wcircumflex" unicode="&#x175;" horiz-adv-x="601" 
d="M406 458l-84 -419q62 41 136 145.5t94 181.5h-79q15 39 39 65.5t49 26.5q21 0 32 -15t11 -41q0 -47 -34.5 -114.5t-92.5 -136.5q-55 -64 -114 -109t-111 -62l43 215q-59 -80 -123.5 -137t-120.5 -78l70 386h-82q22 34 72.5 63t91.5 29l-81 -411q37 26 92 88t94 122
l22 109h-83q22 34 71 63t88 29zM484 494l-28 190l-183 -190l177 261h58z" />
    <glyph glyph-name="Ycircumflex" unicode="&#x176;" horiz-adv-x="765" 
d="M472 345l-117 -306h118l-15 -39h-317l15 39h118l120 314q26 138 2.5 211t-96.5 73q-43 0 -80 -20.5t-75 -66.5q27 70 79.5 110t116.5 40q88 0 121.5 -89t2.5 -219q63 134 164 221t197 87q35 0 54 -14t19 -39q0 -18 -11 -37t-31 -35l-94 70q-75 -22 -156 -107t-135 -193z
M405 733l199 168h78l69 -168l-121 113z" />
    <glyph glyph-name="ycircumflex" unicode="&#x177;" horiz-adv-x="407" 
d="M179 458l-18 -461q67 85 115 178t76 191h-80q14 38 38.5 65t49.5 27q21 0 32 -14.5t11 -41.5q0 -63 -57.5 -175.5t-150.5 -231.5q-101 -130 -196 -207.5t-156 -77.5q-25 0 -39 12.5t-14 35.5q0 10 2 20.5t7 20.5l126 -22q44 29 88 66t86 82l11 441h-82q21 34 65 61.5
t86 30.5zM380 494l-28 190l-183 -190l177 261h58z" />
    <glyph glyph-name="Ydieresis" unicode="&#x178;" horiz-adv-x="765" 
d="M472 345l-117 -306h118l-15 -39h-317l15 39h118l120 314q26 138 2.5 211t-96.5 73q-43 0 -80 -20.5t-75 -66.5q27 70 79.5 110t116.5 40q88 0 121.5 -89t2.5 -219q63 134 164 221t197 87q35 0 54 -14t19 -39q0 -18 -11 -37t-31 -35l-94 70q-75 -22 -156 -107t-135 -193z
M741 809q0 -21 -15 -35.5t-37 -14.5t-36.5 14.5t-14.5 35.5q0 22 14.5 36.5t36.5 14.5t37 -15t15 -36zM548 809q0 -21 -15 -35.5t-37 -14.5t-36.5 14.5t-14.5 35.5t14.5 36t36.5 15t37 -15t15 -36z" />
    <glyph glyph-name="Zacute" unicode="&#x179;" horiz-adv-x="652" 
d="M84 39h328l199 165l-111 -204h-557l703 651h-305l-156 -145l81 213l43 -29h475zM677 896l76 -47l-309 -110z" />
    <glyph glyph-name="zacute" unicode="&#x17a;" horiz-adv-x="410" 
d="M125 294q-19 0 -30.5 12.5t-11.5 34.5q0 34 34.5 68.5t79.5 48.5l175 -55l55 50l26 -23l-356 -326l282 -128l-113 -36l-208 130l-57 -53l-26 23l358 327l-216 25v-11l58 -58q-8 -13 -21.5 -21t-28.5 -8zM440 755h91l-260 -263z" />
    <glyph glyph-name="Zdotaccent" unicode="&#x17b;" horiz-adv-x="652" 
d="M84 39h328l199 165l-111 -204h-557l703 651h-305l-156 -145l81 213l43 -29h475zM600 804q0 -23 -15.5 -38t-38.5 -15t-38 15t-15 38t15 38t38 15t38.5 -15.5t15.5 -37.5z" />
    <glyph glyph-name="zdotaccent" unicode="&#x17c;" horiz-adv-x="410" 
d="M125 294q-19 0 -30.5 12.5t-11.5 34.5q0 34 34.5 68.5t79.5 48.5l175 -55l55 50l26 -23l-356 -326l282 -128l-113 -36l-208 130l-57 -53l-26 23l358 327l-216 25v-11l58 -58q-8 -13 -21.5 -21t-28.5 -8zM416 642q0 -22 -15.5 -37.5t-38.5 -15.5t-38 15.5t-15 37.5
t15.5 37.5t37.5 15.5t38 -15.5t16 -37.5z" />
    <glyph glyph-name="Zcaron" unicode="&#x17d;" horiz-adv-x="652" 
d="M84 39h328l199 165l-111 -204h-557l703 651h-305l-156 -145l81 213l43 -29h475zM764 908l-199 -168h-78l-69 168l121 -113z" />
    <glyph glyph-name="zcaron" unicode="&#x17e;" horiz-adv-x="410" 
d="M125 294q-19 0 -30.5 12.5t-11.5 34.5q0 34 34.5 68.5t79.5 48.5l175 -55l55 50l26 -23l-356 -326l282 -128l-113 -36l-208 130l-57 -53l-26 23l358 327l-216 25v-11l58 -58q-8 -13 -21.5 -21t-28.5 -8zM314 782l28 -190l183 190l-177 -261h-58z" />
    <glyph glyph-name="florin" unicode="&#x192;" horiz-adv-x="456" 
d="M257 274l-107 -240q-87 -197 -140 -260.5t-112 -63.5q-24 0 -37 14t-13 38q0 11 2 21.5t7 21.5l133 -19l195 488h-130l16 36h129l14 36q76 189 146.5 271.5t154.5 82.5q30 0 48 -12t18 -32q0 -19 -9.5 -35.5t-24.5 -25.5l-124 52l-150 -337h139l-17 -36h-138z" />
    <glyph glyph-name="AEacute" unicode="&#x1fc;" horiz-adv-x="1040" 
d="M663 373h158l119 105l-96 -250l-29 106h-167l-113 -295h267l199 165l-111 -204h-555l15 39h105l89 233h-233l-235 -233h128l-15 -39h-272l15 39h85l619 612h-137l15 39h558l65 29l-79 -206l-32 138h-256zM687 645l-337 -334h209zM969 896l76 -47l-309 -110z" />
    <glyph glyph-name="aeacute" unicode="&#x1fd;" horiz-adv-x="573" 
d="M331 -10q-38 0 -60.5 33.5t-22.5 89.5v11t1 7q-52 -67 -99 -104t-80 -37q-24 0 -38.5 23.5t-14.5 62.5q0 56 23 120t64 121q46 66 101.5 103.5t107.5 37.5q27 0 50 -10t42 -30q25 20 50.5 30t49.5 10q32 0 51.5 -19.5t19.5 -50.5q0 -70 -71.5 -117t-171.5 -52
q-8 -25 -11.5 -46.5t-3.5 -39.5q0 -33 8.5 -60t23.5 -41l156 84q-28 -50 -79.5 -88t-95.5 -38zM512 385q0 19 -6 31t-19 18q-37 -13 -82.5 -76t-69.5 -134q83 28 130 71t47 90zM360 376q-14 25 -35 40t-45 16q-74 -48 -136.5 -171t-66.5 -230q28 0 77.5 38.5t99.5 96.5
q11 55 39 111.5t67 98.5zM566 755h91l-260 -263z" />
    <glyph glyph-name="Oslashacute" unicode="&#x1fe;" horiz-adv-x="729" 
d="M747 445q0 -80 -34 -162t-95 -149q-63 -69 -141 -106.5t-160 -37.5q-41 0 -78 12t-67 34l-80 -92h-50l102 117q-33 34 -51 81.5t-18 102.5q0 80 34 162t95 149q63 69 141 106.5t160 37.5q42 0 80 -12.5t70 -37.5l62 72h51l-85 -98q31 -35 47.5 -81t16.5 -98zM252 506
q-44 -64 -69.5 -140t-25.5 -145q0 -33 6.5 -62t19.5 -52l437 503q-22 24 -52 36.5t-66 12.5q-69 0 -134 -40t-116 -113zM569 184q44 64 69.5 140t25.5 145q0 31 -5.5 58t-16.5 50l-436 -501q21 -22 50 -33.5t63 -11.5q70 0 134.5 40t115.5 113zM662 896l76 -47l-309 -110z
" />
    <glyph glyph-name="oslashacute" unicode="&#x1ff;" horiz-adv-x="400" 
d="M-2 -44h-39l80 97q-8 17 -12 37.5t-4 42.5q0 48 20 102t57 103q40 55 88.5 87.5t90.5 32.5q19 0 36 -9t31 -27l51 62h38l-73 -88q8 -18 12 -38.5t4 -42.5q0 -48 -20.5 -102t-56.5 -103q-41 -55 -89 -87.5t-90 -32.5q-19 0 -36 9t-31 26zM278 434q-71 -26 -129 -124.5
t-58 -194.5l216 260q-4 20 -11.5 35.5t-17.5 23.5zM123 14q71 26 129 124.5t58 194.5l-216 -261q3 -20 11 -35t18 -23zM428 755h91l-260 -263z" />
    <glyph glyph-name="Scommaaccent" unicode="&#x218;" horiz-adv-x="536" 
d="M396 659q-63 0 -101.5 -35t-38.5 -92q0 -31 19.5 -59t84.5 -74q76 -54 100.5 -92t24.5 -83q0 -94 -79.5 -164t-193.5 -70q-64 0 -122 26.5t-89 69.5l36 135q10 -85 64.5 -136t134.5 -51q74 0 123 44.5t49 116.5q0 36 -20.5 67t-86.5 80q-70 51 -91.5 85t-21.5 74
q0 84 62 141.5t156 57.5q45 0 83.5 -18t61.5 -47l87 63l-84 -210q-12 80 -53.5 125.5t-104.5 45.5zM76 -130q0 24 18 41.5t45 17.5q28 0 44.5 -17t16.5 -46q0 -50 -52 -90.5t-124 -40.5q52 23 83.5 49.5t45.5 59.5h-65q-5 3 -8.5 10t-3.5 16z" />
    <glyph glyph-name="scommaaccent" unicode="&#x219;" horiz-adv-x="280" 
d="M129 346q0 -18 8 -38t35 -58q26 -37 34 -56t8 -36q0 -57 -61 -112.5t-118 -55.5q-31 0 -42.5 24t1.5 63l140 -23q11 10 19 27t8 33q0 20 -8.5 40.5t-34.5 57.5q-26 36 -33.5 55t-7.5 37q0 53 57 103.5t114 50.5q44 0 45 -31t-31 -56l-99 38q-15 -11 -24.5 -28.5
t-9.5 -34.5zM-47 -130q0 24 18 41.5t45 17.5q28 0 44.5 -17t16.5 -46q0 -50 -52 -90.5t-124 -40.5q52 23 83.5 49.5t45.5 59.5h-65q-5 3 -8.5 10t-3.5 16z" />
    <glyph glyph-name="uni021A" unicode="&#x21a;" horiz-adv-x="723" 
d="M233 719l43 -29h529l65 29l-81 -213l-32 145h-191l-235 -612h119l-16 -39h-316l15 39h118l234 612h-177l-157 -145zM179 -130q0 24 18 41.5t45 17.5q28 0 44.5 -17t16.5 -46q0 -50 -52 -90.5t-124 -40.5q52 23 83.5 49.5t45.5 59.5h-65q-5 3 -8.5 10t-3.5 16z" />
    <glyph glyph-name="uni021B" unicode="&#x21b;" horiz-adv-x="306" 
d="M66 -4q-25 0 -35 16.5t0 43.5l120 336h-75l26 43h65l36 102l83 26l-48 -128h105l-26 -43h-96l-132 -349l174 82q-36 -50 -95.5 -89.5t-101.5 -39.5zM-22 -130q0 24 18 41.5t45 17.5q28 0 44.5 -17t16.5 -46q0 -50 -52 -90.5t-124 -40.5q52 23 83.5 49.5t45.5 59.5h-65
q-5 3 -8.5 10t-3.5 16z" />
    <glyph glyph-name="uni0237" unicode="&#x237;" horiz-adv-x="242" 
d="M249 459l-148 -410q-70 -191 -125.5 -265t-120.5 -74q-22 0 -33.5 13.5t-11.5 39.5q0 7 1.5 16t4.5 22l134 -12l193 577h-79q24 40 80 66.5t105 26.5z" />
    <glyph glyph-name="circumflex" unicode="&#x2c6;" horiz-adv-x="500" 
d="M459 494l-28 190l-183 -190l177 261h58z" />
    <glyph glyph-name="caron" unicode="&#x2c7;" horiz-adv-x="500" 
d="M359 782l28 -190l183 190l-177 -261h-58z" />
    <glyph glyph-name="breve" unicode="&#x2d8;" horiz-adv-x="500" 
d="M366 768q-25 -117 -20.5 -157.5t34.5 -40.5q35 0 71.5 41.5t96.5 156.5q-22 -110 -72.5 -183t-108.5 -73q-60 0 -59.5 76t58.5 180z" />
    <glyph glyph-name="dotaccent" unicode="&#x2d9;" horiz-adv-x="500" 
d="M464 642q0 -22 -15.5 -37.5t-38.5 -15.5t-38 15.5t-15 37.5t15.5 37.5t37.5 15.5t38 -15.5t16 -37.5z" />
    <glyph glyph-name="ring" unicode="&#x2da;" horiz-adv-x="500" 
d="M309 618q0 45 32 76t79 31q35 0 58.5 -24t23.5 -59q0 -45 -32 -76t-78 -31q-35 0 -59 24t-24 59zM470 641q0 23 -15 37.5t-38 14.5q-32 0 -53.5 -21t-21.5 -53q0 -23 14.5 -38t38.5 -15q32 0 53.5 21.5t21.5 53.5z" />
    <glyph glyph-name="ogonek" unicode="&#x2db;" horiz-adv-x="500" 
d="M-31 -198q0 49 57 113t141 112l5 -12q-63 -41 -105.5 -93.5t-42.5 -90.5q0 -26 16.5 -38.5t49.5 -12.5h40q-26 -24 -48 -35t-46 -11q-30 0 -48.5 18.5t-18.5 49.5z" />
    <glyph glyph-name="tilde" unicode="&#x2dc;" horiz-adv-x="500" 
d="M584 735l-118 -160l-99 52q-23 -7 -58 -31.5t-82 -65.5l118 160l99 -52q24 7 58.5 31.5t81.5 65.5z" />
    <glyph glyph-name="hungarumlaut" unicode="&#x2dd;" horiz-adv-x="500" 
d="M361 755h82l-214 -263zM496 755h82l-214 -263z" />
    <glyph glyph-name="gravecmb" unicode="&#x300;" horiz-adv-x="0" 
d="M46 492l-92 263h80z" />
    <glyph glyph-name="acutecmb" unicode="&#x301;" horiz-adv-x="0" 
d="M39 755h91l-260 -263z" />
    <glyph glyph-name="circumflexcmb" unicode="&#x302;" horiz-adv-x="0" 
d="M93 494l-28 190l-183 -190l177 261h58z" />
    <glyph glyph-name="tildecmb" unicode="&#x303;" horiz-adv-x="0" 
d="M179 735l-118 -160l-99 52q-23 -7 -58 -31.5t-82 -65.5l118 160l99 -52q24 7 58.5 31.5t81.5 65.5z" />
    <glyph glyph-name="macroncmb" unicode="&#x304;" horiz-adv-x="0" 
d="M-140 590l45 44h236l-44 -44h-237z" />
    <glyph glyph-name="brevecmb" unicode="&#x306;" horiz-adv-x="0" 
d="M-61 768q-25 -117 -20.5 -157.5t34.5 -40.5q35 0 71.5 41.5t96.5 156.5q-22 -110 -72.5 -183t-108.5 -73q-60 0 -59.5 76t58.5 180z" />
    <glyph glyph-name="dotaccentcmb" unicode="&#x307;" horiz-adv-x="0" 
d="M53 642q0 -22 -15.5 -37.5t-38.5 -15.5t-38 15.5t-15 37.5t15.5 37.5t37.5 15.5t38 -15.5t16 -37.5z" />
    <glyph glyph-name="dieresiscmb" unicode="&#x308;" horiz-adv-x="0" 
d="M126 627q0 -21 -15 -35.5t-37 -14.5t-36.5 14.5t-14.5 35.5t14.5 36t36.5 15t37 -15t15 -36zM-24 627q0 -21 -14.5 -35.5t-36.5 -14.5t-36.5 14.5t-14.5 35.5t14.5 36t36.5 15q21 0 36 -15t15 -36z" />
    <glyph glyph-name="ringcmb" unicode="&#x30a;" horiz-adv-x="0" 
d="M-96 618q0 45 32 76t79 31q35 0 58.5 -24t23.5 -59q0 -45 -32 -76t-78 -31q-35 0 -59 24t-24 59zM65 641q0 23 -15 37.5t-38 14.5q-32 0 -53.5 -21t-21.5 -53q0 -23 14.5 -38t38.5 -15q32 0 53.5 21.5t21.5 53.5z" />
    <glyph glyph-name="hungarumlautcmb" unicode="&#x30b;" horiz-adv-x="0" 
d="M-42 755h82l-214 -263zM93 755h82l-214 -263z" />
    <glyph glyph-name="caroncmb" unicode="&#x30c;" horiz-adv-x="0" 
d="M-94 782l28 -190l183 190l-177 -261h-58z" />
    <glyph glyph-name="commaturncmb" unicode="&#x312;" horiz-adv-x="0" 
d="M36 597q0 -24 -18 -41.5t-45 -17.5q-28 0 -44.5 17t-16.5 46q0 50 52 90.5t124 40.5q-52 -23 -83.5 -49.5t-45.5 -59.5h65q5 -3 8.5 -10t3.5 -16z" />
    <glyph glyph-name="commaaboverightcmb" unicode="&#x315;" horiz-adv-x="0" 
d="M26 770h87l-225 -263z" />
    <glyph glyph-name="commaaccentcmb" unicode="&#x326;" horiz-adv-x="0" 
d="M-36 -130q0 24 18 41.5t45 17.5q28 0 44.5 -17t16.5 -46q0 -50 -52 -90.5t-124 -40.5q52 23 83.5 49.5t45.5 59.5h-65q-5 3 -8.5 10t-3.5 16z" />
    <glyph glyph-name="cedillacmb" unicode="&#x327;" horiz-adv-x="0" 
d="M109 -132q0 -50 -57 -92.5t-112 -42.5q-22 0 -35 10t-13 27q0 18 16 30t38 11l19 -57q35 6 63 32t28 56q0 20 -15.5 33.5t-49.5 22.5l86 120l-22 -84q26 -12 40 -29t14 -37z" />
    <glyph glyph-name="ogonekcmb" unicode="&#x328;" horiz-adv-x="0" 
d="M-102 -198q0 49 57 113t141 112l5 -12q-63 -41 -105.5 -93.5t-42.5 -90.5q0 -26 16.5 -38.5t49.5 -12.5h40q-26 -24 -48 -35t-46 -11q-30 0 -48.5 18.5t-18.5 49.5z" />
    <glyph glyph-name="baht" unicode="&#xe3f;" horiz-adv-x="631" 
d="M190 651l15 39h259h18t11 -1l46 121h37l-48 -125q69 -11 106.5 -45t37.5 -85q0 -73 -71.5 -128.5t-179.5 -70.5q70 -4 117 -40.5t47 -93.5q0 -89 -91.5 -151.5t-228.5 -69.5l-49 -127h-36l48 126h-288l15 39h105l234 612h-104zM450 651h-79l-106 -277h78h18t11 1l106 275
q-5 1 -10.5 1h-17.5zM590 551q0 36 -19.5 59.5t-58.5 33.5l-101 -263q82 16 130.5 61t48.5 109zM250 336l-113 -297h106l114 297h-4h-103zM503 227q0 45 -28.5 72t-81.5 34l-113 -293q102 8 162.5 58t60.5 129z" />
    <glyph glyph-name="Wgrave" unicode="&#x1e80;" horiz-adv-x="1008" 
d="M786 651h-126l-60 -520l412 520h-124l15 39h266l-16 -39h-84l-554 -689l51 473l-375 -473l76 689h-85l16 39h603zM589 651h-249l-62 -518l295 369zM732 739l-221 122l99 35z" />
    <glyph glyph-name="wgrave" unicode="&#x1e81;" horiz-adv-x="601" 
d="M406 458l-84 -419q62 41 136 145.5t94 181.5h-79q15 39 39 65.5t49 26.5q21 0 32 -15t11 -41q0 -47 -34.5 -114.5t-92.5 -136.5q-55 -64 -114 -109t-111 -62l43 215q-59 -80 -123.5 -137t-120.5 -78l70 386h-82q22 34 72.5 63t91.5 29l-81 -411q37 26 92 88t94 122
l22 109h-83q22 34 71 63t88 29zM395 492l-92 263h80z" />
    <glyph glyph-name="Wacute" unicode="&#x1e82;" horiz-adv-x="1008" 
d="M786 651h-126l-60 -520l412 520h-124l15 39h266l-16 -39h-84l-554 -689l51 473l-375 -473l76 689h-85l16 39h603zM589 651h-249l-62 -518l295 369zM830 896l76 -47l-309 -110z" />
    <glyph glyph-name="wacute" unicode="&#x1e83;" horiz-adv-x="601" 
d="M406 458l-84 -419q62 41 136 145.5t94 181.5h-79q15 39 39 65.5t49 26.5q21 0 32 -15t11 -41q0 -47 -34.5 -114.5t-92.5 -136.5q-55 -64 -114 -109t-111 -62l43 215q-59 -80 -123.5 -137t-120.5 -78l70 386h-82q22 34 72.5 63t91.5 29l-81 -411q37 26 92 88t94 122
l22 109h-83q22 34 71 63t88 29zM542 755h91l-260 -263z" />
    <glyph glyph-name="Wdieresis" unicode="&#x1e84;" horiz-adv-x="1008" 
d="M786 651h-126l-60 -520l412 520h-124l15 39h266l-16 -39h-84l-554 -689l51 473l-375 -473l76 689h-85l16 39h603zM589 651h-249l-62 -518l295 369zM859 809q0 -21 -15 -35.5t-37 -14.5t-36.5 14.5t-14.5 35.5q0 22 14.5 36.5t36.5 14.5t37 -15t15 -36zM666 809
q0 -21 -15 -35.5t-37 -14.5t-36.5 14.5t-14.5 35.5t14.5 36t36.5 15t37 -15t15 -36z" />
    <glyph glyph-name="wdieresis" unicode="&#x1e85;" horiz-adv-x="601" 
d="M406 458l-84 -419q62 41 136 145.5t94 181.5h-79q15 39 39 65.5t49 26.5q21 0 32 -15t11 -41q0 -47 -34.5 -114.5t-92.5 -136.5q-55 -64 -114 -109t-111 -62l43 215q-59 -80 -123.5 -137t-120.5 -78l70 386h-82q22 34 72.5 63t91.5 29l-81 -411q37 26 92 88t94 122
l22 109h-83q22 34 71 63t88 29zM527 627q0 -21 -15 -35.5t-37 -14.5t-36.5 14.5t-14.5 35.5t14.5 36t36.5 15t37 -15t15 -36zM377 627q0 -21 -14.5 -35.5t-36.5 -14.5t-36.5 14.5t-14.5 35.5t14.5 36t36.5 15q21 0 36 -15t15 -36z" />
    <glyph glyph-name="Germandbls" unicode="&#x1e9e;" horiz-adv-x="728" 
d="M-182 -90l148 -48l219 565q53 137 142.5 205t215.5 68q45 0 94 -13.5t90 -35.5l113 31l-304 -250q72 -18 116 -68t44 -117q0 -50 -24 -99.5t-67 -86.5q-40 -35 -90 -53t-107 -18q-59 0 -110.5 22.5t-76.5 58.5l38 142q4 -81 51.5 -131.5t115.5 -50.5q87 0 141.5 55
t54.5 141q0 61 -51 105t-139 60l230 190q-14 36 -54.5 57.5t-92.5 21.5q-85 0 -147.5 -58.5t-107.5 -181.5l-147 -392q-34 -91 -107.5 -159t-144.5 -68q-27 0 -42.5 15.5t-15.5 41.5q0 12 4 25t11 26z" />
    <glyph glyph-name="Ygrave" unicode="&#x1ef2;" horiz-adv-x="765" 
d="M472 345l-117 -306h118l-15 -39h-317l15 39h118l120 314q26 138 2.5 211t-96.5 73q-43 0 -80 -20.5t-75 -66.5q27 70 79.5 110t116.5 40q88 0 121.5 -89t2.5 -219q63 134 164 221t197 87q35 0 54 -14t19 -39q0 -18 -11 -37t-31 -35l-94 70q-75 -22 -156 -107t-135 -193z
M627 739l-221 122l99 35z" />
    <glyph glyph-name="ygrave" unicode="&#x1ef3;" horiz-adv-x="407" 
d="M179 458l-18 -461q67 85 115 178t76 191h-80q14 38 38.5 65t49.5 27q21 0 32 -14.5t11 -41.5q0 -63 -57.5 -175.5t-150.5 -231.5q-101 -130 -196 -207.5t-156 -77.5q-25 0 -39 12.5t-14 35.5q0 10 2 20.5t7 20.5l126 -22q44 29 88 66t86 82l11 441h-82q21 34 65 61.5
t86 30.5zM284 492l-92 263h80z" />
    <glyph glyph-name="thinspace" unicode="&#x2009;" horiz-adv-x="80" 
 />
    <glyph glyph-name="endash" unicode="&#x2013;" horiz-adv-x="643" 
d="M74 229l29 42h487l-29 -42h-487z" />
    <glyph glyph-name="emdash" unicode="&#x2014;" horiz-adv-x="1033" 
d="M74 229l29 42h877l-29 -42h-877z" />
    <glyph glyph-name="quoteleft" unicode="&#x2018;" horiz-adv-x="240" 
d="M305 527q0 -24 -18 -41.5t-43 -17.5q-27 0 -44.5 20t-17.5 51q0 71 61 127.5t149 67.5q-76 -40 -116.5 -86.5t-40.5 -94.5h57q6 -3 9.5 -10.5t3.5 -15.5z" />
    <glyph glyph-name="quoteright" unicode="&#x2019;" horiz-adv-x="241" 
d="M221 666q0 24 18 41.5t43 17.5q27 0 44.5 -20t17.5 -51q0 -71 -61 -127.5t-149 -67.5q76 40 116.5 86.5t40.5 94.5h-57q-6 3 -9.5 10.5t-3.5 15.5z" />
    <glyph glyph-name="quotesinglbase" unicode="&#x201a;" horiz-adv-x="240" 
d="M-9 66q0 24 18 41.5t43 17.5q27 0 44.5 -20t17.5 -51q0 -71 -61 -127.5t-149 -67.5q76 40 116.5 86.5t40.5 94.5h-57q-6 3 -9.5 10.5t-3.5 15.5z" />
    <glyph glyph-name="quotedblleft" unicode="&#x201c;" horiz-adv-x="417" 
d="M482 527q0 -24 -18 -41.5t-43 -17.5q-27 0 -44.5 20t-17.5 51q0 71 61 127.5t149 67.5q-76 -40 -116.5 -86.5t-40.5 -94.5h57q6 -3 9.5 -10.5t3.5 -15.5zM305 527q0 -24 -18 -41.5t-43 -17.5q-27 0 -44.5 20t-17.5 51q0 71 61 127.5t149 67.5q-76 -40 -116.5 -86.5
t-40.5 -94.5h57q6 -3 9.5 -10.5t3.5 -15.5z" />
    <glyph glyph-name="quotedblright" unicode="&#x201d;" horiz-adv-x="417" 
d="M398 666q0 24 18 41.5t43 17.5q27 0 44.5 -20t17.5 -51q0 -71 -61 -127.5t-149 -67.5q76 40 116.5 86.5t40.5 94.5h-57q-6 3 -9.5 10.5t-3.5 15.5zM221 666q0 24 18 41.5t43 17.5q27 0 44.5 -20t17.5 -51q0 -71 -61 -127.5t-149 -67.5q76 40 116.5 86.5t40.5 94.5h-57
q-6 3 -9.5 10.5t-3.5 15.5z" />
    <glyph glyph-name="quotedblbase" unicode="&#x201e;" horiz-adv-x="417" 
d="M167 66q0 24 18 41.5t43 17.5q27 0 44.5 -20t17.5 -51q0 -71 -61 -127.5t-149 -67.5q76 40 116.5 86.5t40.5 94.5h-57q-6 3 -9.5 10.5t-3.5 15.5zM-9 66q0 24 18 41.5t43 17.5q27 0 44.5 -20t17.5 -51q0 -71 -61 -127.5t-149 -67.5q76 40 116.5 86.5t40.5 94.5h-57
q-6 3 -9.5 10.5t-3.5 15.5z" />
    <glyph glyph-name="dagger" unicode="&#x2020;" horiz-adv-x="484" 
d="M423 645h129l-15 -38h-129l-107 -279h-39l107 279h-129l15 38h129l48 125h39z" />
    <glyph glyph-name="daggerdbl" unicode="&#x2021;" horiz-adv-x="483" 
d="M364 491h128l-14 -38h-129l-48 -125h-39l48 125h-129l14 38h130l44 116h-129l15 38h129l48 125h39l-48 -125h129l-15 -38h-129z" />
    <glyph glyph-name="bullet" unicode="&#x2022;" horiz-adv-x="427" 
d="M99 272q0 55 39 94t94 39t94 -39t39 -94t-39 -94t-94 -39t-94 39t-39 94z" />
    <glyph glyph-name="ellipsis" unicode="&#x2026;" horiz-adv-x="689" 
d="M497 112q25 0 42.5 -17.5t17.5 -43.5q0 -25 -17.5 -42t-42.5 -17t-42.5 17.5t-17.5 41.5q0 25 17.5 43t42.5 18zM278 112q25 0 42.5 -17.5t17.5 -43.5q0 -25 -17.5 -42t-42.5 -17t-42.5 17.5t-17.5 41.5q0 25 17.5 43t42.5 18zM59 112q25 0 42.5 -17.5t17.5 -43.5
q0 -25 -17.5 -42t-42.5 -17t-42.5 17.5t-17.5 41.5q0 25 17.5 43t42.5 18z" />
    <glyph glyph-name="guilsinglleft" unicode="&#x2039;" horiz-adv-x="305" 
d="M177 27l-125 199l279 198l-189 -210z" />
    <glyph glyph-name="guilsinglright" unicode="&#x203a;" horiz-adv-x="305" 
d="M129 424l125 -199l-279 -198l189 210z" />
    <glyph glyph-name="fraction" unicode="&#x2044;" horiz-adv-x="166" 
d="M450 690h74l-684 -643l-31 -47h-75l684 643z" />
    <glyph glyph-name="uni2070" unicode="&#x2070;" horiz-adv-x="367" 
d="M357 698q41 0 66 -33t25 -87q0 -101 -72 -191t-156 -90q-42 0 -66.5 32.5t-24.5 86.5q0 102 72 192t156 90zM343 442q21 44 33.5 89.5t12.5 79.5q0 30 -10.5 47t-28.5 17q-27 0 -58 -33t-58 -90q-21 -44 -33 -89t-12 -79q0 -31 9.5 -47.5t28.5 -16.5q27 0 58 33t58 89z
" />
    <glyph glyph-name="uni2074" unicode="&#x2074;" horiz-adv-x="382" 
d="M359 333l-11 -30h-173l11 30h56l33 85h-187l354 278l-93 -245h109l-41 -33h-81l-33 -85h56zM172 451h115l51 131z" />
    <glyph glyph-name="uni2075" unicode="&#x2075;" horiz-adv-x="307" 
d="M262 628l-35 -69q64 1 100.5 -25t36.5 -72q0 -67 -64.5 -115.5t-148.5 -48.5q-28 0 -45 10.5t-17 28.5q0 16 11 30t28 18l44 -66q61 9 96 40t35 77q0 41 -33.5 59.5t-95.5 11.5l96 183h166l-48 -62h-126z" />
    <glyph glyph-name="uni2076" unicode="&#x2076;" horiz-adv-x="343" 
d="M389 455q0 -62 -50 -110t-111 -48q-49 0 -79 31.5t-30 80.5q0 56 36 113t98 99q54 37 117 56t130 19q-98 -29 -169.5 -76.5t-110.5 -107.5h12q21 15 38.5 21.5t37.5 6.5q37 0 59 -23.5t22 -61.5zM208 492q-14 -26 -21.5 -53.5t-7.5 -54.5q0 -31 12.5 -48t36.5 -17
q38 0 68.5 37.5t30.5 84.5q0 31 -17.5 48.5t-48.5 17.5q-13 0 -26.5 -4t-26.5 -11z" />
    <glyph glyph-name="uni2077" unicode="&#x2077;" horiz-adv-x="325" 
d="M496 690l-325 -387h-50l290 325h-231l58 62h258z" />
    <glyph glyph-name="uni2078" unicode="&#x2078;" horiz-adv-x="337" 
d="M389 424q0 -49 -48 -88t-110 -39q-48 0 -82 25t-34 62t31 65.5t86 42.5v15q-20 18 -28.5 34t-8.5 33q0 48 41 85t98 37q44 0 75 -23t31 -58q0 -34 -24.5 -57.5t-76.5 -38.5v-17q27 -21 38.5 -39.5t11.5 -38.5zM331 672q-34 0 -57 -21t-23 -51q0 -17 11 -33t55 -49
q35 19 54.5 44.5t19.5 53.5q0 27 -15.5 41.5t-44.5 14.5zM252 491q-40 -20 -61.5 -48t-21.5 -61q0 -29 18 -46t48 -17q37 0 64.5 24.5t27.5 57.5q0 18 -11.5 34.5t-63.5 55.5z" />
    <glyph glyph-name="uni2079" unicode="&#x2079;" horiz-adv-x="342" 
d="M434 587q0 -56 -36 -113.5t-98 -100.5q-53 -36 -116.5 -55.5t-130.5 -19.5q97 28 169.5 76t111.5 110h-13q-21 -15 -38.5 -21.5t-37.5 -6.5q-37 0 -59 23.5t-22 61.5q0 61 50.5 109.5t110.5 48.5q49 0 79 -31.5t30 -80.5zM325 677q-39 0 -69 -37.5t-30 -85.5
q0 -30 17.5 -47.5t48.5 -17.5q13 0 26.5 4t27.5 11q14 27 21 54.5t7 53.5q0 31 -13 48t-36 17z" />
    <glyph glyph-name="uni2080" unicode="&#x2080;" horiz-adv-x="367" 
d="M184 249q41 0 66 -33t25 -87q0 -101 -72 -191t-156 -90q-42 0 -66.5 32.5t-24.5 86.5q0 102 72 192t156 90zM170 -7q21 44 33.5 89.5t12.5 79.5q0 30 -10.5 47t-28.5 17q-27 0 -58 -33t-58 -90q-21 -44 -33 -89t-12 -79q0 -31 9.5 -47.5t28.5 -16.5q27 0 58 33t58 89z
" />
    <glyph glyph-name="uni2081" unicode="&#x2081;" horiz-adv-x="304" 
d="M-3 -116l106 277h-104l204 88l-140 -365h75l-11 -30h-217l11 30h76z" />
    <glyph glyph-name="uni2082" unicode="&#x2082;" horiz-adv-x="323" 
d="M193 -87l-65 -59h-252q197 138 249 191t52 96q0 23 -15 36t-41 13q-32 0 -62 -15t-69 -52q33 60 78.5 92t96.5 32q37 0 59 -20t22 -52q0 -53 -52.5 -110.5t-188.5 -142.5v-9h188z" />
    <glyph glyph-name="uni2083" unicode="&#x2083;" horiz-adv-x="303" 
d="M-53 -64l46 -65q55 5 89 33t34 70q0 35 -29.5 53t-85.5 18q83 35 114 61t31 57q0 16 -11 25t-31 9q-24 0 -52 -13t-53 -35q24 43 66 70.5t86 27.5q31 0 49.5 -15.5t18.5 -39.5q0 -36 -32 -66t-87 -47v-8q39 -7 60 -26t21 -48q0 -60 -63 -104.5t-145 -44.5q-29 0 -46.5 11
t-17.5 29q0 16 11 30t27 18z" />
    <glyph glyph-name="uni2084" unicode="&#x2084;" horiz-adv-x="382" 
d="M186 -116l-11 -30h-173l11 30h56l33 85h-187l354 278l-93 -245h109l-41 -33h-81l-33 -85h56zM-1 2h115l51 131z" />
    <glyph glyph-name="uni2085" unicode="&#x2085;" horiz-adv-x="307" 
d="M89 179l-35 -69q64 1 100.5 -25t36.5 -72q0 -67 -64.5 -115.5t-148.5 -48.5q-28 0 -45 10.5t-17 28.5q0 16 11 30t28 18l44 -66q61 9 96 40t35 77q0 41 -33.5 59.5t-95.5 11.5l96 183h166l-48 -62h-126z" />
    <glyph glyph-name="uni2086" unicode="&#x2086;" horiz-adv-x="343" 
d="M216 6q0 -62 -50 -110t-111 -48q-49 0 -79 31.5t-30 80.5q0 56 36 113t98 99q54 37 117 56t130 19q-98 -29 -169.5 -76.5t-110.5 -107.5h12q21 15 38.5 21.5t37.5 6.5q37 0 59 -23.5t22 -61.5zM35 43q-14 -26 -21.5 -53.5t-7.5 -54.5q0 -31 12.5 -48t36.5 -17
q38 0 68.5 37.5t30.5 84.5q0 31 -17.5 48.5t-48.5 17.5q-13 0 -26.5 -4t-26.5 -11z" />
    <glyph glyph-name="uni2087" unicode="&#x2087;" horiz-adv-x="325" 
d="M323 241l-325 -387h-50l290 325h-231l58 62h258z" />
    <glyph glyph-name="uni2088" unicode="&#x2088;" horiz-adv-x="337" 
d="M216 -25q0 -49 -48 -88t-110 -39q-48 0 -82 25t-34 62t31 65.5t86 42.5v15q-20 18 -28.5 34t-8.5 33q0 48 41 85t98 37q44 0 75 -23t31 -58q0 -34 -24.5 -57.5t-76.5 -38.5v-17q27 -21 38.5 -39.5t11.5 -38.5zM158 223q-34 0 -57 -21t-23 -51q0 -17 11 -33t55 -49
q35 19 54.5 44.5t19.5 53.5q0 27 -15.5 41.5t-44.5 14.5zM79 42q-40 -20 -61.5 -48t-21.5 -61q0 -29 18 -46t48 -17q37 0 64.5 24.5t27.5 57.5q0 18 -11.5 34.5t-63.5 55.5z" />
    <glyph glyph-name="uni2089" unicode="&#x2089;" horiz-adv-x="342" 
d="M261 138q0 -56 -36 -113.5t-98 -100.5q-53 -36 -116.5 -55.5t-130.5 -19.5q97 28 169.5 76t111.5 110h-13q-21 -15 -38.5 -21.5t-37.5 -6.5q-37 0 -59 23.5t-22 61.5q0 61 50.5 109.5t110.5 48.5q49 0 79 -31.5t30 -80.5zM152 228q-39 0 -69 -37.5t-30 -85.5
q0 -30 17.5 -47.5t48.5 -17.5q13 0 26.5 4t27.5 11q14 27 21 54.5t7 53.5q0 31 -13 48t-36 17z" />
    <glyph glyph-name="franc" unicode="&#x20a3;" horiz-adv-x="603" 
d="M182 268h-105l14 36h105l33 87h-105l14 36h105l86 224h-105l15 39h436l65 29l-79 -206l-39 138h-217l-86 -224h236l-27 -36h-222l-34 -87h205l-28 -36h-191l-87 -229h134l-15 -39h-316l15 39h105z" />
    <glyph glyph-name="naira" unicode="&#x20a6;" horiz-adv-x="780" 
d="M199 274h-104l13 36h105l33 87h-104l14 36h104l45 116l-63 141h76l226 -523l186 484h-105l15 39h257l-15 -39h-105l-84 -218h107l-14 -36h-107l-33 -87h107l-14 -36h-107l-64 -164l48 -110h-68l-218 493l-174 -454h105l-16 -39h-256l15 39h105z" />
    <glyph glyph-name="peseta" unicode="&#x20a7;" horiz-adv-x="696" 
d="M256 462h-105l14 37h106l58 152h-105l15 39h221q104 0 170 -47t66 -119q0 -5 -0.5 -10l-1.5 -15h87l-14 -37h-81q-26 -76 -110 -126t-178 -50l-58 33q101 0 172.5 38.5t96.5 104.5h-276l-162 -423h131l-15 -39h-313l15 39h105zM445 651h-40l-58 -152h270q1 11 1.5 15
t0.5 8q0 60 -47 94.5t-127 34.5z" />
    <glyph glyph-name="won" unicode="&#x20a9;" horiz-adv-x="910" 
d="M239 418h-118l13 36h109l23 197h-82l15 39h524l-14 -39h-108l-23 -197h196l143 197h-120l15 39h256l-15 -39h-81l-147 -197h128l-14 -36h-141l-339 -456l46 420l-318 -420zM535 651h-201l-24 -197h203zM306 418l-35 -288l218 288h-183zM574 418l-33 -286l207 286h-174z
" />
    <glyph glyph-name="dong" unicode="&#x20ab;" horiz-adv-x="529" 
d="M467 579h-166l14 36h167l38 95l75 26l-48 -121h88l-14 -36h-88l-190 -483l157 78q-35 -51 -88 -88t-94 -37q-23 0 -32.5 17t0.5 43l43 107h-12q-57 -80 -111.5 -126.5t-92.5 -46.5q-24 0 -40 24t-16 62q0 56 22.5 119.5t61.5 119.5q46 65 100.5 102t106.5 37
q23 0 42.5 -7.5t35.5 -21.5zM314 478q-74 -46 -134 -166.5t-61 -227.5q37 0 112 67t118 134l53 131q-13 27 -36.5 44t-51.5 18zM370 -91h-386l14 37h387z" />
    <glyph glyph-name="Euro" unicode="&#x20ac;" horiz-adv-x="582" 
d="M127 268h-85l14 36h78q5 22 12 43.5t15 43.5h-72l14 36h73q57 122 148 197.5t187 75.5q34 0 63 -15t50 -43l83 58l-83 -215q-8 88 -38 131.5t-82 43.5q-76 0 -147 -64t-115 -169h236l-27 -36h-223q-7 -19 -12.5 -40.5t-9.5 -46.5h194l-28 -36h-171q-2 -12 -2.5 -24.5
t-0.5 -24.5q0 -79 34.5 -121.5t100.5 -42.5q53 0 107.5 32t107.5 94q-41 -90 -109 -140.5t-146 -50.5q-77 0 -124 57.5t-47 151.5q0 16 1 32.5t4 36.5z" />
    <glyph glyph-name="peso" unicode="&#x20b1;" horiz-adv-x="700" 
d="M234 405h-104l14 36h104l34 87h-105l14 36h105l33 87h-105l15 39h221q88 0 150 -34.5t80 -91.5h113l-15 -36h-92v-4q0 -22 -5 -42.5t-14 -40.5h78l-14 -36h-86q-40 -54 -111.5 -86.5t-145.5 -32.5l-58 33q77 0 138 22.5t98 63.5h-267l-140 -366h133l-15 -39h-313l15 39
h105zM447 651h-44l-33 -87h245q-15 41 -59.5 64t-108.5 23zM622 522v3.5v2.5h-266l-33 -87h279q10 19 15 39.5t5 41.5z" />
    <glyph glyph-name="uni20B9" unicode="&#x20b9;" horiz-adv-x="579" 
d="M450 0h-86l-169 331h-118l13 36h145q102 0 168 45t66 119h-316l15 36h298q-9 43 -45 65t-97 22h-123l14 36h504l-32 -36h-218q29 -13 49 -36t27 -51h127l-33 -36h-90q-4 -78 -80.5 -131.5t-192.5 -65.5z" />
    <glyph glyph-name="uni20BA" unicode="&#x20ba;" horiz-adv-x="649" 
d="M268 292l-97 -253h79q124 0 198 59.5t115 190.5h82q-44 -142 -146 -215.5t-256 -73.5h-269l15 39h105l86 225l-125 -51l18 42l124 51l40 105l-125 -51l17 42l124 51l76 198h-105l15 39h287l-15 -39h-106l-65 -170l214 87l-16 -43l-214 -87l-40 -103l213 86l-16 -43z" />
    <glyph glyph-name="uni20BD" unicode="&#x20bd;" horiz-adv-x="658" 
d="M162 215h-105l14 37h105l33 86h-105l14 37h105l106 276h-105l15 39h264q103 0 160 -36t57 -102q0 -97 -96 -155.5t-245 -58.5h-94l-33 -86h247l-14 -37h-247l-67 -176h131l-15 -39h-313l15 39h105zM487 651h-82l-106 -276h80q113 0 184 48t71 127q0 51 -36.5 76
t-110.5 25z" />
    <glyph glyph-name="trademark" unicode="&#x2122;" horiz-adv-x="908" 
d="M255 703l19 -13h252l29 13l-45 -115l-23 74h-72l-97 -255h62l-11 -28h-178l11 28h61l98 255h-70l-81 -74zM765 407h51l76 258l-225 -305l12 305l-123 -258h51l-11 -28h-124l11 28h40l120 254h-42l11 29h120l-11 -213l153 213h124l-11 -29h-42l-75 -254h40l-11 -28h-145z
" />
    <glyph glyph-name="uni2153" unicode="&#x2153;" horiz-adv-x="796" 
d="M780 690h74l-684 -643l-31 -47h-75l684 643zM171 333l106 277h-104l204 88l-140 -365h75l-11 -30h-217l11 30h76zM496 82l46 -65q55 5 89 33t34 70q0 35 -29.5 53t-85.5 18q83 35 114 61t31 57q0 16 -11 25t-31 9q-24 0 -52 -13t-53 -35q24 43 66 70.5t86 27.5
q31 0 49.5 -15.5t18.5 -39.5q0 -36 -32 -66t-87 -47v-8q39 -7 60 -26t21 -48q0 -60 -63 -104.5t-145 -44.5q-29 0 -46.5 11t-17.5 29q0 16 11 30t27 18z" />
    <glyph glyph-name="uni2154" unicode="&#x2154;" horiz-adv-x="849" 
d="M833 690h74l-684 -643l-31 -47h-75l684 643zM549 82l46 -65q55 5 89 33t34 70q0 35 -29.5 53t-85.5 18q83 35 114 61t31 57q0 16 -11 25t-31 9q-24 0 -52 -13t-53 -35q24 43 66 70.5t86 27.5q31 0 49.5 -15.5t18.5 -39.5q0 -36 -32 -66t-87 -47v-8q39 -7 60 -26t21 -48
q0 -60 -63 -104.5t-145 -44.5q-29 0 -46.5 11t-17.5 29q0 16 11 30t27 18zM391 362l-65 -59h-252q197 138 249 191t52 96q0 23 -15 36t-41 13q-32 0 -62 -15t-69 -52q33 60 78.5 92t96.5 32q37 0 59 -20t22 -52q0 -53 -52.5 -110.5t-188.5 -142.5v-9h188z" />
    <glyph glyph-name="uni215B" unicode="&#x215b;" horiz-adv-x="809" 
d="M743 121q0 -49 -48 -88t-110 -39q-48 0 -82 25t-34 62t31 65.5t86 42.5v15q-20 18 -28.5 34t-8.5 33q0 48 41 85t98 37q44 0 75 -23t31 -58q0 -34 -24.5 -57.5t-76.5 -38.5v-17q27 -21 38.5 -39.5t11.5 -38.5zM685 369q-34 0 -57 -21t-23 -51q0 -17 11 -33t55 -49
q35 19 54.5 44.5t19.5 53.5q0 27 -15.5 41.5t-44.5 14.5zM606 188q-40 -20 -61.5 -48t-21.5 -61q0 -29 18 -46t48 -17q37 0 64.5 24.5t27.5 57.5q0 18 -11.5 34.5t-63.5 55.5zM780 690h74l-684 -643l-31 -47h-75l684 643zM171 333l106 277h-104l204 88l-140 -365h75l-11 -30
h-217l11 30h76z" />
    <glyph glyph-name="uni215C" unicode="&#x215c;" horiz-adv-x="823" 
d="M758 121q0 -49 -48 -88t-110 -39q-48 0 -82 25t-34 62t31 65.5t86 42.5v15q-20 18 -28.5 34t-8.5 33q0 48 41 85t98 37q44 0 75 -23t31 -58q0 -34 -24.5 -57.5t-76.5 -38.5v-17q27 -21 38.5 -39.5t11.5 -38.5zM700 369q-34 0 -57 -21t-23 -51q0 -17 11 -33t55 -49
q35 19 54.5 44.5t19.5 53.5q0 27 -15.5 41.5t-44.5 14.5zM621 188q-40 -20 -61.5 -48t-21.5 -61q0 -29 18 -46t48 -17q37 0 64.5 24.5t27.5 57.5q0 18 -11.5 34.5t-63.5 55.5zM788 690h74l-684 -643l-31 -47h-75l684 643zM145 385l46 -65q55 5 89 33t34 70q0 35 -29.5 53
t-85.5 18q83 35 114 61t31 57q0 16 -11 25t-31 9q-24 0 -52 -13t-53 -35q24 43 66 70.5t86 27.5q31 0 49.5 -15.5t18.5 -39.5q0 -36 -32 -66t-87 -47v-8q39 -7 60 -26t21 -48q0 -60 -63 -104.5t-145 -44.5q-29 0 -46.5 11t-17.5 29q0 16 11 30t27 18z" />
    <glyph glyph-name="uni215D" unicode="&#x215d;" horiz-adv-x="811" 
d="M782 690h74l-684 -643l-31 -47h-75l684 643zM745 121q0 -49 -48 -88t-110 -39q-48 0 -82 25t-34 62t31 65.5t86 42.5v15q-20 18 -28.5 34t-8.5 33q0 48 41 85t98 37q44 0 75 -23t31 -58q0 -34 -24.5 -57.5t-76.5 -38.5v-17q27 -21 38.5 -39.5t11.5 -38.5zM687 369
q-34 0 -57 -21t-23 -51q0 -17 11 -33t55 -49q35 19 54.5 44.5t19.5 53.5q0 27 -15.5 41.5t-44.5 14.5zM608 188q-40 -20 -61.5 -48t-21.5 -61q0 -29 18 -46t48 -17q37 0 64.5 24.5t27.5 57.5q0 18 -11.5 34.5t-63.5 55.5zM287 628l-35 -69q64 1 100.5 -25t36.5 -72
q0 -67 -64.5 -115.5t-148.5 -48.5q-28 0 -45 10.5t-17 28.5q0 16 11 30t28 18l44 -66q61 9 96 40t35 77q0 41 -33.5 59.5t-95.5 11.5l96 183h166l-48 -62h-126z" />
    <glyph glyph-name="uni215E" unicode="&#x215e;" horiz-adv-x="748" 
d="M683 121q0 -49 -48 -88t-110 -39q-48 0 -82 25t-34 62t31 65.5t86 42.5v15q-20 18 -28.5 34t-8.5 33q0 48 41 85t98 37q44 0 75 -23t31 -58q0 -34 -24.5 -57.5t-76.5 -38.5v-17q27 -21 38.5 -39.5t11.5 -38.5zM625 369q-34 0 -57 -21t-23 -51q0 -17 11 -33t55 -49
q35 19 54.5 44.5t19.5 53.5q0 27 -15.5 41.5t-44.5 14.5zM546 188q-40 -20 -61.5 -48t-21.5 -61q0 -29 18 -46t48 -17q37 0 64.5 24.5t27.5 57.5q0 18 -11.5 34.5t-63.5 55.5zM720 690h74l-684 -643l-31 -47h-75l684 643zM496 690l-325 -387h-50l290 325h-231l58 62h258z
" />
    <glyph glyph-name="arrowleft" unicode="&#x2190;" horiz-adv-x="886" 
d="M842 267h-591l165 -253l-332 273l332 273l-165 -253h591v-40z" />
    <glyph glyph-name="arrowup" unicode="&#x2191;" horiz-adv-x="666" 
d="M470 -103v591l-253 -165l273 332l273 -332l-253 165v-591h-40z" />
    <glyph glyph-name="arrowright" unicode="&#x2192;" horiz-adv-x="886" 
d="M92 307h591l-165 253l332 -273l-332 -273l165 253h-591v40z" />
    <glyph glyph-name="arrowdown" unicode="&#x2193;" horiz-adv-x="666" 
d="M468 811v-591l253 165l-273 -332l-273 332l253 -165v591h40z" />
    <glyph glyph-name="minus" unicode="&#x2212;" horiz-adv-x="601" 
d="M591 317h-512l18 45h512z" />
    <glyph glyph-name="commaaccent" unicode="&#xf6c3;" horiz-adv-x="500" 
d="M52 -130q0 24 18 41.5t45 17.5q28 0 44.5 -17t16.5 -46q0 -50 -52 -90.5t-124 -40.5q52 23 83.5 49.5t45.5 59.5h-65q-5 3 -8.5 10t-3.5 16z" />
    <glyph glyph-name="s_t" unicode="&#xfb06;" horiz-adv-x="586" 
d="M432 392h-76l26 43h70l90 107q1 58 -35.5 92.5t-98.5 34.5q-68 0 -118 -45.5t-71 -124.5q-2 99 57.5 166t151.5 67q85 0 121 -59t6 -141l-37 -97h106l-27 -43h-95l-132 -349l174 82q-37 -50 -96.5 -89.5t-101.5 -39.5q-25 0 -34.5 17t0.5 43zM129 346q0 -18 8 -38t35 -58
q26 -37 34 -56t8 -36q0 -57 -61 -112.5t-118 -55.5q-31 0 -42.5 24t1.5 63l140 -23q11 10 19 27t8 33q0 20 -8.5 40.5t-34.5 57.5q-26 36 -33.5 55t-7.5 37q0 53 57 103.5t114 50.5q44 0 45 -31t-31 -56l-99 38q-15 -11 -24.5 -28.5t-9.5 -34.5z" />
    <glyph glyph-name="idotaccent" horiz-adv-x="273" 
d="M319 642q0 -22 -15.5 -37.5t-38.5 -15.5t-38.5 15.5t-15.5 37.5t16 37.5t38 15.5t38 -15.5t16 -37.5zM65 -4q-25 0 -35 17t0 43l119 310h-79q23 40 77.5 66.5t103.5 26.5l-160 -416l157 78q-35 -50 -88.5 -87.5t-94.5 -37.5z" />
    <glyph glyph-name="A.sc" horiz-adv-x="613" 
d="M284 36h97l11 162h-190l-139 -162h98l-14 -36h-213l14 36h65l469 546l-27 -546h65l-13 -36h-237zM395 234l14 204l-176 -204h162z" />
    <glyph glyph-name="B.sc" horiz-adv-x="573" 
d="M163 514l14 36h210q78 0 122 -28.5t44 -78.5q0 -58 -53.5 -100t-138.5 -54q57 -4 95 -33.5t38 -74.5q0 -76 -82.5 -128.5t-201.5 -52.5h-245l14 36h81l184 478h-81zM366 514h-44l-82 -213h46q77 0 131.5 38.5t54.5 100.5q0 36 -27 55t-79 19zM227 267l-89 -231h75
q84 0 141 42t57 109q0 39 -29.5 59.5t-84.5 20.5h-70z" />
    <glyph glyph-name="C.sc" horiz-adv-x="555" 
d="M295 50q52 0 98 23.5t93 74.5q-31 -75 -92.5 -116.5t-137.5 -41.5q-84 0 -138 57t-54 145q0 67 26 133t73 119q49 55 112 85.5t129 30.5q39 0 71 -12.5t56 -36.5l73 46l-69 -186q-13 77 -47 114.5t-90 37.5q-100 0 -178 -90t-78 -208q0 -79 42 -127t111 -48z" />
    <glyph glyph-name="D.sc" horiz-adv-x="646" 
d="M176 550h183q118 0 190 -55.5t72 -147.5q0 -77 -39 -144.5t-111 -116.5q-61 -41 -137.5 -63.5t-158.5 -22.5h-210l14 36h81l184 478h-82zM539 355q0 80 -49.5 119.5t-149.5 39.5h-17l-184 -478h36q154 0 259 92t105 227z" />
    <glyph glyph-name="E.sc" horiz-adv-x="581" 
d="M241 301h131l99 88l-81 -211l-25 87h-138l-88 -229h207l173 149l-95 -185h-459l14 36h82l184 478h-83l14 36h400l52 23l-67 -181l-31 122h-207z" />
    <glyph glyph-name="F.sc" horiz-adv-x="546" 
d="M226 262l-87 -226h102l-13 -36h-263l13 36h82l184 478h-82l14 36h399l52 23l-66 -181l-32 122h-206l-83 -216h130l101 87l-81 -211l-27 88h-137z" />
    <glyph glyph-name="G.sc" horiz-adv-x="646" 
d="M379 38l68 176h-88l14 37h239l-14 -37h-73l-56 -145h62q-53 -38 -116 -58.5t-124 -20.5q-99 0 -162 59.5t-63 153.5q0 69 29 134t82 116t119.5 79t134.5 28q42 0 78.5 -13t61.5 -36l75 46l-72 -186q-17 76 -54 113.5t-94 37.5q-54 0 -106.5 -28t-93.5 -78
q-38 -46 -58.5 -102t-20.5 -113q0 -76 45 -123.5t115 -47.5q20 0 37.5 2t34.5 6z" />
    <glyph glyph-name="H.sc" horiz-adv-x="723" 
d="M162 514l14 36h242l-13 -36h-82l-82 -213h300l82 213h-82l14 36h242l-13 -36h-82l-184 -478h81l-13 -36h-242l13 36h82l88 229h-300l-88 -229h82l-14 -36h-242l13 36h82l184 478h-82z" />
    <glyph glyph-name="I.sc" horiz-adv-x="344" 
d="M162 514l14 36h242l-13 -36h-82l-184 -478h82l-14 -36h-242l13 36h82l184 478h-82z" />
    <glyph glyph-name="J.sc" horiz-adv-x="450" 
d="M266 266h-104l14 35h103l75 187h-201v-9l58 -51q-7 -15 -22 -25t-29 -10q-16 0 -27 13t-11 33q0 34 29 68t77 59l133 -61l108 87l-120 -291h85l-14 -35h-85l-97 -234q-44 -107 -101.5 -164.5t-120.5 -57.5q-27 0 -42.5 12.5t-15.5 34.5q0 15 5.5 29.5t14.5 24.5l126 -52z
" />
    <glyph glyph-name="K.sc" horiz-adv-x="618" 
d="M162 514l14 36h242l-13 -36h-82l-79 -205h31l298 205h-86l13 36h219l-14 -36h-72l-308 -210l203 -304h-86l-201 301l-102 -265h82l-14 -36h-242l13 36h82l184 478h-82z" />
    <glyph glyph-name="L.sc" horiz-adv-x="556" 
d="M60 36l184 478h-82l14 36h242l-13 -36h-82l-184 -478h194l175 152l-96 -188h-447l13 36h82z" />
    <glyph glyph-name="M.sc" horiz-adv-x="813" 
d="M462 36h90l138 472l-399 -540l19 541l-226 -473h90l-13 -36h-208l14 36h74l229 478h-76l14 36h175l-17 -424l310 424h180l-13 -36h-76l-139 -478h74l-13 -36h-241z" />
    <glyph glyph-name="N.sc" horiz-adv-x="655" 
d="M181 36l-14 -36h-210l14 36h82l156 407l-57 107h81l221 -417l144 381h-85l14 36h208l-13 -36h-82l-163 -425l47 -89h-77l-214 399l-137 -363h85z" />
    <glyph glyph-name="O.sc" horiz-adv-x="628" 
d="M169 448q50 54 112.5 83t128.5 29q85 0 139 -59.5t54 -152.5q0 -64 -27.5 -128.5t-76.5 -117.5q-51 -54 -113 -83t-128 -29q-85 0 -139 59.5t-54 152.5q0 64 27.5 128.5t76.5 117.5zM524 388q0 64 -31 100.5t-84 36.5q-54 0 -104.5 -34.5t-90.5 -97.5
q-33 -52 -51.5 -113.5t-18.5 -117.5q0 -64 31 -100.5t84 -36.5q54 0 104.5 34.5t90.5 97.5q33 52 51.5 113.5t18.5 117.5z" />
    <glyph glyph-name="P.sc" horiz-adv-x="557" 
d="M244 514h-82l14 36h218q86 0 134 -33t48 -91q0 -78 -72.5 -131t-168.5 -55l-52 29q94 1 153.5 46t59.5 113q0 43 -30.5 64.5t-90.5 21.5h-52l-184 -478h104l-14 -36h-265l14 36h82z" />
    <glyph glyph-name="Q.sc" horiz-adv-x="628" 
d="M169 448q50 54 112.5 83t128.5 29q85 0 139 -59t54 -152q0 -128 -94 -232.5t-230 -119.5v-12l321 -136l-136 -32l-291 191q-54 34 -81 83t-27 111q0 64 27.5 128.5t76.5 117.5zM524 388q0 64 -31 100.5t-84 36.5q-54 0 -104.5 -34t-90.5 -97q-33 -52 -51.5 -113.5
t-18.5 -117.5q0 -64 31 -100.5t84 -36.5q54 0 104.5 34t89.5 97q33 52 52 113.5t19 117.5z" />
    <glyph glyph-name="R.sc" horiz-adv-x="607" 
d="M139 36h82l-14 -36h-242l14 36h81l184 478h-80l13 36h230q82 0 128 -29.5t46 -82.5q0 -67 -58.5 -114t-155.5 -62l146 -262h-85l-138 257h-66zM388 514h-65l-85 -222h63q85 0 141.5 40.5t56.5 104.5q0 39 -27.5 58t-83.5 19z" />
    <glyph glyph-name="S.sc" horiz-adv-x="478" 
d="M322 522q-47 0 -77.5 -26.5t-30.5 -66.5q0 -24 15.5 -45.5t67.5 -58.5q63 -44 83 -74.5t20 -66.5q0 -78 -65 -136t-157 -58q-51 0 -100 20.5t-74 52.5l31 127q9 -72 54 -116t107 -44q57 0 94.5 32.5t37.5 84.5q0 29 -16.5 53.5t-69.5 61.5q-56 40 -73.5 67t-17.5 59
q0 74 50.5 123t127.5 49q36 0 68 -14t50 -36l74 47l-71 -180q-10 68 -43.5 106.5t-84.5 38.5z" />
    <glyph glyph-name="T.sc" horiz-adv-x="616" 
d="M182 573l35 -23h430l51 23l-68 -185l-31 126h-141l-184 -478h94l-14 -36h-266l13 36h94l184 478h-129l-139 -126z" />
    <glyph glyph-name="U.sc" horiz-adv-x="652" 
d="M286 48q72 0 124 42t84 125l115 299h-85l14 36h207l-14 -36h-81l-119 -310q-42 -108 -110.5 -161t-165.5 -53q-73 0 -118.5 38.5t-45.5 102.5q0 17 5 39t15 48l113 296h-81l13 36h243l-13 -36h-82l-115 -299q-10 -28 -14 -45t-4 -30q0 -44 29.5 -68t85.5 -24z" />
    <glyph glyph-name="V.sc" horiz-adv-x="611" 
d="M367 514h-97l-26 -397l340 397h-97l13 36h216l-13 -36h-66l-468 -546l28 546h-66l14 36h236z" />
    <glyph glyph-name="W.sc" horiz-adv-x="823" 
d="M624 514h-97l-40 -387l313 387h-99l14 36h213l-13 -36h-66l-442 -546l35 376l-297 -376l52 546h-66l14 36h492zM458 514h-191l-40 -387l221 275z" />
    <glyph glyph-name="X.sc" horiz-adv-x="671" 
d="M164 514l14 36h239l-14 -36h-85l64 -176l193 176h-85l13 36h219l-13 -36h-79l-235 -213l97 -265h79l-13 -36h-239l13 36h84l-81 224l-243 -224h85l-14 -36h-222l14 36h81l285 262l-78 216h-79z" />
    <glyph glyph-name="Y.sc" horiz-adv-x="647" 
d="M681 441l-72 69q-58 -20 -119.5 -83.5t-104.5 -144.5l-94 -246h94l-13 -36h-265l13 36h95l98 254q18 96 -3 151t-77 55q-31 0 -61 -16.5t-60 -51.5q23 61 65 96t93 35q70 0 99 -68t8 -166q53 103 130.5 168.5t151.5 65.5q29 0 46 -14t17 -37q0 -19 -11 -37t-30 -30z" />
    <glyph glyph-name="Z.sc" horiz-adv-x="569" 
d="M88 36h249l174 149l-96 -185h-458l557 514h-234l-136 -126l68 185l34 -23h397z" />
    <glyph glyph-name="Aacute.sc" horiz-adv-x="613" 
d="M284 36h97l11 162h-190l-139 -162h98l-14 -36h-213l14 36h65l469 546l-27 -546h65l-13 -36h-237zM395 234l14 204l-176 -204h162zM568 835h91l-260 -263z" />
    <glyph glyph-name="Abreve.sc" horiz-adv-x="613" 
d="M284 36h97l11 162h-190l-139 -162h98l-14 -36h-213l14 36h65l469 546l-27 -546h65l-13 -36h-237zM395 234l14 204l-176 -204h162zM489 848q-25 -117 -20.5 -157.5t34.5 -40.5q35 0 71.5 41.5t96.5 156.5q-22 -110 -72.5 -183t-108.5 -73q-60 0 -59.5 76t58.5 180z" />
    <glyph glyph-name="Acircumflex.sc" horiz-adv-x="613" 
d="M284 36h97l11 162h-190l-139 -162h98l-14 -36h-213l14 36h65l469 546l-27 -546h65l-13 -36h-237zM395 234l14 204l-176 -204h162zM574 574l-28 190l-183 -190l177 261h58z" />
    <glyph glyph-name="Adieresis.sc" horiz-adv-x="613" 
d="M284 36h97l11 162h-190l-139 -162h98l-14 -36h-213l14 36h65l469 546l-27 -546h65l-13 -36h-237zM395 234l14 204l-176 -204h162zM632 707q0 -21 -15 -35.5t-37 -14.5t-36.5 14.5t-14.5 35.5t14.5 36t36.5 15t37 -15t15 -36zM482 707q0 -21 -14.5 -35.5t-36.5 -14.5
t-36.5 14.5t-14.5 35.5t14.5 36t36.5 15q21 0 36 -15t15 -36z" />
    <glyph glyph-name="Agrave.sc" horiz-adv-x="613" 
d="M284 36h97l11 162h-190l-139 -162h98l-14 -36h-213l14 36h65l469 546l-27 -546h65l-13 -36h-237zM395 234l14 204l-176 -204h162zM520 572l-92 263h80z" />
    <glyph glyph-name="Amacron.sc" horiz-adv-x="613" 
d="M284 36h97l11 162h-190l-139 -162h98l-14 -36h-213l14 36h65l469 546l-27 -546h65l-13 -36h-237zM395 234l14 204l-176 -204h162zM364 670l45 44h236l-44 -44h-237z" />
    <glyph glyph-name="Aogonek.sc" horiz-adv-x="613" 
d="M284 36h97l11 162h-190l-139 -162h98l-14 -36h-213l14 36h65l469 546l-27 -546h65l-13 -36h-214q-56 -42 -91 -88.5t-35 -80.5q0 -26 16.5 -38.5t49.5 -12.5h40q-26 -24 -48 -35t-46 -11q-30 0 -48.5 18.5t-18.5 49.5q0 43 44 98t115 103zM395 234l14 204l-176 -204h162z
" />
    <glyph glyph-name="Aring.sc" horiz-adv-x="613" 
d="M284 36h97l11 162h-190l-139 -162h98l-14 -36h-213l14 36h65l469 546l-27 -546h65l-13 -36h-237zM395 234l14 204l-176 -204h162zM423 698q0 45 32 76t79 31q35 0 58.5 -24t23.5 -59q0 -45 -32 -76t-78 -31q-35 0 -59 24t-24 59zM584 721q0 23 -15 37.5t-38 14.5
q-32 0 -53.5 -21t-21.5 -53q0 -23 14.5 -38t38.5 -15q32 0 53.5 21.5t21.5 53.5z" />
    <glyph glyph-name="Atilde.sc" horiz-adv-x="613" 
d="M284 36h97l11 162h-190l-139 -162h98l-14 -36h-213l14 36h65l469 546l-27 -546h65l-13 -36h-237zM395 234l14 204l-176 -204h162zM700 815l-118 -160l-99 52q-23 -7 -58 -31.5t-82 -65.5l118 160l99 -52q24 7 58.5 31.5t81.5 65.5z" />
    <glyph glyph-name="AE.sc" horiz-adv-x="888" 
d="M548 301h130l99 88l-81 -211l-25 87h-137l-88 -229h206l174 149l-95 -185h-459l14 36h81l65 168h-193l-170 -168h101l-14 -36h-220l14 36h65l486 478h-113l14 36h480l52 23l-66 -181l-31 122h-207zM550 511l-275 -271h171z" />
    <glyph glyph-name="AEacute.sc" horiz-adv-x="888" 
d="M548 301h130l99 88l-81 -211l-25 87h-137l-88 -229h206l174 149l-95 -185h-459l14 36h81l65 168h-193l-170 -168h101l-14 -36h-220l14 36h65l486 478h-113l14 36h480l52 23l-66 -181l-31 122h-207zM550 511l-275 -271h171zM854 835h91l-260 -263z" />
    <glyph glyph-name="Cacute.sc" horiz-adv-x="555" 
d="M295 50q52 0 98 23.5t93 74.5q-31 -75 -92.5 -116.5t-137.5 -41.5q-84 0 -138 57t-54 145q0 67 26 133t73 119q49 55 112 85.5t129 30.5q39 0 71 -12.5t56 -36.5l73 46l-69 -186q-13 77 -47 114.5t-90 37.5q-100 0 -178 -90t-78 -208q0 -79 42 -127t111 -48zM600 835h91
l-260 -263z" />
    <glyph glyph-name="Ccaron.sc" horiz-adv-x="555" 
d="M295 50q52 0 98 23.5t93 74.5q-31 -75 -92.5 -116.5t-137.5 -41.5q-84 0 -138 57t-54 145q0 67 26 133t73 119q49 55 112 85.5t129 30.5q39 0 71 -12.5t56 -36.5l73 46l-69 -186q-13 77 -47 114.5t-90 37.5q-100 0 -178 -90t-78 -208q0 -79 42 -127t111 -48zM443 862
l28 -190l183 190l-177 -261h-58z" />
    <glyph glyph-name="Ccedilla.sc" horiz-adv-x="555" 
d="M272 -132q0 -50 -57 -92.5t-112 -42.5q-22 0 -35 10t-13 27q0 18 16 30t38 11l19 -57q35 6 63 32t28 56q0 20 -15.5 33.5t-49.5 22.5l68 95q-71 11 -114.5 66t-43.5 133q0 67 26 133t73 119q49 55 112 85.5t129 30.5q39 0 71 -12.5t56 -36.5l73 46l-69 -186
q-13 77 -47 114.5t-90 37.5q-100 0 -178 -90t-78 -208q0 -79 42 -127t111 -48q52 0 98 23.5t93 74.5q-31 -75 -92.5 -116.5t-137.5 -41.5h-14.5t-8.5 1l-15 -57q26 -12 40 -29t14 -37z" />
    <glyph glyph-name="Ccircumflex.sc" horiz-adv-x="555" 
d="M295 50q52 0 98 23.5t93 74.5q-31 -75 -92.5 -116.5t-137.5 -41.5q-84 0 -138 57t-54 145q0 67 26 133t73 119q49 55 112 85.5t129 30.5q39 0 71 -12.5t56 -36.5l73 46l-69 -186q-13 77 -47 114.5t-90 37.5q-100 0 -178 -90t-78 -208q0 -79 42 -127t111 -48zM535 574
l-28 190l-183 -190l177 261h58z" />
    <glyph glyph-name="Cdotaccent.sc" horiz-adv-x="555" 
d="M295 50q52 0 98 23.5t93 74.5q-31 -75 -92.5 -116.5t-137.5 -41.5q-84 0 -138 57t-54 145q0 67 26 133t73 119q49 55 112 85.5t129 30.5q39 0 71 -12.5t56 -36.5l73 46l-69 -186q-13 77 -47 114.5t-90 37.5q-100 0 -178 -90t-78 -208q0 -79 42 -127t111 -48zM548 722
q0 -22 -15.5 -37.5t-38.5 -15.5t-38 15.5t-15 37.5t15.5 37.5t37.5 15.5t38 -15.5t16 -37.5z" />
    <glyph glyph-name="Dcaron.sc" horiz-adv-x="646" 
d="M176 550h183q118 0 190 -55.5t72 -147.5q0 -77 -39 -144.5t-111 -116.5q-61 -41 -137.5 -63.5t-158.5 -22.5h-210l14 36h81l184 478h-82zM539 355q0 80 -49.5 119.5t-149.5 39.5h-17l-184 -478h36q154 0 259 92t105 227zM417 862l28 -190l183 190l-177 -261h-58z" />
    <glyph glyph-name="Dcroat.sc" horiz-adv-x="646" 
d="M148 265h-82l18 36h78l82 213h-82l14 36h183q118 0 190 -55.5t72 -147.5q0 -77 -39 -144.5t-111 -116.5q-61 -41 -137.5 -63.5t-158.5 -22.5h-210l14 36h81zM539 355q0 80 -49.5 119.5t-149.5 39.5h-17l-82 -213h129l-17 -36h-126l-88 -229h36q154 0 259 92t105 227z" />
    <glyph glyph-name="Eacute.sc" horiz-adv-x="581" 
d="M241 301h131l99 88l-81 -211l-25 87h-138l-88 -229h207l173 149l-95 -185h-459l14 36h82l184 478h-83l14 36h400l52 23l-67 -181l-31 122h-207zM592 835h91l-260 -263z" />
    <glyph glyph-name="Ebreve.sc" horiz-adv-x="581" 
d="M241 301h131l99 88l-81 -211l-25 87h-138l-88 -229h207l173 149l-95 -185h-459l14 36h82l184 478h-83l14 36h400l52 23l-67 -181l-31 122h-207zM442 848q-25 -117 -20.5 -157.5t34.5 -40.5q35 0 71.5 41.5t96.5 156.5q-22 -110 -72.5 -183t-108.5 -73q-60 0 -59.5 76
t58.5 180z" />
    <glyph glyph-name="Ecaron.sc" horiz-adv-x="581" 
d="M241 301h131l99 88l-81 -211l-25 87h-138l-88 -229h207l173 149l-95 -185h-459l14 36h82l184 478h-83l14 36h400l52 23l-67 -181l-31 122h-207zM442 862l28 -190l183 190l-177 -261h-58z" />
    <glyph glyph-name="Ecircumflex.sc" horiz-adv-x="581" 
d="M241 301h131l99 88l-81 -211l-25 87h-138l-88 -229h207l173 149l-95 -185h-459l14 36h82l184 478h-83l14 36h400l52 23l-67 -181l-31 122h-207zM535 574l-28 190l-183 -190l177 261h58z" />
    <glyph glyph-name="Edieresis.sc" horiz-adv-x="581" 
d="M241 301h131l99 88l-81 -211l-25 87h-138l-88 -229h207l173 149l-95 -185h-459l14 36h82l184 478h-83l14 36h400l52 23l-67 -181l-31 122h-207zM612 707q0 -21 -15 -35.5t-37 -14.5t-36.5 14.5t-14.5 35.5t14.5 36t36.5 15t37 -15t15 -36zM462 707q0 -21 -14.5 -35.5
t-36.5 -14.5t-36.5 14.5t-14.5 35.5t14.5 36t36.5 15q21 0 36 -15t15 -36z" />
    <glyph glyph-name="Edotaccent.sc" horiz-adv-x="581" 
d="M241 301h131l99 88l-81 -211l-25 87h-138l-88 -229h207l173 149l-95 -185h-459l14 36h82l184 478h-83l14 36h400l52 23l-67 -181l-31 122h-207zM544 722q0 -22 -15.5 -37.5t-38.5 -15.5t-38 15.5t-15 37.5t15.5 37.5t37.5 15.5t38 -15.5t16 -37.5z" />
    <glyph glyph-name="Egrave.sc" horiz-adv-x="581" 
d="M241 301h131l99 88l-81 -211l-25 87h-138l-88 -229h207l173 149l-95 -185h-459l14 36h82l184 478h-83l14 36h400l52 23l-67 -181l-31 122h-207zM458 572l-92 263h80z" />
    <glyph glyph-name="Emacron.sc" horiz-adv-x="581" 
d="M241 301h131l99 88l-81 -211l-25 87h-138l-88 -229h207l173 149l-95 -185h-459l14 36h82l184 478h-83l14 36h400l52 23l-67 -181l-31 122h-207zM338 670l45 44h236l-44 -44h-237z" />
    <glyph glyph-name="Eogonek.sc" horiz-adv-x="581" 
d="M241 301h131l99 88l-81 -211l-25 87h-138l-88 -229h207l173 149l-95 -185h-90q-56 -42 -91 -88.5t-35 -80.5q0 -26 16.5 -38.5t49.5 -12.5h40q-26 -24 -48 -35t-46 -11q-30 0 -48.5 18.5t-18.5 49.5q0 42 42.5 96t112.5 102h-343l14 36h82l184 478h-83l14 36h400l52 23
l-67 -181l-31 122h-207z" />
    <glyph glyph-name="Eth.sc" horiz-adv-x="646" 
d="M148 265h-82l18 36h78l82 213h-82l14 36h183q118 0 190 -55.5t72 -147.5q0 -77 -39 -144.5t-111 -116.5q-61 -41 -137.5 -63.5t-158.5 -22.5h-210l14 36h81zM539 355q0 80 -49.5 119.5t-149.5 39.5h-17l-82 -213h129l-17 -36h-126l-88 -229h36q154 0 259 92t105 227z" />
    <glyph glyph-name="Gbreve.sc" horiz-adv-x="646" 
d="M379 38l68 176h-88l14 37h239l-14 -37h-73l-56 -145h62q-53 -38 -116 -58.5t-124 -20.5q-99 0 -162 59.5t-63 153.5q0 69 29 134t82 116t119.5 79t134.5 28q42 0 78.5 -13t61.5 -36l75 46l-72 -186q-17 76 -54 113.5t-94 37.5q-54 0 -106.5 -28t-93.5 -78
q-38 -46 -58.5 -102t-20.5 -113q0 -76 45 -123.5t115 -47.5q20 0 37.5 2t34.5 6zM469 848q-25 -117 -20.5 -157.5t34.5 -40.5q35 0 71.5 41.5t96.5 156.5q-22 -110 -72.5 -183t-108.5 -73q-60 0 -59.5 76t58.5 180z" />
    <glyph glyph-name="Gcircumflex.sc" horiz-adv-x="646" 
d="M379 38l68 176h-88l14 37h239l-14 -37h-73l-56 -145h62q-53 -38 -116 -58.5t-124 -20.5q-99 0 -162 59.5t-63 153.5q0 69 29 134t82 116t119.5 79t134.5 28q42 0 78.5 -13t61.5 -36l75 46l-72 -186q-17 76 -54 113.5t-94 37.5q-54 0 -106.5 -28t-93.5 -78
q-38 -46 -58.5 -102t-20.5 -113q0 -76 45 -123.5t115 -47.5q20 0 37.5 2t34.5 6zM561 574l-28 190l-183 -190l177 261h58z" />
    <glyph glyph-name="Gcommaaccent.sc" horiz-adv-x="646" 
d="M379 38l68 176h-88l14 37h239l-14 -37h-73l-56 -145h62q-53 -38 -116 -58.5t-124 -20.5q-99 0 -162 59.5t-63 153.5q0 69 29 134t82 116t119.5 79t134.5 28q42 0 78.5 -13t61.5 -36l75 46l-72 -186q-17 76 -54 113.5t-94 37.5q-54 0 -106.5 -28t-93.5 -78
q-38 -46 -58.5 -102t-20.5 -113q0 -76 45 -123.5t115 -47.5q20 0 37.5 2t34.5 6zM133 -130q0 24 18 41.5t45 17.5q28 0 44.5 -17t16.5 -46q0 -50 -52 -90.5t-124 -40.5q52 23 83.5 49.5t45.5 59.5h-65q-5 3 -8.5 10t-3.5 16z" />
    <glyph glyph-name="Gdotaccent.sc" horiz-adv-x="646" 
d="M379 38l68 176h-88l14 37h239l-14 -37h-73l-56 -145h62q-53 -38 -116 -58.5t-124 -20.5q-99 0 -162 59.5t-63 153.5q0 69 29 134t82 116t119.5 79t134.5 28q42 0 78.5 -13t61.5 -36l75 46l-72 -186q-17 76 -54 113.5t-94 37.5q-54 0 -106.5 -28t-93.5 -78
q-38 -46 -58.5 -102t-20.5 -113q0 -76 45 -123.5t115 -47.5q20 0 37.5 2t34.5 6zM569 722q0 -22 -15.5 -37.5t-38.5 -15.5t-38 15.5t-15 37.5t15.5 37.5t37.5 15.5t38 -15.5t16 -37.5z" />
    <glyph glyph-name="Hbar.sc" horiz-adv-x="723" 
d="M186 364h-81l16 36h79l44 114h-82l14 36h242l-13 -36h-82l-44 -114h300l44 114h-82l14 36h242l-13 -36h-82l-44 -114h82l-17 -36h-79l-126 -328h81l-13 -36h-242l13 36h82l72 186h-300l-72 -186h82l-14 -36h-242l13 36h82zM265 364l-41 -106h300l41 106h-300z" />
    <glyph glyph-name="Hcircumflex.sc" horiz-adv-x="723" 
d="M162 514l14 36h242l-13 -36h-82l-82 -213h300l82 213h-82l14 36h242l-13 -36h-82l-184 -478h81l-13 -36h-242l13 36h82l88 229h-300l-88 -229h82l-14 -36h-242l13 36h82l184 478h-82zM599 574l-28 190l-183 -190l177 261h58z" />
    <glyph glyph-name="Iacute.sc" horiz-adv-x="344" 
d="M162 514l14 36h242l-13 -36h-82l-184 -478h82l-14 -36h-242l13 36h82l184 478h-82zM462 835h91l-260 -263z" />
    <glyph glyph-name="Ibreve.sc" horiz-adv-x="344" 
d="M162 514l14 36h242l-13 -36h-82l-184 -478h82l-14 -36h-242l13 36h82l184 478h-82zM319 848q-25 -117 -20.5 -157.5t34.5 -40.5q35 0 71.5 41.5t96.5 156.5q-22 -110 -72.5 -183t-108.5 -73q-60 0 -59.5 76t58.5 180z" />
    <glyph glyph-name="Icircumflex.sc" horiz-adv-x="344" 
d="M162 514l14 36h242l-13 -36h-82l-184 -478h82l-14 -36h-242l13 36h82l184 478h-82zM408 574l-28 190l-183 -190l177 261h58z" />
    <glyph glyph-name="Idieresis.sc" horiz-adv-x="344" 
d="M162 514l14 36h242l-13 -36h-82l-184 -478h82l-14 -36h-242l13 36h82l184 478h-82zM484 707q0 -21 -15 -35.5t-37 -14.5t-36.5 14.5t-14.5 35.5t14.5 36t36.5 15t37 -15t15 -36zM334 707q0 -21 -14.5 -35.5t-36.5 -14.5t-36.5 14.5t-14.5 35.5t14.5 36t36.5 15
q21 0 36 -15t15 -36z" />
    <glyph glyph-name="Idotaccent.sc" horiz-adv-x="344" 
d="M162 514l14 36h242l-13 -36h-82l-184 -478h82l-14 -36h-242l13 36h82l184 478h-82zM418 722q0 -22 -15.5 -37.5t-38.5 -15.5t-38 15.5t-15 37.5t15.5 37.5t37.5 15.5t38 -15.5t16 -37.5z" />
    <glyph glyph-name="Igrave.sc" horiz-adv-x="344" 
d="M162 514l14 36h242l-13 -36h-82l-184 -478h82l-14 -36h-242l13 36h82l184 478h-82zM336 572l-92 263h80z" />
    <glyph glyph-name="Imacron.sc" horiz-adv-x="344" 
d="M162 514l14 36h242l-13 -36h-82l-184 -478h82l-14 -36h-242l13 36h82l184 478h-82zM212 670l45 44h236l-44 -44h-237z" />
    <glyph glyph-name="Iogonek.sc" horiz-adv-x="344" 
d="M162 514l14 36h242l-13 -36h-82l-184 -478h82l-14 -36h-58q-56 -42 -91 -88.5t-35 -80.5q0 -26 16.5 -38.5t49.5 -12.5h40q-26 -24 -48 -35t-46 -11q-30 0 -48.5 18.5t-18.5 49.5q0 42 42.5 96t112.5 102h-158l13 36h82l184 478h-82z" />
    <glyph glyph-name="Itilde.sc" horiz-adv-x="344" 
d="M162 514l14 36h242l-13 -36h-82l-184 -478h82l-14 -36h-242l13 36h82l184 478h-82zM539 815l-118 -160l-99 52q-23 -7 -58 -31.5t-82 -65.5l118 160l99 -52q24 7 58.5 31.5t81.5 65.5z" />
    <glyph glyph-name="Jcircumflex.sc" horiz-adv-x="450" 
d="M270 266h-104l14 35h103l75 187h-201v-9l58 -51q-7 -15 -22 -25t-29 -10q-16 0 -27 13t-11 33q0 34 29 68t77 59l133 -61l108 87l-120 -291h85l-14 -35h-85l-97 -234q-44 -107 -101.5 -164.5t-120.5 -57.5q-27 0 -42.5 12.5t-15.5 34.5q0 15 5.5 29.5t14.5 24.5l126 -52z
M535 574l-28 190l-183 -190l177 261h58z" />
    <glyph glyph-name="Kcommaaccent.sc" horiz-adv-x="618" 
d="M162 514l14 36h242l-13 -36h-82l-79 -205h31l298 205h-86l13 36h219l-14 -36h-72l-308 -210l203 -304h-86l-201 301l-102 -265h82l-14 -36h-242l13 36h82l184 478h-82zM163 -130q0 24 18 41.5t45 17.5q28 0 44.5 -17t16.5 -46q0 -50 -52 -90.5t-124 -40.5
q52 23 83.5 49.5t45.5 59.5h-65q-5 3 -8.5 10t-3.5 16z" />
    <glyph glyph-name="Lacute.sc" horiz-adv-x="556" 
d="M60 36l184 478h-82l14 36h242l-13 -36h-82l-184 -478h194l175 152l-96 -188h-447l13 36h82zM473 835h91l-260 -263z" />
    <glyph glyph-name="Lcaron.sc" horiz-adv-x="556" 
d="M60 36l184 478h-82l14 36h242l-13 -36h-82l-184 -478h194l175 152l-96 -188h-447l13 36h82zM526 550h87l-225 -263z" />
    <glyph glyph-name="Lcommaaccent.sc" horiz-adv-x="556" 
d="M60 36l184 478h-82l14 36h242l-13 -36h-82l-184 -478h194l175 152l-96 -188h-447l13 36h82zM125 -130q0 24 18 41.5t45 17.5q28 0 44.5 -17t16.5 -46q0 -50 -52 -90.5t-124 -40.5q52 23 83.5 49.5t45.5 59.5h-65q-5 3 -8.5 10t-3.5 16z" />
    <glyph glyph-name="Ldot.sc" horiz-adv-x="556" 
d="M60 36l184 478h-82l14 36h242l-13 -36h-82l-184 -478h194l175 152l-96 -188h-447l13 36h82zM489 310q0 -22 -15.5 -37.5t-38.5 -15.5t-38 15.5t-15 37.5t15.5 37.5t37.5 15.5t38 -15.5t16 -37.5z" />
    <glyph glyph-name="Lslash.sc" horiz-adv-x="556" 
d="M128 214l-109 -45l17 44l109 44l99 257h-82l14 36h242l-13 -36h-82l-89 -230l161 65l-17 -43l-160 -65l-79 -205h194l175 152l-96 -188h-447l13 36h82z" />
    <glyph glyph-name="Nacute.sc" horiz-adv-x="655" 
d="M181 36l-14 -36h-210l14 36h82l156 407l-57 107h81l221 -417l144 381h-85l14 36h208l-13 -36h-82l-163 -425l47 -89h-77l-214 399l-137 -363h85zM586 835h91l-260 -263z" />
    <glyph glyph-name="Ncaron.sc" horiz-adv-x="655" 
d="M181 36l-14 -36h-210l14 36h82l156 407l-57 107h81l221 -417l144 381h-85l14 36h208l-13 -36h-82l-163 -425l47 -89h-77l-214 399l-137 -363h85zM438 862l28 -190l183 190l-177 -261h-58z" />
    <glyph glyph-name="Ncommaaccent.sc" horiz-adv-x="655" 
d="M181 36l-14 -36h-210l14 36h82l156 407l-57 107h81l221 -417l144 381h-85l14 36h208l-13 -36h-82l-163 -425l47 -89h-77l-214 399l-137 -363h85zM163 -130q0 24 18 41.5t45 17.5q28 0 44.5 -17t16.5 -46q0 -50 -52 -90.5t-124 -40.5q52 23 83.5 49.5t45.5 59.5h-65
q-5 3 -8.5 10t-3.5 16z" />
    <glyph glyph-name="Ntilde.sc" horiz-adv-x="655" 
d="M181 36l-14 -36h-210l14 36h82l156 407l-57 107h81l221 -417l144 381h-85l14 36h208l-13 -36h-82l-163 -425l47 -89h-77l-214 399l-137 -363h85zM679 815l-118 -160l-99 52q-23 -7 -58 -31.5t-82 -65.5l118 160l99 -52q24 7 58.5 31.5t81.5 65.5z" />
    <glyph glyph-name="Eng.sc" horiz-adv-x="642" 
d="M181 36l-14 -36h-210l14 36h82l156 405l-57 109h81l217 -423l148 387h-85l14 36h208l-13 -36h-82l-185 -482q-53 -140 -90.5 -181.5t-92.5 -41.5q-27 0 -44 15t-17 38q0 16 5.5 30.5t14.5 23.5l119 -49l67 175l-185 354l-136 -360h85z" />
    <glyph glyph-name="Oacute.sc" horiz-adv-x="628" 
d="M169 448q50 54 112.5 83t128.5 29q85 0 139 -59.5t54 -152.5q0 -64 -27.5 -128.5t-76.5 -117.5q-51 -54 -113 -83t-128 -29q-85 0 -139 59.5t-54 152.5q0 64 27.5 128.5t76.5 117.5zM524 388q0 64 -31 100.5t-84 36.5q-54 0 -104.5 -34.5t-90.5 -97.5
q-33 -52 -51.5 -113.5t-18.5 -117.5q0 -64 31 -100.5t84 -36.5q54 0 104.5 34.5t90.5 97.5q33 52 51.5 113.5t18.5 117.5zM594 835h91l-260 -263z" />
    <glyph glyph-name="Obreve.sc" horiz-adv-x="628" 
d="M169 448q50 54 112.5 83t128.5 29q85 0 139 -59.5t54 -152.5q0 -64 -27.5 -128.5t-76.5 -117.5q-51 -54 -113 -83t-128 -29q-85 0 -139 59.5t-54 152.5q0 64 27.5 128.5t76.5 117.5zM524 388q0 64 -31 100.5t-84 36.5q-54 0 -104.5 -34.5t-90.5 -97.5
q-33 -52 -51.5 -113.5t-18.5 -117.5q0 -64 31 -100.5t84 -36.5q54 0 104.5 34.5t90.5 97.5q33 52 51.5 113.5t18.5 117.5zM457 848q-25 -117 -20.5 -157.5t34.5 -40.5q35 0 71.5 41.5t96.5 156.5q-22 -110 -72.5 -183t-108.5 -73q-60 0 -59.5 76t58.5 180z" />
    <glyph glyph-name="Ocircumflex.sc" horiz-adv-x="628" 
d="M169 448q50 54 112.5 83t128.5 29q85 0 139 -59.5t54 -152.5q0 -64 -27.5 -128.5t-76.5 -117.5q-51 -54 -113 -83t-128 -29q-85 0 -139 59.5t-54 152.5q0 64 27.5 128.5t76.5 117.5zM524 388q0 64 -31 100.5t-84 36.5q-54 0 -104.5 -34.5t-90.5 -97.5
q-33 -52 -51.5 -113.5t-18.5 -117.5q0 -64 31 -100.5t84 -36.5q54 0 104.5 34.5t90.5 97.5q33 52 51.5 113.5t18.5 117.5zM547 574l-28 190l-183 -190l177 261h58z" />
    <glyph glyph-name="Odieresis.sc" horiz-adv-x="628" 
d="M169 448q50 54 112.5 83t128.5 29q85 0 139 -59.5t54 -152.5q0 -64 -27.5 -128.5t-76.5 -117.5q-51 -54 -113 -83t-128 -29q-85 0 -139 59.5t-54 152.5q0 64 27.5 128.5t76.5 117.5zM524 388q0 64 -31 100.5t-84 36.5q-54 0 -104.5 -34.5t-90.5 -97.5
q-33 -52 -51.5 -113.5t-18.5 -117.5q0 -64 31 -100.5t84 -36.5q54 0 104.5 34.5t90.5 97.5q33 52 51.5 113.5t18.5 117.5zM625 707q0 -21 -15 -35.5t-37 -14.5t-36.5 14.5t-14.5 35.5t14.5 36t36.5 15t37 -15t15 -36zM475 707q0 -21 -14.5 -35.5t-36.5 -14.5t-36.5 14.5
t-14.5 35.5t14.5 36t36.5 15q21 0 36 -15t15 -36z" />
    <glyph glyph-name="Ograve.sc" horiz-adv-x="628" 
d="M169 448q50 54 112.5 83t128.5 29q85 0 139 -59.5t54 -152.5q0 -64 -27.5 -128.5t-76.5 -117.5q-51 -54 -113 -83t-128 -29q-85 0 -139 59.5t-54 152.5q0 64 27.5 128.5t76.5 117.5zM524 388q0 64 -31 100.5t-84 36.5q-54 0 -104.5 -34.5t-90.5 -97.5
q-33 -52 -51.5 -113.5t-18.5 -117.5q0 -64 31 -100.5t84 -36.5q54 0 104.5 34.5t90.5 97.5q33 52 51.5 113.5t18.5 117.5zM469 572l-92 263h80z" />
    <glyph glyph-name="Ohungarumlaut.sc" horiz-adv-x="628" 
d="M169 448q50 54 112.5 83t128.5 29q85 0 139 -59.5t54 -152.5q0 -64 -27.5 -128.5t-76.5 -117.5q-51 -54 -113 -83t-128 -29q-85 0 -139 59.5t-54 152.5q0 64 27.5 128.5t76.5 117.5zM524 388q0 64 -31 100.5t-84 36.5q-54 0 -104.5 -34.5t-90.5 -97.5
q-33 -52 -51.5 -113.5t-18.5 -117.5q0 -64 31 -100.5t84 -36.5q54 0 104.5 34.5t90.5 97.5q33 52 51.5 113.5t18.5 117.5zM484 835h82l-214 -263zM619 835h82l-214 -263z" />
    <glyph glyph-name="Omacron.sc" horiz-adv-x="628" 
d="M169 448q50 54 112.5 83t128.5 29q85 0 139 -59.5t54 -152.5q0 -64 -27.5 -128.5t-76.5 -117.5q-51 -54 -113 -83t-128 -29q-85 0 -139 59.5t-54 152.5q0 64 27.5 128.5t76.5 117.5zM524 388q0 64 -31 100.5t-84 36.5q-54 0 -104.5 -34.5t-90.5 -97.5
q-33 -52 -51.5 -113.5t-18.5 -117.5q0 -64 31 -100.5t84 -36.5q54 0 104.5 34.5t90.5 97.5q33 52 51.5 113.5t18.5 117.5zM352 670l45 44h236l-44 -44h-237z" />
    <glyph glyph-name="Oslash.sc" horiz-adv-x="628" 
d="M169 448q50 54 112.5 83t128.5 29q39 0 73 -13.5t60 -39.5l61 61h52l-89 -90q18 -28 27 -61t9 -69q0 -64 -27.5 -128.5t-76.5 -117.5q-51 -54 -113 -83t-128 -29q-37 0 -69 12t-57 35l-74 -75h-53l102 103q-20 27 -31 62.5t-11 74.5q0 64 27.5 128.5t76.5 117.5zM409 525
q-54 0 -104.5 -34.5t-90.5 -97.5q-33 -52 -51.5 -113.5t-18.5 -117.5q0 -16 1.5 -29t5.5 -24l355 360q-15 27 -40 41.5t-57 14.5zM454 157q33 52 51.5 113.5t18.5 117.5q0 13 -1 23t-3 19l-353 -357q15 -23 39 -35.5t53 -12.5q54 0 104.5 34.5t90.5 97.5z" />
    <glyph glyph-name="Oslashacute.sc" horiz-adv-x="628" 
d="M169 448q50 54 112.5 83t128.5 29q39 0 73 -13.5t60 -39.5l61 61h52l-89 -90q18 -28 27 -61t9 -69q0 -64 -27.5 -128.5t-76.5 -117.5q-51 -54 -113 -83t-128 -29q-37 0 -69 12t-57 35l-74 -75h-53l102 103q-20 27 -31 62.5t-11 74.5q0 64 27.5 128.5t76.5 117.5zM409 525
q-54 0 -104.5 -34.5t-90.5 -97.5q-33 -52 -51.5 -113.5t-18.5 -117.5q0 -16 1.5 -29t5.5 -24l355 360q-15 27 -40 41.5t-57 14.5zM454 157q33 52 51.5 113.5t18.5 117.5q0 13 -1 23t-3 19l-353 -357q15 -23 39 -35.5t53 -12.5q54 0 104.5 34.5t90.5 97.5zM588 835h91
l-260 -263z" />
    <glyph glyph-name="Otilde.sc" horiz-adv-x="628" 
d="M169 448q50 54 112.5 83t128.5 29q85 0 139 -59.5t54 -152.5q0 -64 -27.5 -128.5t-76.5 -117.5q-51 -54 -113 -83t-128 -29q-85 0 -139 59.5t-54 152.5q0 64 27.5 128.5t76.5 117.5zM524 388q0 64 -31 100.5t-84 36.5q-54 0 -104.5 -34.5t-90.5 -97.5
q-33 -52 -51.5 -113.5t-18.5 -117.5q0 -64 31 -100.5t84 -36.5q54 0 104.5 34.5t90.5 97.5q33 52 51.5 113.5t18.5 117.5zM674 815l-118 -160l-99 52q-23 -7 -58 -31.5t-82 -65.5l118 160l99 -52q24 7 58.5 31.5t81.5 65.5z" />
    <glyph glyph-name="OE.sc" horiz-adv-x="886" 
d="M64 203q0 77 39.5 144.5t112.5 116.5q61 42 138 64t160 22h366l52 23l-66 -181l-31 122h-207l-82 -213h130l99 88l-81 -211l-25 87h-137l-88 -229h206l174 149l-95 -185h-400q-121 0 -193 55t-72 148zM348 36h17l184 478h-35q-154 0 -260.5 -92t-106.5 -225
q0 -80 50.5 -120.5t150.5 -40.5z" />
    <glyph glyph-name="Racute.sc" horiz-adv-x="607" 
d="M139 36h82l-14 -36h-242l14 36h81l184 478h-80l13 36h230q82 0 128 -29.5t46 -82.5q0 -67 -58.5 -114t-155.5 -62l146 -262h-85l-138 257h-66zM388 514h-65l-85 -222h63q85 0 141.5 40.5t56.5 104.5q0 39 -27.5 58t-83.5 19zM563 835h91l-260 -263z" />
    <glyph glyph-name="Rcaron.sc" horiz-adv-x="607" 
d="M139 36h82l-14 -36h-242l14 36h81l184 478h-80l13 36h230q82 0 128 -29.5t46 -82.5q0 -67 -58.5 -114t-155.5 -62l146 -262h-85l-138 257h-66zM388 514h-65l-85 -222h63q85 0 141.5 40.5t56.5 104.5q0 39 -27.5 58t-83.5 19zM403 862l28 -190l183 190l-177 -261h-58z" />
    <glyph glyph-name="Rcommaaccent.sc" horiz-adv-x="607" 
d="M139 36h82l-14 -36h-242l14 36h81l184 478h-80l13 36h230q82 0 128 -29.5t46 -82.5q0 -67 -58.5 -114t-155.5 -62l146 -262h-85l-138 257h-66zM388 514h-65l-85 -222h63q85 0 141.5 40.5t56.5 104.5q0 39 -27.5 58t-83.5 19zM151 -130q0 24 18 41.5t45 17.5
q28 0 44.5 -17t16.5 -46q0 -50 -52 -90.5t-124 -40.5q52 23 83.5 49.5t45.5 59.5h-65q-5 3 -8.5 10t-3.5 16z" />
    <glyph glyph-name="Sacute.sc" horiz-adv-x="478" 
d="M322 522q-47 0 -77.5 -26.5t-30.5 -66.5q0 -24 15.5 -45.5t67.5 -58.5q63 -44 83 -74.5t20 -66.5q0 -78 -65 -136t-157 -58q-51 0 -100 20.5t-74 52.5l31 127q9 -72 54 -116t107 -44q57 0 94.5 32.5t37.5 84.5q0 29 -16.5 53.5t-69.5 61.5q-56 40 -73.5 67t-17.5 59
q0 74 50.5 123t127.5 49q36 0 68 -14t50 -36l74 47l-71 -180q-10 68 -43.5 106.5t-84.5 38.5zM531 835h91l-260 -263z" />
    <glyph glyph-name="Scaron.sc" horiz-adv-x="478" 
d="M322 522q-47 0 -77.5 -26.5t-30.5 -66.5q0 -24 15.5 -45.5t67.5 -58.5q63 -44 83 -74.5t20 -66.5q0 -78 -65 -136t-157 -58q-51 0 -100 20.5t-74 52.5l31 127q9 -72 54 -116t107 -44q57 0 94.5 32.5t37.5 84.5q0 29 -16.5 53.5t-69.5 61.5q-56 40 -73.5 67t-17.5 59
q0 74 50.5 123t127.5 49q36 0 68 -14t50 -36l74 47l-71 -180q-10 68 -43.5 106.5t-84.5 38.5zM385 862l28 -190l183 190l-177 -261h-58z" />
    <glyph glyph-name="Scedilla.sc" horiz-adv-x="478" 
d="M4 63l31 127q9 -72 54 -116t107 -44q57 0 94.5 32.5t37.5 84.5q0 29 -16.5 53.5t-69.5 61.5q-56 40 -73.5 67t-17.5 59q0 74 50.5 123t127.5 49q36 0 68 -14t50 -36l74 47l-71 -180q-10 68 -43.5 106.5t-84.5 38.5q-47 0 -77.5 -26.5t-30.5 -66.5q0 -24 15.5 -45.5
t67.5 -58.5q63 -44 83 -74.5t20 -66.5q0 -78 -65 -136t-157 -58h-4.5h-4.5l-15 -56q26 -12 40 -29t14 -37q0 -50 -57 -92.5t-112 -42.5q-22 0 -35 10t-13 27q0 18 16 30t38 11l19 -57q35 6 63 32t28 56q0 20 -15.5 33.5t-49.5 22.5l67 93q-46 4 -88 24t-65 48z" />
    <glyph glyph-name="Scircumflex.sc" horiz-adv-x="478" 
d="M322 522q-47 0 -77.5 -26.5t-30.5 -66.5q0 -24 15.5 -45.5t67.5 -58.5q63 -44 83 -74.5t20 -66.5q0 -78 -65 -136t-157 -58q-51 0 -100 20.5t-74 52.5l31 127q9 -72 54 -116t107 -44q57 0 94.5 32.5t37.5 84.5q0 29 -16.5 53.5t-69.5 61.5q-56 40 -73.5 67t-17.5 59
q0 74 50.5 123t127.5 49q36 0 68 -14t50 -36l74 47l-71 -180q-10 68 -43.5 106.5t-84.5 38.5zM474 574l-28 190l-183 -190l177 261h58z" />
    <glyph glyph-name="Scommaaccent.sc" horiz-adv-x="478" 
d="M322 522q-47 0 -77.5 -26.5t-30.5 -66.5q0 -24 15.5 -45.5t67.5 -58.5q63 -44 83 -74.5t20 -66.5q0 -78 -65 -136t-157 -58q-51 0 -100 20.5t-74 52.5l31 127q9 -72 54 -116t107 -44q57 0 94.5 32.5t37.5 84.5q0 29 -16.5 53.5t-69.5 61.5q-56 40 -73.5 67t-17.5 59
q0 74 50.5 123t127.5 49q36 0 68 -14t50 -36l74 47l-71 -180q-10 68 -43.5 106.5t-84.5 38.5zM61 -130q0 24 18 41.5t45 17.5q28 0 44.5 -17t16.5 -46q0 -50 -52 -90.5t-124 -40.5q52 23 83.5 49.5t45.5 59.5h-65q-5 3 -8.5 10t-3.5 16z" />
    <glyph glyph-name="Tbar.sc" horiz-adv-x="616" 
d="M283 265h-108l18 36h104l82 213h-129l-139 -126l71 185l35 -23h430l51 23l-68 -185l-31 126h-141l-82 -213h107l-18 -36h-103l-88 -229h94l-14 -36h-266l13 36h94z" />
    <glyph glyph-name="Tcaron.sc" horiz-adv-x="616" 
d="M182 573l35 -23h430l51 23l-68 -185l-31 126h-141l-184 -478h94l-14 -36h-266l13 36h94l184 478h-129l-139 -126zM446 862l28 -190l183 190l-177 -261h-58z" />
    <glyph glyph-name="Tcommaaccent.sc" horiz-adv-x="616" 
d="M262 -132q0 -50 -57 -92.5t-112 -42.5q-22 0 -35 10t-13 27q0 18 16 30t38 11l19 -57q35 6 63 32t28 56q0 20 -15.5 33.5t-49.5 22.5l73 102h-129l13 36h94l184 478h-129l-139 -126l71 185l35 -23h430l51 23l-68 -185l-31 126h-141l-184 -478h94l-14 -36h-129l-17 -66
q26 -12 40 -29t14 -37z" />
    <glyph glyph-name="Thorn.sc" horiz-adv-x="546" 
d="M138 36h105l-14 -36h-264l13 36h82l184 478h-81l13 36h243l-14 -36h-83l-30 -76h59q85 0 133 -33t48 -91q0 -78 -72 -131t-168 -55l-52 28q95 3 154 48t59 112q0 43 -30.5 64.5t-90.5 21.5h-53z" />
    <glyph glyph-name="Uacute.sc" horiz-adv-x="652" 
d="M286 48q72 0 124 42t84 125l115 299h-85l14 36h207l-14 -36h-81l-119 -310q-42 -108 -110.5 -161t-165.5 -53q-73 0 -118.5 38.5t-45.5 102.5q0 17 5 39t15 48l113 296h-81l13 36h243l-13 -36h-82l-115 -299q-10 -28 -14 -45t-4 -30q0 -44 29.5 -68t85.5 -24zM634 835h91
l-260 -263z" />
    <glyph glyph-name="Ubreve.sc" horiz-adv-x="652" 
d="M286 48q72 0 124 42t84 125l115 299h-85l14 36h207l-14 -36h-81l-119 -310q-42 -108 -110.5 -161t-165.5 -53q-73 0 -118.5 38.5t-45.5 102.5q0 17 5 39t15 48l113 296h-81l13 36h243l-13 -36h-82l-115 -299q-10 -28 -14 -45t-4 -30q0 -44 29.5 -68t85.5 -24zM483 848
q-25 -117 -20.5 -157.5t34.5 -40.5q35 0 71.5 41.5t96.5 156.5q-22 -110 -72.5 -183t-108.5 -73q-60 0 -59.5 76t58.5 180z" />
    <glyph glyph-name="Ucircumflex.sc" horiz-adv-x="652" 
d="M286 48q72 0 124 42t84 125l115 299h-85l14 36h207l-14 -36h-81l-119 -310q-42 -108 -110.5 -161t-165.5 -53q-73 0 -118.5 38.5t-45.5 102.5q0 17 5 39t15 48l113 296h-81l13 36h243l-13 -36h-82l-115 -299q-10 -28 -14 -45t-4 -30q0 -44 29.5 -68t85.5 -24zM577 574
l-28 190l-183 -190l177 261h58z" />
    <glyph glyph-name="Udieresis.sc" horiz-adv-x="652" 
d="M286 48q72 0 124 42t84 125l115 299h-85l14 36h207l-14 -36h-81l-119 -310q-42 -108 -110.5 -161t-165.5 -53q-73 0 -118.5 38.5t-45.5 102.5q0 17 5 39t15 48l113 296h-81l13 36h243l-13 -36h-82l-115 -299q-10 -28 -14 -45t-4 -30q0 -44 29.5 -68t85.5 -24zM649 707
q0 -21 -15 -35.5t-37 -14.5t-36.5 14.5t-14.5 35.5t14.5 36t36.5 15t37 -15t15 -36zM499 707q0 -21 -14.5 -35.5t-36.5 -14.5t-36.5 14.5t-14.5 35.5t14.5 36t36.5 15q21 0 36 -15t15 -36z" />
    <glyph glyph-name="Ugrave.sc" horiz-adv-x="652" 
d="M286 48q72 0 124 42t84 125l115 299h-85l14 36h207l-14 -36h-81l-119 -310q-42 -108 -110.5 -161t-165.5 -53q-73 0 -118.5 38.5t-45.5 102.5q0 17 5 39t15 48l113 296h-81l13 36h243l-13 -36h-82l-115 -299q-10 -28 -14 -45t-4 -30q0 -44 29.5 -68t85.5 -24zM502 572
l-92 263h80z" />
    <glyph glyph-name="Uhungarumlaut.sc" horiz-adv-x="652" 
d="M286 48q72 0 124 42t84 125l115 299h-85l14 36h207l-14 -36h-81l-119 -310q-42 -108 -110.5 -161t-165.5 -53q-73 0 -118.5 38.5t-45.5 102.5q0 17 5 39t15 48l113 296h-81l13 36h243l-13 -36h-82l-115 -299q-10 -28 -14 -45t-4 -30q0 -44 29.5 -68t85.5 -24zM524 835h82
l-214 -263zM659 835h82l-214 -263z" />
    <glyph glyph-name="Umacron.sc" horiz-adv-x="652" 
d="M286 48q72 0 124 42t84 125l115 299h-85l14 36h207l-14 -36h-81l-119 -310q-42 -108 -110.5 -161t-165.5 -53q-73 0 -118.5 38.5t-45.5 102.5q0 17 5 39t15 48l113 296h-81l13 36h243l-13 -36h-82l-115 -299q-10 -28 -14 -45t-4 -30q0 -44 29.5 -68t85.5 -24zM386 670
l45 44h236l-44 -44h-237z" />
    <glyph glyph-name="Uogonek.sc" horiz-adv-x="652" 
d="M286 48q72 0 124 42t84 125l115 299h-85l14 36h207l-14 -36h-81l-119 -310q-26 -66 -66 -114t-95 -79q-60 -34 -102.5 -86.5t-42.5 -93.5q0 -26 16.5 -38.5t50.5 -12.5h40q-26 -24 -48 -35t-46 -11q-31 0 -49.5 18.5t-18.5 49.5q0 41 41.5 94.5t110.5 100.5
q-15 -4 -31.5 -5.5t-35.5 -1.5q-73 0 -118.5 38.5t-45.5 102.5q0 17 5 39t15 48l113 296h-81l13 36h243l-13 -36h-82l-115 -299q-10 -28 -14 -45t-4 -30q0 -44 29.5 -68t85.5 -24z" />
    <glyph glyph-name="Uring.sc" horiz-adv-x="652" 
d="M286 48q72 0 124 42t84 125l115 299h-85l14 36h207l-14 -36h-81l-119 -310q-42 -108 -110.5 -161t-165.5 -53q-73 0 -118.5 38.5t-45.5 102.5q0 17 5 39t15 48l113 296h-81l13 36h243l-13 -36h-82l-115 -299q-10 -28 -14 -45t-4 -30q0 -44 29.5 -68t85.5 -24zM427 698
q0 45 32 76t79 31q35 0 58.5 -24t23.5 -59q0 -45 -32 -76t-78 -31q-35 0 -59 24t-24 59zM588 721q0 23 -15 37.5t-38 14.5q-32 0 -53.5 -21t-21.5 -53q0 -23 14.5 -38t38.5 -15q32 0 53.5 21.5t21.5 53.5z" />
    <glyph glyph-name="Utilde.sc" horiz-adv-x="652" 
d="M286 48q72 0 124 42t84 125l115 299h-85l14 36h207l-14 -36h-81l-119 -310q-42 -108 -110.5 -161t-165.5 -53q-73 0 -118.5 38.5t-45.5 102.5q0 17 5 39t15 48l113 296h-81l13 36h243l-13 -36h-82l-115 -299q-10 -28 -14 -45t-4 -30q0 -44 29.5 -68t85.5 -24zM712 815
l-118 -160l-99 52q-23 -7 -58 -31.5t-82 -65.5l118 160l99 -52q24 7 58.5 31.5t81.5 65.5z" />
    <glyph glyph-name="Wacute.sc" horiz-adv-x="823" 
d="M624 514h-97l-40 -387l313 387h-99l14 36h213l-13 -36h-66l-442 -546l35 376l-297 -376l52 546h-66l14 36h492zM458 514h-191l-40 -387l221 275zM686 835h91l-260 -263z" />
    <glyph glyph-name="Wcircumflex.sc" horiz-adv-x="823" 
d="M624 514h-97l-40 -387l313 387h-99l14 36h213l-13 -36h-66l-442 -546l35 376l-297 -376l52 546h-66l14 36h492zM458 514h-191l-40 -387l221 275zM639 574l-28 190l-183 -190l177 261h58z" />
    <glyph glyph-name="Wgrave.sc" horiz-adv-x="823" 
d="M624 514h-97l-40 -387l313 387h-99l14 36h213l-13 -36h-66l-442 -546l35 376l-297 -376l52 546h-66l14 36h492zM458 514h-191l-40 -387l221 275zM542 572l-92 263h80z" />
    <glyph glyph-name="Wdieresis.sc" horiz-adv-x="823" 
d="M624 514h-97l-40 -387l313 387h-99l14 36h213l-13 -36h-66l-442 -546l35 376l-297 -376l52 546h-66l14 36h492zM458 514h-191l-40 -387l221 275zM698 707q0 -21 -15 -35.5t-37 -14.5t-36.5 14.5t-14.5 35.5t14.5 36t36.5 15t37 -15t15 -36zM548 707q0 -21 -14.5 -35.5
t-36.5 -14.5t-36.5 14.5t-14.5 35.5t14.5 36t36.5 15q21 0 36 -15t15 -36z" />
    <glyph glyph-name="Yacute.sc" horiz-adv-x="647" 
d="M681 441l-72 69q-58 -20 -119.5 -83.5t-104.5 -144.5l-94 -246h94l-13 -36h-265l13 36h95l98 254q18 96 -3 151t-77 55q-31 0 -61 -16.5t-60 -51.5q23 61 65 96t93 35q70 0 99 -68t8 -166q53 103 130.5 168.5t151.5 65.5q29 0 46 -14t17 -37q0 -19 -11 -37t-30 -30z
M619 835h91l-260 -263z" />
    <glyph glyph-name="Ycircumflex.sc" horiz-adv-x="647" 
d="M681 441l-72 69q-58 -20 -119.5 -83.5t-104.5 -144.5l-94 -246h94l-13 -36h-265l13 36h95l98 254q18 96 -3 151t-77 55q-31 0 -61 -16.5t-60 -51.5q23 61 65 96t93 35q70 0 99 -68t8 -166q53 103 130.5 168.5t151.5 65.5q29 0 46 -14t17 -37q0 -19 -11 -37t-30 -30z
M564 574l-28 190l-183 -190l177 261h58z" />
    <glyph glyph-name="Ydieresis.sc" horiz-adv-x="647" 
d="M681 441l-72 69q-58 -20 -119.5 -83.5t-104.5 -144.5l-94 -246h94l-13 -36h-265l13 36h95l98 254q18 96 -3 151t-77 55q-31 0 -61 -16.5t-60 -51.5q23 61 65 96t93 35q70 0 99 -68t8 -166q53 103 130.5 168.5t151.5 65.5q29 0 46 -14t17 -37q0 -19 -11 -37t-30 -30z
M642 707q0 -21 -15 -35.5t-37 -14.5t-36.5 14.5t-14.5 35.5t14.5 36t36.5 15t37 -15t15 -36zM492 707q0 -21 -14.5 -35.5t-36.5 -14.5t-36.5 14.5t-14.5 35.5t14.5 36t36.5 15q21 0 36 -15t15 -36z" />
    <glyph glyph-name="Ygrave.sc" horiz-adv-x="647" 
d="M681 441l-72 69q-58 -20 -119.5 -83.5t-104.5 -144.5l-94 -246h94l-13 -36h-265l13 36h95l98 254q18 96 -3 151t-77 55q-31 0 -61 -16.5t-60 -51.5q23 61 65 96t93 35q70 0 99 -68t8 -166q53 103 130.5 168.5t151.5 65.5q29 0 46 -14t17 -37q0 -19 -11 -37t-30 -30z
M486 572l-92 263h80z" />
    <glyph glyph-name="Zacute.sc" horiz-adv-x="569" 
d="M88 36h249l174 149l-96 -185h-458l557 514h-234l-136 -126l68 185l34 -23h397zM571 835h91l-260 -263z" />
    <glyph glyph-name="Zcaron.sc" horiz-adv-x="569" 
d="M88 36h249l174 149l-96 -185h-458l557 514h-234l-136 -126l68 185l34 -23h397zM424 862l28 -190l183 190l-177 -261h-58z" />
    <glyph glyph-name="Zdotaccent.sc" horiz-adv-x="569" 
d="M88 36h249l174 149l-96 -185h-458l557 514h-234l-136 -126l68 185l34 -23h397zM526 722q0 -22 -15.5 -37.5t-38.5 -15.5t-38 15.5t-15 37.5t15.5 37.5t37.5 15.5t38 -15.5t16 -37.5z" />
    <glyph glyph-name="ampersand.sc" horiz-adv-x="904" 
d="M481 558l-114 63h225l-453 -492q30 -54 93 -86t140 -32q115 0 194 64t79 159q0 63 -30.5 101.5t-81.5 38.5q-38 0 -64.5 -25t-26.5 -62q0 -33 20 -53t51 -20l1 80q28 0 46 -13.5t18 -36.5q0 -26 -19 -43t-49 -17q-40 0 -68 29.5t-28 73.5q0 54 42 92t100 38
q54 0 112.5 -34t139.5 -119l46 41l-58 60q5 16 18.5 26.5t29.5 10.5q19 0 31.5 -13t12.5 -35q0 -42 -39.5 -84t-86.5 -55l-115 114l-11 -1q18 -24 28.5 -57t10.5 -68q0 -109 -89 -186.5t-215 -77.5q-120 0 -202.5 73.5t-82.5 182.5t85.5 180t200.5 56zM117 214
q0 -17 3 -33.5t9 -31.5l187 216q-82 17 -140.5 -27t-58.5 -124z" />
    <glyph glyph-name="caron.Slovak" horiz-adv-x="500" 
d="M421 770h87l-225 -263z" />
    <glyph glyph-name="commaturn" horiz-adv-x="500" 
d="M455 597q0 -24 -18 -41.5t-45 -17.5q-28 0 -44.5 17t-16.5 46q0 50 52 90.5t124 40.5q-52 -23 -83.5 -49.5t-45.5 -59.5h65q5 -3 8.5 -10t3.5 -16z" />
    <glyph glyph-name="grave.cap" horiz-adv-x="500" 
d="M572 739l-221 122l99 35z" />
    <glyph glyph-name="acute.cap" horiz-adv-x="500" 
d="M549 896l76 -47l-309 -110z" />
    <glyph glyph-name="circumflex.cap" horiz-adv-x="500" 
d="M272 733l199 168h78l69 -168l-121 113z" />
    <glyph glyph-name="tilde.cap" horiz-adv-x="500" 
d="M683 933l-123 -161l-133 53q-26 -8 -62 -32t-81 -62l123 161l133 -54q28 10 64.5 34.5t78.5 60.5z" />
    <glyph glyph-name="macron.cap" horiz-adv-x="500" 
d="M291 768l48 47h305l-48 -47h-305z" />
    <glyph glyph-name="breve.cap" horiz-adv-x="500" 
d="M678 920q-31 -80 -96.5 -131t-134.5 -51q-64 0 -91 52t3 130q2 -64 26.5 -94t73.5 -30q55 0 112.5 32.5t106.5 91.5z" />
    <glyph glyph-name="dotaccent.cap" horiz-adv-x="500" 
d="M526 804q0 -23 -15.5 -38t-38.5 -15t-38 15t-15 38t15 38t38 15t38.5 -15.5t15.5 -37.5z" />
    <glyph glyph-name="dieresis.cap" horiz-adv-x="500" 
d="M623 809q0 -21 -15 -35.5t-37 -14.5t-36.5 14.5t-14.5 35.5q0 22 14.5 36.5t36.5 14.5t37 -15t15 -36zM430 809q0 -21 -15 -35.5t-37 -14.5t-36.5 14.5t-14.5 35.5t14.5 36t36.5 15t37 -15t15 -36z" />
    <glyph glyph-name="ring.cap" horiz-adv-x="500" 
d="M379 818q0 48 34.5 81t84.5 33q38 0 63 -26t25 -64q0 -48 -34.5 -81t-83.5 -33q-38 0 -63.5 26t-25.5 64zM550 842q0 24 -15.5 39t-40.5 15q-34 0 -56 -22t-22 -56q0 -24 15 -39t40 -15q34 0 56.5 22t22.5 56z" />
    <glyph glyph-name="hungarumlaut.cap" horiz-adv-x="500" 
d="M433 739l171 155l100 -17zM245 739l171 155l101 -17z" />
    <glyph glyph-name="caron.cap" horiz-adv-x="500" 
d="M686 908l-199 -168h-78l-69 168l121 -113z" />
    <glyph glyph-name="exclam.sc" horiz-adv-x="294" 
d="M264 559q24 0 36 -19.5t5 -47.5l-189 -333l83 343q9 27 26.5 42t38.5 15zM81 116q27 0 44.5 -18t17.5 -45q0 -26 -17.5 -43.5t-44.5 -17.5q-26 0 -43.5 17.5t-17.5 43.5t17.5 44.5t43.5 18.5z" />
    <glyph glyph-name="exclamdown.sc" horiz-adv-x="294" 
d="M69 -11q-24 0 -36 19.5t-5 47.5l189 333l-83 -343q-9 -27 -26.5 -42t-38.5 -15zM252 432q-27 0 -44.5 18t-17.5 45q0 26 17.5 43.5t44.5 17.5q26 0 43.5 -17.5t17.5 -43.5t-17.5 -44.5t-43.5 -18.5z" />
    <glyph glyph-name="question.sc" horiz-adv-x="413" 
d="M365 447q0 34 -26 59.5t-63 28.5l-72 -101q-18 1 -31 15.5t-13 33.5q0 34 31.5 55.5t82.5 21.5q60 0 103.5 -41.5t43.5 -98.5q0 -78 -69.5 -135t-187.5 -78l-42 65q110 16 176.5 63.5t66.5 111.5zM76 53q0 26 17.5 44.5t43.5 18.5q27 0 44.5 -18t17.5 -45
q0 -26 -17.5 -43.5t-44.5 -17.5q-26 0 -43.5 17.5t-17.5 43.5z" />
    <glyph glyph-name="questiondown.sc" horiz-adv-x="413" 
d="M87 103q0 -34 26 -59.5t63 -28.5l72 101q18 -1 31 -15.5t13 -33.5q0 -34 -31.5 -55.5t-82.5 -21.5q-60 0 -103.5 41.5t-43.5 98.5q0 78 69.5 135t187.5 78l42 -65q-110 -16 -176.5 -63.5t-66.5 -111.5zM376 497q0 -26 -17.5 -44.5t-43.5 -18.5q-27 0 -44.5 18t-17.5 45
q0 26 17.5 43.5t44.5 17.5q26 0 43.5 -17.5t17.5 -43.5z" />
    <glyph glyph-name="guilsinglleft.cap" horiz-adv-x="305" 
d="M224 149l-125 199l279 198l-189 -210z" />
    <glyph glyph-name="guilsinglright.cap" horiz-adv-x="306" 
d="M177 545l125 -199l-279 -198l189 210z" />
    <glyph glyph-name="guillemotleft.cap" horiz-adv-x="477" 
d="M395 148l-125 199l279 198l-189 -210zM224 148l-125 199l279 198l-189 -210z" />
    <glyph glyph-name="guillemotright.cap" horiz-adv-x="478" 
d="M177 545l125 -199l-279 -198l189 210zM349 545l125 -199l-279 -198l189 210z" />
    <glyph glyph-name="slash.cap" horiz-adv-x="422" 
d="M-91 -117l626 864h48l-626 -864h-48z" />
    <glyph glyph-name="backslash.cap" horiz-adv-x="416" 
d="M241 747h41l-37 -864h-40z" />
    <glyph glyph-name="bar.cap" horiz-adv-x="328" 
d="M343 747h44l-332 -864h-44z" />
    <glyph glyph-name="periodcentered.cap" horiz-adv-x="278" 
d="M181 395q25 0 42.5 -17.5t17.5 -43.5q0 -25 -17.5 -42t-42.5 -17t-42.5 17.5t-17.5 41.5q0 25 17.5 43t42.5 18z" />
    <glyph glyph-name="bullet.cap" horiz-adv-x="427" 
d="M131 354q0 55 39 94t94 39t94 -39t39 -94t-39 -94t-94 -39t-94 39t-39 94z" />
    <glyph glyph-name="hyphen.cap" horiz-adv-x="393" 
d="M133 360h241l-27 -49h-241z" />
    <glyph glyph-name="endash.cap" horiz-adv-x="644" 
d="M108 317l29 42h487l-29 -42h-487z" />
    <glyph glyph-name="emdash.cap" horiz-adv-x="1034" 
d="M108 317l29 42h877l-29 -42h-877z" />
    <glyph glyph-name="parenleft.cap" horiz-adv-x="404" 
d="M545 747q-188 -148 -285.5 -318.5t-97.5 -348.5q0 -47 8 -99t23 -99q-47 65 -71 133t-24 137q0 170 117 326.5t330 268.5z" />
    <glyph glyph-name="parenright.cap" horiz-adv-x="404" 
d="M-71 -118q188 148 285.5 318.5t97.5 348.5q0 47 -8 99t-23 99q47 -65 71 -133t24 -137q0 -170 -117 -326.5t-330 -268.5z" />
    <glyph glyph-name="bracketleft.cap" horiz-adv-x="432" 
d="M234 -107h-226l323 847h226l-14 -39h-172l-294 -769h172z" />
    <glyph glyph-name="bracketright.cap" horiz-adv-x="432" 
d="M269 740h226l-323 -847h-226l14 39h172l294 769h-172z" />
    <glyph glyph-name="braceleft.cap" horiz-adv-x="442" 
d="M199 231q0 29 -36 50.5t-103 32.5q135 25 179.5 58.5t49.5 94.5q2 11 2.5 23.5t-0.5 38.5q0 27 0.5 40.5t2.5 25.5q6 63 59 106.5t129 43.5q26 0 55 -6.5t42 -14.5q-85 -1 -136 -26t-75 -77q-5 -12 -9.5 -30.5t-10.5 -62.5q-7 -47 -12 -69t-11 -38q-16 -41 -65.5 -69.5
t-114.5 -37.5q43 -8 71 -29.5t28 -49.5q0 -16 -11.5 -41t-49.5 -81q-42 -62 -55 -90.5t-13 -48.5q0 -33 34 -50.5t101 -18.5q-19 -9 -49.5 -15t-56.5 -6q-48 0 -75 20.5t-27 56.5q0 26 17 58.5t71 97.5q43 52 56 75t13 39z" />
    <glyph glyph-name="braceright.cap" horiz-adv-x="442" 
d="M313 398q0 -29 36 -50.5t103 -32.5q-135 -25 -179.5 -58.5t-49.5 -94.5q-2 -11 -2.5 -23.5t0.5 -38.5q0 -27 -0.5 -40.5t-2.5 -25.5q-6 -63 -59 -106.5t-129 -43.5q-26 0 -55 6.5t-42 14.5q85 1 136 26t75 77q5 12 9.5 30.5t10.5 62.5q7 47 12 69t11 38q16 41 65.5 69.5
t114.5 37.5q-43 8 -71 29.5t-28 49.5q0 16 11.5 41t49.5 81q42 62 55 90.5t13 48.5q0 33 -34 50.5t-101 18.5q19 9 49.5 15t56.5 6q48 0 75 -20.5t27 -56.5q0 -26 -17 -58.5t-71 -97.5q-43 -52 -56 -75t-13 -39z" />
    <glyph glyph-name="at.cap" horiz-adv-x="875" 
d="M723 559l-179 -419q114 16 198 116t84 227q0 104 -55.5 159.5t-161.5 55.5q-92 0 -177.5 -41.5t-154.5 -119.5q-65 -73 -102 -164.5t-37 -180.5q0 -123 81 -196t216 -73q72 0 146 16.5t143 47.5q-63 -50 -146 -79t-166 -29q-150 0 -242.5 86t-92.5 224q0 97 43.5 196.5
t120.5 179.5q77 79 173.5 122t200.5 43q127 0 199 -67.5t72 -183.5q0 -76 -35 -147t-99 -124q-58 -49 -132.5 -74.5t-156.5 -25.5l75 155h-12q-53 -72 -106.5 -115t-89.5 -43q-22 0 -35 22.5t-12 58.5q2 53 26 113t65 114q46 61 99.5 96t102.5 35q22 0 41.5 -7.5t36.5 -22.5
zM544 518q-72 -43 -134.5 -156.5t-69.5 -215.5q36 0 105 59.5t110 121.5l62 141q-12 22 -31.5 35.5t-41.5 14.5z" />
    <glyph glyph-name="florin.lt" 
d="M327 274l-107 -240q-87 -197 -140 -260.5t-112 -63.5q-24 0 -37 14t-13 38q0 11 2 21.5t7 21.5l133 -19l195 488h-130l16 36h129l14 36q76 189 146.5 271.5t154.5 82.5q30 0 48 -12t18 -32q0 -19 -9.5 -35.5t-24.5 -25.5l-124 52l-150 -337h139l-17 -36h-138z" />
    <glyph glyph-name="Euro.lt" 
d="M305 -10q-77 0 -124 57.5t-47 151.5q0 16 1 32.5t4 36.5h-85l14 36h78q5 22 12 43.5t15 43.5h-72l14 36h73q57 123 148 198t187 75q34 0 63 -15t50 -43l83 58l-83 -215q-9 89 -38.5 132t-81.5 43q-76 0 -147.5 -64t-115.5 -169h236l-26 -36h-223q-6 -17 -11.5 -37.5
t-11.5 -49.5h194l-27 -36h-171q-2 -12 -2.5 -24.5t-0.5 -24.5q0 -79 34.5 -121.5t99.5 -42.5q53 0 107 31.5t109 94.5q-41 -90 -109 -140.5t-146 -50.5z" />
    <glyph glyph-name="dollar.lt" horiz-adv-x="599" 
d="M478 693l53 117h34l-58 -128q19 -8 36 -21t30 -28l86 63l-84 -209q-7 53 -30 93t-57 60l-110 -241q79 -55 103.5 -92.5t24.5 -82.5q0 -93 -79.5 -163t-192.5 -70q-10 0 -20.5 1t-19.5 2l-54 -120h-34l57 126q-44 11 -81.5 34t-58.5 53l36 134q7 -62 40 -107.5t86 -65.5
l135 298q-67 49 -88.5 82t-21.5 72q0 84 62 141.5t155 57.5q13 0 26 -1.5t25 -4.5zM417 658q-63 0 -102.5 -35t-39.5 -91q0 -30 17.5 -56.5t60.5 -57.5l106 234q-10 3 -20.5 4.5t-21.5 1.5zM258 35q74 0 124.5 45t50.5 116q0 35 -19 65t-68 66l-131 -288q9 -2 19.5 -3
t23.5 -1z" />
    <glyph glyph-name="cent.lt" 
d="M398 456l62 133h34l-61 -131q29 -1 46 -12.5t17 -29.5q0 -14 -10.5 -29t-29.5 -27l-55 30l-163 -349l155 71q-26 -45 -79.5 -81.5t-99.5 -40.5l-54 -116h-34l56 121q-30 11 -48.5 43.5t-18.5 75.5q0 54 22.5 111.5t62.5 107.5q41 52 92.5 84t105.5 39zM183 134
q0 -29 5.5 -52.5t16.5 -38.5l169 362l-30 16q-68 -43 -114.5 -125t-46.5 -162z" />
    <glyph glyph-name="sterling.lt" 
d="M12 -7q-27 0 -43 19.5t-12 49.5l135 26l86 165h-102l23 36h97l106 203q57 111 117.5 159.5t137.5 48.5q39 0 63.5 -16t24.5 -42q0 -20 -10.5 -36.5t-29.5 -27.5l-109 86l-240 -375h174l-25 -36h-172l-108 -169l333 -161l21 21l-66 72q6 17 20.5 27t33.5 10
q24 0 40.5 -17.5t16.5 -44.5q0 -42 -42.5 -78.5t-94.5 -46.5l-277 196q-25 -37 -48 -53t-50 -16z" />
    <glyph glyph-name="yen.lt" horiz-adv-x="599" 
d="M262 230h-176l24 36h166l33 86h-176l24 36h144l-61 263h-65l16 39h249l-16 -39h-104l55 -259l256 259h-105l16 39h225l-16 -39h-64l-266 -263h159l-24 -36h-171l-33 -86h181l-24 -36h-171l-73 -191h112l-15 -39h-301l15 39h113z" />
    <glyph glyph-name="zero.op" horiz-adv-x="481" 
d="M121 374q40 54 90.5 85t99.5 31q63 0 100 -46t37 -124q0 -54 -20 -110t-56 -104q-41 -54 -91 -85t-99 -31q-63 0 -100 46t-37 124q0 54 20 110t56 104zM389 318q0 57 -21 88t-60 31q-79 0 -141.5 -87t-62.5 -188q0 -57 21 -88t60 -31q79 0 141.5 87t62.5 188z" />
    <glyph glyph-name="one.op" horiz-adv-x="409" 
d="M112 38l129 337h-164l285 115l-174 -452h124l-14 -38h-325l14 38h125z" />
    <glyph glyph-name="two.op" horiz-adv-x="457" 
d="M395 75l-96 -75h-363q119 79 158 105.5t69 48.5q90 67 130.5 115.5t40.5 89.5q0 30 -20 47.5t-56 17.5q-42 0 -84.5 -19.5t-91.5 -61.5q41 67 102.5 107t125.5 40q51 0 81.5 -28.5t30.5 -75.5q0 -61 -77.5 -133t-241.5 -163v-15h292z" />
    <glyph glyph-name="three.op" horiz-adv-x="403" 
d="M-87 -140l83 -96q96 16 160 75.5t64 135.5q0 59 -54 96.5t-140 37.5q160 80 220.5 136t60.5 115q0 30 -19 46t-55 16q-33 0 -72.5 -16.5t-76.5 -45.5q44 63 97.5 96.5t112.5 33.5q45 0 72 -24.5t27 -64.5q0 -62 -55.5 -121t-170.5 -116v-15q62 -19 94.5 -56t32.5 -90
q0 -49 -32.5 -101t-88.5 -93q-50 -36 -107.5 -56t-114.5 -20q-38 0 -61.5 17.5t-23.5 45.5q0 20 13.5 39t33.5 25z" />
    <glyph glyph-name="four.op" horiz-adv-x="576" 
d="M315 0l-98 -256h-69l98 256h-323l582 494l-166 -433h187l-77 -61h-134zM48 61h221l109 285z" />
    <glyph glyph-name="five.op" horiz-adv-x="381" 
d="M282 105q0 -81 -43 -150.5t-125 -121.5q-65 -42 -147.5 -68t-168.5 -31q192 57 296 151.5t104 215.5q0 62 -36 111.5t-102 79.5l139 188h240l-68 -75h-187l-59 -79q73 -38 115 -96.5t42 -124.5z" />
    <glyph glyph-name="six.op" horiz-adv-x="508" 
d="M461 257q0 -104 -78 -185.5t-176 -81.5q-73 0 -114.5 51.5t-41.5 137.5q0 92 62 193t171 187q89 71 195.5 119.5t219.5 69.5q-179 -78 -309 -176.5t-199 -206.5h19q36 25 60.5 33.5t52.5 8.5q62 0 100 -41.5t38 -108.5zM213 27q69 0 120.5 64t51.5 149q0 57 -30.5 88.5
t-86.5 31.5q-24 0 -49 -8t-49 -24q-24 -44 -36 -89.5t-12 -91.5q0 -59 23 -89.5t68 -30.5z" />
    <glyph glyph-name="seven.op" horiz-adv-x="482" 
d="M563 480l-656 -736h-54l589 661h-370l68 75h423z" />
    <glyph glyph-name="eight.op" horiz-adv-x="475" 
d="M433 228q0 -91 -74.5 -164.5t-172.5 -73.5q-69 0 -115 43.5t-46 108.5q0 71 52 132.5t151 107.5v24q-32 36 -46 67.5t-14 64.5q0 89 66 158t157 69q63 0 103.5 -38.5t40.5 -97.5q0 -70 -47 -124.5t-141 -94.5v-22q49 -49 67.5 -85t18.5 -75zM384 729q-61 0 -105.5 -49
t-44.5 -112q0 -35 17.5 -68.5t65.5 -81.5q73 35 113 90t40 124q0 44 -23.5 70.5t-62.5 26.5zM259 374q-75 -37 -120.5 -100.5t-45.5 -132.5q0 -52 27 -84.5t72 -32.5q67 0 118.5 55t51.5 125q0 24 -8.5 47.5t-25.5 47.5q-8 11 -19 23.5t-50 51.5z" />
    <glyph glyph-name="nine.op" horiz-adv-x="507" 
d="M59 224q0 104 78 185.5t176 81.5q73 0 114.5 -51.5t41.5 -137.5q0 -92 -62 -193t-171 -187q-89 -71 -195.5 -119.5t-219.5 -69.5q179 78 309 176.5t199 206.5h-19q-36 -25 -60.5 -33.5t-52.5 -8.5q-62 0 -100 41.5t-38 108.5zM307 454q-69 0 -120.5 -64t-51.5 -149
q0 -57 30.5 -88.5t86.5 -31.5q24 0 49 8t49 24q24 44 36 89.5t12 91.5q0 59 -23 89.5t-68 30.5z" />
    <glyph glyph-name="zero.lt" 
d="M468 700q66 0 106 -55t40 -146q0 -78 -29 -163.5t-81 -160.5q-61 -87 -134.5 -136t-144.5 -49q-67 0 -106.5 55t-39.5 146q0 78 29 163.5t81 160.5q60 87 134 136t145 49zM457 230q38 73 60 151.5t22 143.5q0 66 -21.5 101t-62.5 35q-55 0 -113 -53.5t-106 -147.5
q-38 -73 -60 -151.5t-22 -143.5q0 -66 21.5 -101t62.5 -35q55 0 113 53.5t106 147.5z" />
    <glyph glyph-name="one.lt" 
d="M212 41l209 544h-222l342 115l-253 -659h185l-16 -41h-442l16 41h181z" />
    <glyph glyph-name="two.lt" 
d="M508 76l-95 -76h-437q325 229 436 342.5t111 196.5q0 43 -27 67.5t-75 24.5q-58 0 -115.5 -32.5t-135.5 -113.5q54 100 134 157.5t166 57.5q63 0 101 -34.5t38 -90.5q0 -63 -44 -131t-137 -148q-45 -39 -107 -85t-169 -120v-15h356z" />
    <glyph glyph-name="three.lt" 
d="M101 128l86 -107q103 6 172.5 63.5t69.5 137.5q0 66 -51.5 98.5t-156.5 32.5q149 63 208.5 113.5t59.5 109.5q0 28 -19.5 44t-54.5 16q-45 0 -98.5 -26.5t-107.5 -74.5q43 72 113 118.5t140 46.5q50 0 81 -25t31 -66q0 -60 -52 -113t-151 -95v-13q65 -16 99.5 -51
t34.5 -86q0 -55 -32.5 -106.5t-91.5 -89.5q-48 -31 -107.5 -48t-121.5 -17q-46 0 -73.5 18.5t-27.5 47.5q0 23 14.5 43.5t35.5 28.5z" />
    <glyph glyph-name="four.lt" 
d="M442 39l-15 -39h-282l15 39h105l72 189h-310l564 472l-164 -428h179l-53 -44h-143l-72 -189h104zM128 272h226l108 282z" />
    <glyph glyph-name="five.lt" 
d="M354 614l-78 -165q107 2 172 -44t65 -126q0 -119 -108.5 -204t-256.5 -85q-45 0 -72.5 18.5t-27.5 47.5q0 23 14.5 43.5t35.5 28.5l85 -107q116 14 185 75.5t69 155.5q0 74 -60 109.5t-168 22.5l145 306h288l-67 -76h-221z" />
    <glyph glyph-name="six.lt" 
d="M448 73q-39 -39 -88 -61t-97 -22q-81 0 -129 53.5t-48 139.5q0 97 62 198.5t169 179.5q93 67 203 103t226 36q-176 -41 -313 -129t-209 -206h23q39 25 70 35t66 10q66 0 106.5 -42.5t40.5 -109.5q0 -50 -21.5 -98t-60.5 -87zM203 328q-21 -43 -31.5 -86t-10.5 -84
q0 -63 27 -97.5t75 -34.5q76 0 134 64.5t58 151.5q0 55 -36 88.5t-94 33.5q-29 0 -62 -10t-60 -26z" />
    <glyph glyph-name="seven.lt" 
d="M702 690l-561 -690h-69l523 614h-405l66 76h446z" />
    <glyph glyph-name="eight.lt" 
d="M517 210q0 -86 -78.5 -153t-184.5 -67q-79 0 -134 43t-55 109q0 70 58 125.5t152 77.5v30q-34 31 -49.5 58.5t-15.5 57.5q0 84 66.5 146.5t161.5 62.5q73 0 124 -41t51 -103q0 -63 -43 -107.5t-139 -77.5v-29q47 -37 66.5 -68t19.5 -64zM429 663q-64 0 -108 -41.5
t-44 -100.5q0 -34 22.5 -66t94.5 -85q69 33 109.5 82t40.5 102q0 52 -30.5 80.5t-84.5 28.5zM314 344q-88 -33 -131.5 -83t-43.5 -118q0 -54 35 -85.5t92 -31.5q73 0 125 47.5t52 112.5q0 24 -11 46t-35 45q-9 9 -19.5 18t-63.5 49z" />
    <glyph glyph-name="nine.lt" 
d="M245 618q39 39 88 61t97 22q81 0 129 -53.5t48 -139.5q0 -97 -62 -198.5t-169 -179.5q-93 -67 -203 -103t-226 -36q176 41 313 129t209 206h-23q-39 -25 -70 -35t-66 -10q-66 0 -106.5 42.5t-40.5 109.5q0 50 21.5 98t60.5 87zM490 363q21 43 31.5 86t10.5 84
q0 63 -27 97.5t-75 34.5q-76 0 -134 -64.5t-58 -151.5q0 -55 36 -88.5t94 -33.5q29 0 62 10t60 26z" />
    <glyph glyph-name="zero.ot" 
d="M181 374q40 54 90.5 85t99.5 31q63 0 100 -46t37 -124q0 -54 -20 -110t-56 -104q-41 -54 -91 -85t-99 -31q-63 0 -100 46t-37 124q0 54 20 110t56 104zM449 318q0 57 -21 88t-60 31q-79 0 -141.5 -87t-62.5 -188q0 -57 21 -88t60 -31q79 0 141.5 87t62.5 188z" />
    <glyph glyph-name="one.ot" 
d="M206 38l130 337h-190l310 115l-174 -452h161l-15 -38h-394l15 38h157z" />
    <glyph glyph-name="two.ot" 
d="M466 75l-96 -75h-363q119 79 158 105.5t69 48.5q90 67 130.5 115.5t40.5 89.5q0 30 -20 47.5t-56 17.5q-42 0 -84.5 -19.5t-91.5 -61.5q41 67 102.5 107t125.5 40q51 0 81.5 -28.5t30.5 -75.5q0 -61 -77.5 -133t-241.5 -163v-15h292z" />
    <glyph glyph-name="three.ot" 
d="M15 -140l83 -96q96 16 160 75.5t64 135.5q0 59 -54 96.5t-140 37.5q160 80 220.5 136t60.5 115q0 30 -19 46t-55 16q-33 0 -72.5 -16.5t-76.5 -45.5q44 63 97.5 96.5t112.5 33.5q45 0 72 -24.5t27 -64.5q0 -62 -55.5 -121t-170.5 -116v-15q62 -19 94.5 -56t32.5 -90
q0 -49 -32.5 -101t-88.5 -93q-50 -36 -107.5 -56t-114.5 -20q-38 0 -61.5 17.5t-23.5 45.5q0 20 13.5 39t33.5 25z" />
    <glyph glyph-name="four.ot" 
d="M327 0l-98 -256h-70l98 256h-322l581 494l-165 -433h173l-78 -61h-119zM59 61h222l108 283z" />
    <glyph glyph-name="five.ot" 
d="M373 105q0 -81 -43 -150.5t-125 -121.5q-65 -42 -147.5 -68t-168.5 -31q192 57 296 151.5t104 215.5q0 62 -36 111.5t-102 79.5l139 188h240l-68 -75h-187l-59 -79q73 -38 115 -96.5t42 -124.5z" />
    </font>
</defs>
</svg>
